<?xml version="1.0" encoding="UTF-8"?>
<!--Generator: CustomSymbols by @serious_bret-->
<!DOCTYPE svg
PUBLIC "-//W3C//DTD SVG 1.1//EN"
       "http://www.w3.org/Graphics/SVG/1.1/DTD/svg11.dtd">
<svg version="1.1" xmlns="http://www.w3.org/2000/svg" xmlns:xlink="http://www.w3.org/1999/xlink" width="3300" height="2200">
 <g id="Notes">
  <rect height="2200" id="artboard" style="fill:white;opacity:1" width="3300" x="0" y="0"/>
  <line id="" style="fill:none;stroke:black;opacity:1;stroke-width:0.5;" x1="263" x2="3036" y1="292" y2="292"/>
  <text id="reftext1" style="stroke:none;fill:black;font-family:-apple-system,&quot;SF Pro Display&quot;,&quot;SF Pro Text&quot;,Helvetica,sans-serif;font-weight:bold;" transform="matrix(1 0 0 1 263 322)">Weight/Scale Variations</text>
  <text id="reftext2" style="stroke:none;fill:black;font-family:-apple-system,&quot;SF Pro Display&quot;,&quot;SF Pro Text&quot;,Helvetica,sans-serif;text-anchor:middle;" transform="matrix(1 0 0 1 559.711 322)">Ultralight</text>
  <text style="stroke:none;fill:black;font-family:-apple-system,&quot;SF Pro Display&quot;,&quot;SF Pro Text&quot;,Helvetica,sans-serif;text-anchor:middle;" transform="matrix(1 0 0 1 856.422 322)">Thin</text>
  <text style="stroke:none;fill:black;font-family:-apple-system,&quot;SF Pro Display&quot;,&quot;SF Pro Text&quot;,Helvetica,sans-serif;text-anchor:middle;" transform="matrix(1 0 0 1 1153.13 322)">Light</text>
  <text style="stroke:none;fill:black;font-family:-apple-system,&quot;SF Pro Display&quot;,&quot;SF Pro Text&quot;,Helvetica,sans-serif;text-anchor:middle;" transform="matrix(1 0 0 1 1449.84 322)">Regular</text>
  <text style="stroke:none;fill:black;font-family:-apple-system,&quot;SF Pro Display&quot;,&quot;SF Pro Text&quot;,Helvetica,sans-serif;text-anchor:middle;" transform="matrix(1 0 0 1 1746.56 322)">Medium</text>
  <text style="stroke:none;fill:black;font-family:-apple-system,&quot;SF Pro Display&quot;,&quot;SF Pro Text&quot;,Helvetica,sans-serif;text-anchor:middle;" transform="matrix(1 0 0 1 2043.27 322)">Semibold</text>
  <text style="stroke:none;fill:black;font-family:-apple-system,&quot;SF Pro Display&quot;,&quot;SF Pro Text&quot;,Helvetica,sans-serif;text-anchor:middle;" transform="matrix(1 0 0 1 2339.98 322)">Bold</text>
  <text style="stroke:none;fill:black;font-family:-apple-system,&quot;SF Pro Display&quot;,&quot;SF Pro Text&quot;,Helvetica,sans-serif;text-anchor:middle;" transform="matrix(1 0 0 1 2636.69 322)">Heavy</text>
  <text style="stroke:none;fill:black;font-family:-apple-system,&quot;SF Pro Display&quot;,&quot;SF Pro Text&quot;,Helvetica,sans-serif;text-anchor:middle;" transform="matrix(1 0 0 1 2933.4 322)">Black</text>
  <line id="" style="fill:none;stroke:black;opacity:1;stroke-width:0.5;" x1="263" x2="3036" y1="1903" y2="1903"/>
  <g id="" transform="matrix(1 0 0 1 263 1933)">
   <path d="M9.24805 0.830078C13.5547 0.830078 17.1387-2.74414 17.1387-7.05078C17.1387-11.3574 13.5449-14.9316 9.23828-14.9316C4.94141-14.9316 1.36719-11.3574 1.36719-7.05078C1.36719-2.74414 4.95117 0.830078 9.24805 0.830078ZM9.24805-0.654297C5.70312-0.654297 2.87109-3.49609 2.87109-7.05078C2.87109-10.6055 5.69336-13.4473 9.23828-13.4473C12.793-13.4473 15.6348-10.6055 15.6445-7.05078C15.6543-3.49609 12.8027-0.654297 9.24805-0.654297ZM6.39648-6.31836L8.50586-6.31836L8.50586-4.19922C8.50586-3.75977 8.79883-3.45703 9.22852-3.45703C9.67773-3.45703 9.9707-3.75977 9.9707-4.19922L9.9707-6.31836L12.0996-6.31836C12.5391-6.31836 12.8418-6.61133 12.8418-7.04102C12.8418-7.48047 12.5391-7.7832 12.0996-7.7832L9.9707-7.7832L9.9707-9.89258C9.9707-10.3418 9.67773-10.6445 9.22852-10.6445C8.79883-10.6445 8.50586-10.3418 8.50586-9.89258L8.50586-7.7832L6.39648-7.7832C5.94727-7.7832 5.64453-7.48047 5.64453-7.04102C5.64453-6.61133 5.94727-6.31836 6.39648-6.31836Z"/>
  </g>
  <g id="" transform="matrix(1 0 0 1 281.506 1933)">
   <path d="M11.709 2.91016C17.1582 2.91016 21.6699-1.61133 21.6699-7.05078C21.6699-12.5 17.1484-17.0117 11.6992-17.0117C6.25977-17.0117 1.74805-12.5 1.74805-7.05078C1.74805-1.61133 6.26953 2.91016 11.709 2.91016ZM11.709 1.25C7.09961 1.25 3.41797-2.44141 3.41797-7.05078C3.41797-11.6602 7.08984-15.3516 11.6992-15.3516C16.3086-15.3516 20-11.6602 20.0098-7.05078C20.0195-2.44141 16.3184 1.25 11.709 1.25ZM7.98828-6.23047L10.8789-6.23047L10.8789-3.32031C10.8789-2.83203 11.2109-2.5 11.6895-2.5C12.1777-2.5 12.5195-2.83203 12.5195-3.32031L12.5195-6.23047L15.4297-6.23047C15.918-6.23047 16.25-6.5625 16.25-7.04102C16.25-7.5293 15.918-7.87109 15.4297-7.87109L12.5195-7.87109L12.5195-10.7617C12.5195-11.2695 12.1777-11.6016 11.6895-11.6016C11.2109-11.6016 10.8789-11.2598 10.8789-10.7617L10.8789-7.87109L7.98828-7.87109C7.48047-7.87109 7.14844-7.5293 7.14844-7.04102C7.14844-6.5625 7.49023-6.23047 7.98828-6.23047Z"/>
  </g>
  <g id="" transform="matrix(1 0 0 1 304.924 1933)">
   <path d="M14.9707 5.66406C21.9336 5.66406 27.6953-0.0976562 27.6953-7.05078C27.6953-14.0137 21.9238-19.7754 14.9609-19.7754C8.00781-19.7754 2.25586-14.0137 2.25586-7.05078C2.25586-0.0976562 8.01758 5.66406 14.9707 5.66406ZM14.9707 3.84766C8.93555 3.84766 4.08203-1.01562 4.08203-7.05078C4.08203-13.0957 8.92578-17.9492 14.9609-17.9492C21.0059-17.9492 25.8594-13.0957 25.8691-7.05078C25.8789-1.01562 21.0156 3.84766 14.9707 3.84766ZM10.0586-6.14258L14.0625-6.14258L14.0625-2.12891C14.0625-1.5918 14.4336-1.2207 14.9512-1.2207C15.4883-1.2207 15.8594-1.5918 15.8594-2.12891L15.8594-6.14258L19.8828-6.14258C20.4102-6.14258 20.791-6.51367 20.791-7.03125C20.791-7.56836 20.4199-7.94922 19.8828-7.94922L15.8594-7.94922L15.8594-11.9531C15.8594-12.5098 15.4883-12.8809 14.9512-12.8809C14.4336-12.8809 14.0625-12.5 14.0625-11.9531L14.0625-7.94922L10.0586-7.94922C9.50195-7.94922 9.13086-7.56836 9.13086-7.03125C9.13086-6.51367 9.51172-6.14258 10.0586-6.14258Z"/>
  </g>
  <text style="stroke:none;fill:black;font-family:-apple-system,&quot;SF Pro Display&quot;,&quot;SF Pro Text&quot;,Helvetica,sans-serif;font-weight:bold;" transform="matrix(1 0 0 1 263 1953)">Design Variations</text>
  <text style="stroke:none;fill:black;font-family:-apple-system,&quot;SF Pro Display&quot;,&quot;SF Pro Text&quot;,Helvetica,sans-serif;" transform="matrix(1 0 0 1 263 1971)">Symbols are supported in up to nine weights and three scales.</text>
  <text style="stroke:none;fill:black;font-family:-apple-system,&quot;SF Pro Display&quot;,&quot;SF Pro Text&quot;,Helvetica,sans-serif;" transform="matrix(1 0 0 1 263 1989)">For optimal layout with text and other symbols, vertically align</text>
  <text style="stroke:none;fill:black;font-family:-apple-system,&quot;SF Pro Display&quot;,&quot;SF Pro Text&quot;,Helvetica,sans-serif;" transform="matrix(1 0 0 1 263 2007)">symbols with the adjacent text.</text>
  <line id="" style="fill:none;stroke:#00AEEF;stroke-width:0.5;opacity:1.0;" x1="776" x2="776" y1="1919" y2="1933"/>
  <g id="" transform="matrix(1 0 0 1 776 1933)">
   <path d="M3.31055 0.126953C3.82812 0.126953 4.08203-0.0683594 4.26758-0.605469L5.52734-4.0625L11.2891-4.0625L12.5488-0.605469C12.7344-0.0683594 12.9883 0.126953 13.4961 0.126953C14.0137 0.126953 14.3457-0.185547 14.3457-0.673828C14.3457-0.839844 14.3164-0.986328 14.2383-1.20117L9.6582-13.3887C9.43359-13.9941 9.0332-14.2871 8.4082-14.2871C7.80273-14.2871 7.39258-13.9941 7.17773-13.3984L2.59766-1.19141C2.51953-0.976562 2.49023-0.830078 2.49023-0.664062C2.49023-0.175781 2.80273 0.126953 3.31055 0.126953ZM6.00586-5.53711L8.37891-12.1094L8.42773-12.1094L10.8008-5.53711Z"/>
  </g>
  <line id="" style="fill:none;stroke:#00AEEF;stroke-width:0.5;opacity:1.0;" x1="792.836" x2="792.836" y1="1919" y2="1933"/>
  <text style="stroke:none;fill:black;font-family:-apple-system,&quot;SF Pro Display&quot;,&quot;SF Pro Text&quot;,Helvetica,sans-serif;font-weight:bold;" transform="matrix(1 0 0 1 776 1953)">Margins</text>
  <text style="stroke:none;fill:black;font-family:-apple-system,&quot;SF Pro Display&quot;,&quot;SF Pro Text&quot;,Helvetica,sans-serif;" transform="matrix(1 0 0 1 776 1971)">Leading and trailing margins on the left and right side of each symbol</text>
  <text style="stroke:none;fill:black;font-family:-apple-system,&quot;SF Pro Display&quot;,&quot;SF Pro Text&quot;,Helvetica,sans-serif;" transform="matrix(1 0 0 1 776 1989)">can be adjusted by modifying the x-location of the margin guidelines.</text>
  <text style="stroke:none;fill:black;font-family:-apple-system,&quot;SF Pro Display&quot;,&quot;SF Pro Text&quot;,Helvetica,sans-serif;" transform="matrix(1 0 0 1 776 2007)">Modifications are automatically applied proportionally to all</text>
  <text style="stroke:none;fill:black;font-family:-apple-system,&quot;SF Pro Display&quot;,&quot;SF Pro Text&quot;,Helvetica,sans-serif;" transform="matrix(1 0 0 1 776 2025)">scales and weights.</text>
  <g id="" transform="matrix(1 0 0 1 1289 1933)">
   <path d="M2.8418 1.86523L4.54102 3.57422C5.40039 4.44336 6.38672 4.38477 7.31445 3.35938L17.4902-7.85156C17.7539-7.76367 18.0273-7.7832 18.3398-7.8418L19.4043-8.03711L20.0684-7.36328L20.0293-6.80664C19.9902-6.30859 20.1172-5.92773 20.6055-5.44922L21.3672-4.70703C21.8457-4.22852 22.4609-4.19922 22.9297-4.66797L25.8398-7.58789C26.3086-8.05664 26.2891-8.65234 25.8105-9.13086L25.0391-9.89258C24.5605-10.3711 24.1895-10.5273 23.7109-10.4883L23.1348-10.4395L22.4902-11.0742L22.7344-12.1973C22.8613-12.7637 22.7051-13.2031 22.1191-13.7891L19.9219-15.9766C16.582-19.2969 12.1484-19.2188 9.25781-16.3281C8.83789-15.918 8.80859-15.3418 9.04297-14.9512C9.27734-14.5898 9.73633-14.3555 10.3809-14.5215C11.8457-14.8633 13.3691-14.9219 14.7949-13.9844L14.209-12.5293C14.0137-12.0508 13.9844-11.6504 14.1113-11.2891L3.04688-0.898438C2.06055 0.0195312 1.98242 0.996094 2.8418 1.86523ZM10.752-15.957C13.1836-17.7344 16.4746-17.4316 18.7012-15.2051L21.1328-12.793C21.3672-12.5586 21.4062-12.373 21.3379-12.0312L21.0156-10.5469L22.5195-9.0625L23.5059-9.12109C23.7598-9.13086 23.8379-9.11133 24.0332-8.91602L24.6094-8.33984L22.168-5.89844L21.5918-6.47461C21.3965-6.66992 21.3672-6.74805 21.377-7.01172L21.4453-7.98828L19.9512-9.47266L18.4277-9.21875C18.1055-9.15039 17.959-9.17969 17.7148-9.41406L15.7129-11.416C15.459-11.6504 15.4297-11.8164 15.5859-12.1875L16.4648-14.2773C14.9023-15.7324 12.8711-16.3574 10.8398-15.7617C10.6836-15.7227 10.625-15.8496 10.752-15.957ZM5.27344 2.30469L4.10156 1.14258C3.63281 0.683594 3.74023 0.341797 4.14062-0.0195312L14.9512-10.1953L16.416-8.71094L6.42578 2.27539C6.07422 2.67578 5.74219 2.77344 5.27344 2.30469Z"/>
  </g>
  <text style="stroke:none;fill:black;font-family:-apple-system,&quot;SF Pro Display&quot;,&quot;SF Pro Text&quot;,Helvetica,sans-serif;font-weight:bold;" transform="matrix(1 0 0 1 1289 1953)">Exporting</text>
  <text style="stroke:none;fill:black;font-family:-apple-system,&quot;SF Pro Display&quot;,&quot;SF Pro Text&quot;,Helvetica,sans-serif;" transform="matrix(1 0 0 1 1289 1971)">Symbols should be outlined when exporting to ensure the</text>
  <text style="stroke:none;fill:black;font-family:-apple-system,&quot;SF Pro Display&quot;,&quot;SF Pro Text&quot;,Helvetica,sans-serif;" transform="matrix(1 0 0 1 1289 1989)">design is preserved when submitting to Xcode.</text>
  <text id="template-version" style="stroke:none;fill:black;font-family:-apple-system,&quot;SF Pro Display&quot;,&quot;SF Pro Text&quot;,Helvetica,sans-serif;text-anchor:end;" transform="matrix(1 0 0 1 3036 1933)">Template v.2.0</text>
  <text style="stroke:none;fill:black;font-family:-apple-system,&quot;SF Pro Display&quot;,&quot;SF Pro Text&quot;,Helvetica,sans-serif;text-anchor:end;" transform="matrix(1 0 0 1 3036 1951)">Requires Xcode 12 or greater</text>
  <text style="stroke:none;fill:black;font-family:-apple-system,&quot;SF Pro Display&quot;,&quot;SF Pro Text&quot;,Helvetica,sans-serif;" transform="matrix(1 0 0 1 263 726)">Small</text>
  <text style="stroke:none;fill:black;font-family:-apple-system,&quot;SF Pro Display&quot;,&quot;SF Pro Text&quot;,Helvetica,sans-serif;" transform="matrix(1 0 0 1 263 1156)">Medium</text>
  <text style="stroke:none;fill:black;font-family:-apple-system,&quot;SF Pro Display&quot;,&quot;SF Pro Text&quot;,Helvetica,sans-serif;" transform="matrix(1 0 0 1 263 1586)">Large</text>
 </g>
 <g id="Guides">
  <g id="H-reference" style="fill:#27AAE1;stroke:none;" transform="matrix(1 0 0 1 339 696)">
   <path d="M0.976562 0L3.66211 0L12.9883-24.4629L45.752-24.4629L55.127 0L57.7637 0L30.6152-70.459L28.125-70.459ZM29.3457-67.1387L29.4434-67.1387L44.873-26.709L13.8672-26.709Z"/>
  </g>
  <line id="Baseline-S" style="fill:none;stroke:#27AAE1;opacity:1;stroke-width:0.5;" x1="263" x2="3036" y1="696" y2="696"/>
  <line id="Capline-S" style="fill:none;stroke:#27AAE1;opacity:1;stroke-width:0.5;" x1="263" x2="3036" y1="625.541" y2="625.541"/>
  <g id="H-reference" style="fill:#27AAE1;stroke:none;" transform="matrix(1 0 0 1 339 1126)">
   <path d="M0.976562 0L3.66211 0L12.9883-24.4629L45.752-24.4629L55.127 0L57.7637 0L30.6152-70.459L28.125-70.459ZM29.3457-67.1387L29.4434-67.1387L44.873-26.709L13.8672-26.709Z"/>
  </g>
  <line id="Baseline-M" style="fill:none;stroke:#27AAE1;opacity:1;stroke-width:0.5;" x1="263" x2="3036" y1="1126" y2="1126"/>
  <line id="Capline-M" style="fill:none;stroke:#27AAE1;opacity:1;stroke-width:0.5;" x1="263" x2="3036" y1="1055.54" y2="1055.54"/>
  <g id="H-reference" style="fill:#27AAE1;stroke:none;" transform="matrix(1 0 0 1 339 1556)">
   <path d="M0.976562 0L3.66211 0L12.9883-24.4629L45.752-24.4629L55.127 0L57.7637 0L30.6152-70.459L28.125-70.459ZM29.3457-67.1387L29.4434-67.1387L44.873-26.709L13.8672-26.709Z"/>
  </g>
  <line id="Baseline-L" style="fill:none;stroke:#27AAE1;opacity:1;stroke-width:0.5;" x1="263" x2="3036" y1="1556" y2="1556"/>
  <line id="Capline-L" style="fill:none;stroke:#27AAE1;opacity:1;stroke-width:0.5;" x1="263" x2="3036" y1="1485.54" y2="1485.54"/>
  <line id="left-margin" x1="1415.9000195312499" x2="1415.9000195312499" y1="1030.79" y2="1150.12" style="fill:none;stroke:#00AEEF;stroke-width:0.5;opacity:1.0;"/>
  <line id="right-margin" x1="1486.3599804687499" x2="1486.3599804687499" y1="1030.79" y2="1150.12" style="fill:none;stroke:#00AEEF;stroke-width:0.5;opacity:1.0;"/>
 </g>
 <g id="Symbols">
  <g id="Black-L" transform="matrix(1.0,0.0,0.0,1.0,2889.2333251953123,1475.3233447265625)">  <path stroke-width="1px" stroke-linecap="butt" fill-opacity="1" stroke-linejoin="miter" xml:space="preserve" stroke="none" version="1.1" y="0px" xmlns:xlink="http://www.w3.org/1999/xlink" fill="#000000" stroke-dasharray="none" stroke-miterlimit="4" x="0px" stroke-opacity="1" fill-rule="nonzero" d="M84.787,46.397C83.569,37.872,78.358,12.298,73.227,9.731C72.765,9.5,72.054,9.113,71.157,8.625C60.392,2.774,49.762,-2.202,44.955,1.008C41.228,3.493,38.029,9.277,37.515,14.463C37.217,17.476,37.863,19.873,39.385,21.395C42.72,24.732,53.859,23.348,59.731,22.334C59.338,24.191,58.49,27.344,56.662,31.913C53.727,39.25,55.309,50.736,56.158,55.595L52.345,55.595C49.38,49.411,45.293,46.23,40.184,45.213C30.101,43.2,19.486,51.62,16.997,53.828L10.599,53.828C9.622,53.828,8.832,54.619,8.832,55.595C8.832,56.571,9.622,57.362,10.599,57.362L17.666,57.362C18.11,57.362,18.537,57.137,18.864,56.837C18.972,56.736,29.982,46.695,39.503,48.595C43.728,49.439,47.136,52.652,49.631,58.059C49.921,58.685,50.547,59.128,51.235,59.128L58.302,59.128C58.839,59.128,59.344,58.828,59.681,58.41C60.016,57.992,60.143,57.416,60.028,56.893C59.993,56.739,56.649,41.415,59.943,33.183C63.499,24.29,63.603,20.549,63.603,20.152C63.603,19.623,63.365,19.118,62.956,18.782C62.548,18.447,62.01,18.311,61.489,18.415C53.439,20.022,43.652,20.663,41.884,18.897C41.157,18.17,40.847,16.681,41.031,14.811C41.444,10.644,44.028,5.871,46.915,3.947C49.374,2.308,56.963,4.931,69.469,11.73C70.413,12.242,71.16,12.648,71.629,12.882C74.046,14.41,79.281,32.847,81.288,46.897C82.784,57.364,81.679,73.268,81.359,77.323C75.306,80.325,37.782,97.529,8.009,78.722C7.183,78.203,6.094,78.448,5.571,79.272C5.05,80.098,5.297,81.189,6.121,81.71C16.96,88.555,28.729,90.894,39.758,90.893C63.377,90.892,83.584,80.162,83.879,80.003C84.399,79.721,84.744,79.198,84.797,78.609C84.87,77.808,86.562,58.827,84.787,46.397ZM84.787,46.397"/>
</g>
  <g id="Heavy-L" transform="matrix(1.0,0.0,0.0,1.0,2592.5233251953123,1475.3233447265625)">  <path fill-opacity="1" xml:space="preserve" fill-rule="nonzero" y="0px" stroke-miterlimit="4" stroke-opacity="1" stroke-linejoin="miter" version="1.1" xmlns:xlink="http://www.w3.org/1999/xlink" fill="#000000" stroke-linecap="butt" stroke="none" stroke-width="1px" x="0px" stroke-dasharray="none" d="M84.787,46.397C83.569,37.872,78.358,12.298,73.227,9.731C72.765,9.5,72.054,9.113,71.157,8.625C60.392,2.774,49.762,-2.202,44.955,1.008C41.228,3.493,38.029,9.277,37.515,14.463C37.217,17.476,37.863,19.873,39.385,21.395C42.72,24.732,53.859,23.348,59.731,22.334C59.338,24.191,58.49,27.344,56.662,31.913C53.727,39.25,55.309,50.736,56.158,55.595L52.345,55.595C49.38,49.411,45.293,46.23,40.184,45.213C30.101,43.2,19.486,51.62,16.997,53.828L10.599,53.828C9.622,53.828,8.832,54.619,8.832,55.595C8.832,56.571,9.622,57.362,10.599,57.362L17.666,57.362C18.11,57.362,18.537,57.137,18.864,56.837C18.972,56.736,29.982,46.695,39.503,48.595C43.728,49.439,47.136,52.652,49.631,58.059C49.921,58.685,50.547,59.128,51.235,59.128L58.302,59.128C58.839,59.128,59.344,58.828,59.681,58.41C60.016,57.992,60.143,57.416,60.028,56.893C59.993,56.739,56.649,41.415,59.943,33.183C63.499,24.29,63.603,20.549,63.603,20.152C63.603,19.623,63.365,19.118,62.956,18.782C62.548,18.447,62.01,18.311,61.489,18.415C53.439,20.022,43.652,20.663,41.884,18.897C41.157,18.17,40.847,16.681,41.031,14.811C41.444,10.644,44.028,5.871,46.915,3.947C49.374,2.308,56.963,4.931,69.469,11.73C70.413,12.242,71.16,12.648,71.629,12.882C74.046,14.41,79.281,32.847,81.288,46.897C82.784,57.364,81.679,73.268,81.359,77.323C75.306,80.325,37.782,97.529,8.009,78.722C7.183,78.203,6.094,78.448,5.571,79.272C5.05,80.098,5.297,81.189,6.121,81.71C16.96,88.555,28.729,90.894,39.758,90.893C63.377,90.892,83.584,80.162,83.879,80.003C84.399,79.721,84.744,79.198,84.797,78.609C84.87,77.808,86.562,58.827,84.787,46.397ZM84.787,46.397"/>
</g>
  <g id="Bold-L" transform="matrix(1.0,0.0,0.0,1.0,2295.8133251953122,1475.3233447265625)">  <path fill-opacity="1" fill="#000000" stroke-linejoin="miter" stroke-width="1px" stroke-dasharray="none" xml:space="preserve" y="0px" stroke-opacity="1" xmlns:xlink="http://www.w3.org/1999/xlink" stroke-miterlimit="4" x="0px" version="1.1" stroke-linecap="butt" fill-rule="nonzero" stroke="none" d="M84.787,46.397C83.569,37.872,78.358,12.298,73.227,9.731C72.765,9.5,72.054,9.113,71.157,8.625C60.392,2.774,49.762,-2.202,44.955,1.008C41.228,3.493,38.029,9.277,37.515,14.463C37.217,17.476,37.863,19.873,39.385,21.395C42.72,24.732,53.859,23.348,59.731,22.334C59.338,24.191,58.49,27.344,56.662,31.913C53.727,39.25,55.309,50.736,56.158,55.595L52.345,55.595C49.38,49.411,45.293,46.23,40.184,45.213C30.101,43.2,19.486,51.62,16.997,53.828L10.599,53.828C9.622,53.828,8.832,54.619,8.832,55.595C8.832,56.571,9.622,57.362,10.599,57.362L17.666,57.362C18.11,57.362,18.537,57.137,18.864,56.837C18.972,56.736,29.982,46.695,39.503,48.595C43.728,49.439,47.136,52.652,49.631,58.059C49.921,58.685,50.547,59.128,51.235,59.128L58.302,59.128C58.839,59.128,59.344,58.828,59.681,58.41C60.016,57.992,60.143,57.416,60.028,56.893C59.993,56.739,56.649,41.415,59.943,33.183C63.499,24.29,63.603,20.549,63.603,20.152C63.603,19.623,63.365,19.118,62.956,18.782C62.548,18.447,62.01,18.311,61.489,18.415C53.439,20.022,43.652,20.663,41.884,18.897C41.157,18.17,40.847,16.681,41.031,14.811C41.444,10.644,44.028,5.871,46.915,3.947C49.374,2.308,56.963,4.931,69.469,11.73C70.413,12.242,71.16,12.648,71.629,12.882C74.046,14.41,79.281,32.847,81.288,46.897C82.784,57.364,81.679,73.268,81.359,77.323C75.306,80.325,37.782,97.529,8.009,78.722C7.183,78.203,6.094,78.448,5.571,79.272C5.05,80.098,5.297,81.189,6.121,81.71C16.96,88.555,28.729,90.894,39.758,90.893C63.377,90.892,83.584,80.162,83.879,80.003C84.399,79.721,84.744,79.198,84.797,78.609C84.87,77.808,86.562,58.827,84.787,46.397ZM84.787,46.397"/>
</g>
  <g id="Semibold-L" transform="matrix(1.0,0.0,0.0,1.0,1999.1033251953124,1475.3233447265625)">  <path stroke-opacity="1" stroke="none" fill-opacity="1" stroke-linecap="butt" fill="#000000" stroke-linejoin="miter" x="0px" fill-rule="nonzero" xml:space="preserve" stroke-dasharray="none" stroke-width="1px" xmlns:xlink="http://www.w3.org/1999/xlink" stroke-miterlimit="4" y="0px" version="1.1" d="M84.787,46.397C83.569,37.872,78.358,12.298,73.227,9.731C72.765,9.5,72.054,9.113,71.157,8.625C60.392,2.774,49.762,-2.202,44.955,1.008C41.228,3.493,38.029,9.277,37.515,14.463C37.217,17.476,37.863,19.873,39.385,21.395C42.72,24.732,53.859,23.348,59.731,22.334C59.338,24.191,58.49,27.344,56.662,31.913C53.727,39.25,55.309,50.736,56.158,55.595L52.345,55.595C49.38,49.411,45.293,46.23,40.184,45.213C30.101,43.2,19.486,51.62,16.997,53.828L10.599,53.828C9.622,53.828,8.832,54.619,8.832,55.595C8.832,56.571,9.622,57.362,10.599,57.362L17.666,57.362C18.11,57.362,18.537,57.137,18.864,56.837C18.972,56.736,29.982,46.695,39.503,48.595C43.728,49.439,47.136,52.652,49.631,58.059C49.921,58.685,50.547,59.128,51.235,59.128L58.302,59.128C58.839,59.128,59.344,58.828,59.681,58.41C60.016,57.992,60.143,57.416,60.028,56.893C59.993,56.739,56.649,41.415,59.943,33.183C63.499,24.29,63.603,20.549,63.603,20.152C63.603,19.623,63.365,19.118,62.956,18.782C62.548,18.447,62.01,18.311,61.489,18.415C53.439,20.022,43.652,20.663,41.884,18.897C41.157,18.17,40.847,16.681,41.031,14.811C41.444,10.644,44.028,5.871,46.915,3.947C49.374,2.308,56.963,4.931,69.469,11.73C70.413,12.242,71.16,12.648,71.629,12.882C74.046,14.41,79.281,32.847,81.288,46.897C82.784,57.364,81.679,73.268,81.359,77.323C75.306,80.325,37.782,97.529,8.009,78.722C7.183,78.203,6.094,78.448,5.571,79.272C5.05,80.098,5.297,81.189,6.121,81.71C16.96,88.555,28.729,90.894,39.758,90.893C63.377,90.892,83.584,80.162,83.879,80.003C84.399,79.721,84.744,79.198,84.797,78.609C84.87,77.808,86.562,58.827,84.787,46.397ZM84.787,46.397"/>
</g>
  <g id="Medium-L" transform="matrix(1.0,0.0,0.0,1.0,1702.3933251953124,1475.3233447265625)">  <path xml:space="preserve" fill="#000000" xmlns:xlink="http://www.w3.org/1999/xlink" stroke="none" stroke-opacity="1" version="1.1" fill-rule="nonzero" x="0px" stroke-width="1px" stroke-linejoin="miter" stroke-miterlimit="4" stroke-linecap="butt" fill-opacity="1" stroke-dasharray="none" y="0px" d="M84.787,46.397C83.569,37.872,78.358,12.298,73.227,9.731C72.765,9.5,72.054,9.113,71.157,8.625C60.392,2.774,49.762,-2.202,44.955,1.008C41.228,3.493,38.029,9.277,37.515,14.463C37.217,17.476,37.863,19.873,39.385,21.395C42.72,24.732,53.859,23.348,59.731,22.334C59.338,24.191,58.49,27.344,56.662,31.913C53.727,39.25,55.309,50.736,56.158,55.595L52.345,55.595C49.38,49.411,45.293,46.23,40.184,45.213C30.101,43.2,19.486,51.62,16.997,53.828L10.599,53.828C9.622,53.828,8.832,54.619,8.832,55.595C8.832,56.571,9.622,57.362,10.599,57.362L17.666,57.362C18.11,57.362,18.537,57.137,18.864,56.837C18.972,56.736,29.982,46.695,39.503,48.595C43.728,49.439,47.136,52.652,49.631,58.059C49.921,58.685,50.547,59.128,51.235,59.128L58.302,59.128C58.839,59.128,59.344,58.828,59.681,58.41C60.016,57.992,60.143,57.416,60.028,56.893C59.993,56.739,56.649,41.415,59.943,33.183C63.499,24.29,63.603,20.549,63.603,20.152C63.603,19.623,63.365,19.118,62.956,18.782C62.548,18.447,62.01,18.311,61.489,18.415C53.439,20.022,43.652,20.663,41.884,18.897C41.157,18.17,40.847,16.681,41.031,14.811C41.444,10.644,44.028,5.871,46.915,3.947C49.374,2.308,56.963,4.931,69.469,11.73C70.413,12.242,71.16,12.648,71.629,12.882C74.046,14.41,79.281,32.847,81.288,46.897C82.784,57.364,81.679,73.268,81.359,77.323C75.306,80.325,37.782,97.529,8.009,78.722C7.183,78.203,6.094,78.448,5.571,79.272C5.05,80.098,5.297,81.189,6.121,81.71C16.96,88.555,28.729,90.894,39.758,90.893C63.377,90.892,83.584,80.162,83.879,80.003C84.399,79.721,84.744,79.198,84.797,78.609C84.87,77.808,86.562,58.827,84.787,46.397ZM84.787,46.397"/>
</g>
  <g id="Regular-L" transform="matrix(1.0,0.0,0.0,1.0,1405.6833251953124,1475.3233447265625)">  <path stroke-linejoin="miter" fill-rule="nonzero" x="0px" stroke-opacity="1" version="1.1" stroke="none" xmlns:xlink="http://www.w3.org/1999/xlink" stroke-miterlimit="4" stroke-linecap="butt" stroke-width="1px" fill-opacity="1" fill="#000000" y="0px" xml:space="preserve" stroke-dasharray="none" d="M84.787,46.397C83.569,37.872,78.358,12.298,73.227,9.731C72.765,9.5,72.054,9.113,71.157,8.625C60.392,2.774,49.762,-2.202,44.955,1.008C41.228,3.493,38.029,9.277,37.515,14.463C37.217,17.476,37.863,19.873,39.385,21.395C42.72,24.732,53.859,23.348,59.731,22.334C59.338,24.191,58.49,27.344,56.662,31.913C53.727,39.25,55.309,50.736,56.158,55.595L52.345,55.595C49.38,49.411,45.293,46.23,40.184,45.213C30.101,43.2,19.486,51.62,16.997,53.828L10.599,53.828C9.622,53.828,8.832,54.619,8.832,55.595C8.832,56.571,9.622,57.362,10.599,57.362L17.666,57.362C18.11,57.362,18.537,57.137,18.864,56.837C18.972,56.736,29.982,46.695,39.503,48.595C43.728,49.439,47.136,52.652,49.631,58.059C49.921,58.685,50.547,59.128,51.235,59.128L58.302,59.128C58.839,59.128,59.344,58.828,59.681,58.41C60.016,57.992,60.143,57.416,60.028,56.893C59.993,56.739,56.649,41.415,59.943,33.183C63.499,24.29,63.603,20.549,63.603,20.152C63.603,19.623,63.365,19.118,62.956,18.782C62.548,18.447,62.01,18.311,61.489,18.415C53.439,20.022,43.652,20.663,41.884,18.897C41.157,18.17,40.847,16.681,41.031,14.811C41.444,10.644,44.028,5.871,46.915,3.947C49.374,2.308,56.963,4.931,69.469,11.73C70.413,12.242,71.16,12.648,71.629,12.882C74.046,14.41,79.281,32.847,81.288,46.897C82.784,57.364,81.679,73.268,81.359,77.323C75.306,80.325,37.782,97.529,8.009,78.722C7.183,78.203,6.094,78.448,5.571,79.272C5.05,80.098,5.297,81.189,6.121,81.71C16.96,88.555,28.729,90.894,39.758,90.893C63.377,90.892,83.584,80.162,83.879,80.003C84.399,79.721,84.744,79.198,84.797,78.609C84.87,77.808,86.562,58.827,84.787,46.397ZM84.787,46.397"/>
</g>
  <g id="Light-L" transform="matrix(1.0,0.0,0.0,1.0,1108.9733251953126,1475.3233447265625)">  <path stroke="none" fill-opacity="1" x="0px" stroke-linecap="butt" version="1.1" stroke-dasharray="none" stroke-linejoin="miter" xml:space="preserve" fill-rule="nonzero" xmlns:xlink="http://www.w3.org/1999/xlink" y="0px" stroke-miterlimit="4" fill="#000000" stroke-width="1px" stroke-opacity="1" d="M84.787,46.397C83.569,37.872,78.358,12.298,73.227,9.731C72.765,9.5,72.054,9.113,71.157,8.625C60.392,2.774,49.762,-2.202,44.955,1.008C41.228,3.493,38.029,9.277,37.515,14.463C37.217,17.476,37.863,19.873,39.385,21.395C42.72,24.732,53.859,23.348,59.731,22.334C59.338,24.191,58.49,27.344,56.662,31.913C53.727,39.25,55.309,50.736,56.158,55.595L52.345,55.595C49.38,49.411,45.293,46.23,40.184,45.213C30.101,43.2,19.486,51.62,16.997,53.828L10.599,53.828C9.622,53.828,8.832,54.619,8.832,55.595C8.832,56.571,9.622,57.362,10.599,57.362L17.666,57.362C18.11,57.362,18.537,57.137,18.864,56.837C18.972,56.736,29.982,46.695,39.503,48.595C43.728,49.439,47.136,52.652,49.631,58.059C49.921,58.685,50.547,59.128,51.235,59.128L58.302,59.128C58.839,59.128,59.344,58.828,59.681,58.41C60.016,57.992,60.143,57.416,60.028,56.893C59.993,56.739,56.649,41.415,59.943,33.183C63.499,24.29,63.603,20.549,63.603,20.152C63.603,19.623,63.365,19.118,62.956,18.782C62.548,18.447,62.01,18.311,61.489,18.415C53.439,20.022,43.652,20.663,41.884,18.897C41.157,18.17,40.847,16.681,41.031,14.811C41.444,10.644,44.028,5.871,46.915,3.947C49.374,2.308,56.963,4.931,69.469,11.73C70.413,12.242,71.16,12.648,71.629,12.882C74.046,14.41,79.281,32.847,81.288,46.897C82.784,57.364,81.679,73.268,81.359,77.323C75.306,80.325,37.782,97.529,8.009,78.722C7.183,78.203,6.094,78.448,5.571,79.272C5.05,80.098,5.297,81.189,6.121,81.71C16.96,88.555,28.729,90.894,39.758,90.893C63.377,90.892,83.584,80.162,83.879,80.003C84.399,79.721,84.744,79.198,84.797,78.609C84.87,77.808,86.562,58.827,84.787,46.397ZM84.787,46.397"/>
</g>
  <g id="Thin-L" transform="matrix(1.0,0.0,0.0,1.0,812.2633251953125,1475.3233447265625)">  <path y="0px" xml:space="preserve" x="0px" fill="#000000" version="1.1" stroke="none" stroke-linejoin="miter" stroke-opacity="1" stroke-miterlimit="4" stroke-dasharray="none" xmlns:xlink="http://www.w3.org/1999/xlink" fill-opacity="1" stroke-linecap="butt" stroke-width="1px" fill-rule="nonzero" d="M84.787,46.397C83.569,37.872,78.358,12.298,73.227,9.731C72.765,9.5,72.054,9.113,71.157,8.625C60.392,2.774,49.762,-2.202,44.955,1.008C41.228,3.493,38.029,9.277,37.515,14.463C37.217,17.476,37.863,19.873,39.385,21.395C42.72,24.732,53.859,23.348,59.731,22.334C59.338,24.191,58.49,27.344,56.662,31.913C53.727,39.25,55.309,50.736,56.158,55.595L52.345,55.595C49.38,49.411,45.293,46.23,40.184,45.213C30.101,43.2,19.486,51.62,16.997,53.828L10.599,53.828C9.622,53.828,8.832,54.619,8.832,55.595C8.832,56.571,9.622,57.362,10.599,57.362L17.666,57.362C18.11,57.362,18.537,57.137,18.864,56.837C18.972,56.736,29.982,46.695,39.503,48.595C43.728,49.439,47.136,52.652,49.631,58.059C49.921,58.685,50.547,59.128,51.235,59.128L58.302,59.128C58.839,59.128,59.344,58.828,59.681,58.41C60.016,57.992,60.143,57.416,60.028,56.893C59.993,56.739,56.649,41.415,59.943,33.183C63.499,24.29,63.603,20.549,63.603,20.152C63.603,19.623,63.365,19.118,62.956,18.782C62.548,18.447,62.01,18.311,61.489,18.415C53.439,20.022,43.652,20.663,41.884,18.897C41.157,18.17,40.847,16.681,41.031,14.811C41.444,10.644,44.028,5.871,46.915,3.947C49.374,2.308,56.963,4.931,69.469,11.73C70.413,12.242,71.16,12.648,71.629,12.882C74.046,14.41,79.281,32.847,81.288,46.897C82.784,57.364,81.679,73.268,81.359,77.323C75.306,80.325,37.782,97.529,8.009,78.722C7.183,78.203,6.094,78.448,5.571,79.272C5.05,80.098,5.297,81.189,6.121,81.71C16.96,88.555,28.729,90.894,39.758,90.893C63.377,90.892,83.584,80.162,83.879,80.003C84.399,79.721,84.744,79.198,84.797,78.609C84.87,77.808,86.562,58.827,84.787,46.397ZM84.787,46.397"/>
</g>
  <g id="Ultralight-L" transform="matrix(1.0,0.0,0.0,1.0,515.5533251953125,1475.3233447265625)">  <path xml:space="preserve" stroke-linecap="butt" stroke-dasharray="none" xmlns:xlink="http://www.w3.org/1999/xlink" version="1.1" fill-rule="nonzero" stroke-miterlimit="4" stroke="none" stroke-linejoin="miter" stroke-width="1px" x="0px" fill-opacity="1" stroke-opacity="1" fill="#000000" y="0px" d="M84.787,46.397C83.569,37.872,78.358,12.298,73.227,9.731C72.765,9.5,72.054,9.113,71.157,8.625C60.392,2.774,49.762,-2.202,44.955,1.008C41.228,3.493,38.029,9.277,37.515,14.463C37.217,17.476,37.863,19.873,39.385,21.395C42.72,24.732,53.859,23.348,59.731,22.334C59.338,24.191,58.49,27.344,56.662,31.913C53.727,39.25,55.309,50.736,56.158,55.595L52.345,55.595C49.38,49.411,45.293,46.23,40.184,45.213C30.101,43.2,19.486,51.62,16.997,53.828L10.599,53.828C9.622,53.828,8.832,54.619,8.832,55.595C8.832,56.571,9.622,57.362,10.599,57.362L17.666,57.362C18.11,57.362,18.537,57.137,18.864,56.837C18.972,56.736,29.982,46.695,39.503,48.595C43.728,49.439,47.136,52.652,49.631,58.059C49.921,58.685,50.547,59.128,51.235,59.128L58.302,59.128C58.839,59.128,59.344,58.828,59.681,58.41C60.016,57.992,60.143,57.416,60.028,56.893C59.993,56.739,56.649,41.415,59.943,33.183C63.499,24.29,63.603,20.549,63.603,20.152C63.603,19.623,63.365,19.118,62.956,18.782C62.548,18.447,62.01,18.311,61.489,18.415C53.439,20.022,43.652,20.663,41.884,18.897C41.157,18.17,40.847,16.681,41.031,14.811C41.444,10.644,44.028,5.871,46.915,3.947C49.374,2.308,56.963,4.931,69.469,11.73C70.413,12.242,71.16,12.648,71.629,12.882C74.046,14.41,79.281,32.847,81.288,46.897C82.784,57.364,81.679,73.268,81.359,77.323C75.306,80.325,37.782,97.529,8.009,78.722C7.183,78.203,6.094,78.448,5.571,79.272C5.05,80.098,5.297,81.189,6.121,81.71C16.96,88.555,28.729,90.894,39.758,90.893C63.377,90.892,83.584,80.162,83.879,80.003C84.399,79.721,84.744,79.198,84.797,78.609C84.87,77.808,86.562,58.827,84.787,46.397ZM84.787,46.397"/>
</g>
  <g id="Black-M" transform="matrix(1.0,0.0,0.0,1.0,2899.45001953125,1055.5400390625)">  <path stroke-width="1px" stroke-linecap="butt" fill-opacity="1" stroke-linejoin="miter" xml:space="preserve" stroke="none" version="1.1" y="0px" xmlns:xlink="http://www.w3.org/1999/xlink" fill="#000000" stroke-dasharray="none" stroke-miterlimit="4" x="0px" stroke-opacity="1" fill-rule="nonzero" d="M65.726,35.967C64.782,29.358,60.743,9.533,56.765,7.543C56.407,7.364,55.856,7.064,55.16,6.686C46.815,2.15,38.575,-1.707,34.849,0.781C31.96,2.708,29.48,7.192,29.081,11.212C28.85,13.548,29.352,15.405,30.531,16.585C33.117,19.172,41.752,18.099,46.303,17.313C45.998,18.753,45.341,21.197,43.924,24.739C41.649,30.427,42.875,39.331,43.533,43.097L40.577,43.097C38.279,38.303,35.111,35.837,31.15,35.049C23.334,33.488,15.106,40.015,13.176,41.727L8.216,41.727C7.459,41.727,6.847,42.341,6.847,43.097C6.847,43.853,7.459,44.466,8.216,44.466L13.695,44.466C14.038,44.466,14.37,44.293,14.623,44.06C14.707,43.981,23.242,36.198,30.622,37.671C33.898,38.324,36.539,40.815,38.473,45.007C38.698,45.493,39.184,45.836,39.717,45.836L45.196,45.836C45.612,45.836,46.003,45.603,46.264,45.279C46.524,44.955,46.623,44.509,46.533,44.103C46.506,43.984,43.914,32.105,46.468,25.723C49.224,18.829,49.304,15.929,49.304,15.622C49.304,15.212,49.12,14.82,48.803,14.56C48.487,14.3,48.07,14.195,47.666,14.275C41.425,15.521,33.839,16.018,32.468,14.649C31.905,14.086,31.664,12.931,31.807,11.481C32.127,8.251,34.13,4.551,36.368,3.06C38.274,1.789,44.158,3.822,53.852,9.093C54.583,9.49,55.163,9.805,55.526,9.986C57.4,11.17,61.458,25.463,63.014,36.354C64.173,44.468,63.317,56.797,63.069,59.941C58.377,62.268,29.288,75.604,6.209,61.025C5.568,60.623,4.724,60.813,4.319,61.451C3.915,62.091,4.106,62.937,4.745,63.341C13.148,68.647,22.271,70.46,30.82,70.459C49.129,70.459,64.794,62.141,65.023,62.018C65.425,61.799,65.693,61.394,65.734,60.937C65.791,60.316,67.103,45.602,65.726,35.967ZM65.726,35.967"/>
</g>
  <g id="Heavy-M" transform="matrix(1.0,0.0,0.0,1.0,2602.74001953125,1055.5400390625)">  <path fill-opacity="1" xml:space="preserve" fill-rule="nonzero" y="0px" stroke-miterlimit="4" stroke-opacity="1" stroke-linejoin="miter" version="1.1" xmlns:xlink="http://www.w3.org/1999/xlink" fill="#000000" stroke-linecap="butt" stroke="none" stroke-width="1px" x="0px" stroke-dasharray="none" d="M65.726,35.967C64.782,29.358,60.743,9.533,56.765,7.543C56.407,7.364,55.856,7.064,55.16,6.686C46.815,2.15,38.575,-1.707,34.849,0.781C31.96,2.708,29.48,7.192,29.081,11.212C28.85,13.548,29.352,15.405,30.531,16.585C33.117,19.172,41.752,18.099,46.303,17.313C45.998,18.753,45.341,21.197,43.924,24.739C41.649,30.427,42.875,39.331,43.533,43.097L40.577,43.097C38.279,38.303,35.111,35.837,31.15,35.049C23.334,33.488,15.106,40.015,13.176,41.727L8.216,41.727C7.459,41.727,6.847,42.341,6.847,43.097C6.847,43.853,7.459,44.466,8.216,44.466L13.695,44.466C14.038,44.466,14.37,44.293,14.623,44.06C14.707,43.981,23.242,36.198,30.622,37.671C33.898,38.324,36.539,40.815,38.473,45.007C38.698,45.493,39.184,45.836,39.717,45.836L45.196,45.836C45.612,45.836,46.003,45.603,46.264,45.279C46.524,44.955,46.623,44.509,46.533,44.103C46.506,43.984,43.914,32.105,46.468,25.723C49.224,18.829,49.304,15.929,49.304,15.622C49.304,15.212,49.12,14.82,48.803,14.56C48.487,14.3,48.07,14.195,47.666,14.275C41.425,15.521,33.839,16.018,32.468,14.649C31.905,14.086,31.664,12.931,31.807,11.481C32.127,8.251,34.13,4.551,36.368,3.06C38.274,1.789,44.158,3.822,53.852,9.093C54.583,9.49,55.163,9.805,55.526,9.986C57.4,11.17,61.458,25.463,63.014,36.354C64.173,44.468,63.317,56.797,63.069,59.941C58.377,62.268,29.288,75.604,6.209,61.025C5.568,60.623,4.724,60.813,4.319,61.451C3.915,62.091,4.106,62.937,4.745,63.341C13.148,68.647,22.271,70.46,30.82,70.459C49.129,70.459,64.794,62.141,65.023,62.018C65.425,61.799,65.693,61.394,65.734,60.937C65.791,60.316,67.103,45.602,65.726,35.967ZM65.726,35.967"/>
</g>
  <g id="Bold-M" transform="matrix(1.0,0.0,0.0,1.0,2306.0300195312498,1055.5400390625)">  <path fill-opacity="1" fill="#000000" stroke-linejoin="miter" stroke-width="1px" stroke-dasharray="none" xml:space="preserve" y="0px" stroke-opacity="1" xmlns:xlink="http://www.w3.org/1999/xlink" stroke-miterlimit="4" x="0px" version="1.1" stroke-linecap="butt" fill-rule="nonzero" stroke="none" d="M65.726,35.967C64.782,29.358,60.743,9.533,56.765,7.543C56.407,7.364,55.856,7.064,55.16,6.686C46.815,2.15,38.575,-1.707,34.849,0.781C31.96,2.708,29.48,7.192,29.081,11.212C28.85,13.548,29.352,15.405,30.531,16.585C33.117,19.172,41.752,18.099,46.303,17.313C45.998,18.753,45.341,21.197,43.924,24.739C41.649,30.427,42.875,39.331,43.533,43.097L40.577,43.097C38.279,38.303,35.111,35.837,31.15,35.049C23.334,33.488,15.106,40.015,13.176,41.727L8.216,41.727C7.459,41.727,6.847,42.341,6.847,43.097C6.847,43.853,7.459,44.466,8.216,44.466L13.695,44.466C14.038,44.466,14.37,44.293,14.623,44.06C14.707,43.981,23.242,36.198,30.622,37.671C33.898,38.324,36.539,40.815,38.473,45.007C38.698,45.493,39.184,45.836,39.717,45.836L45.196,45.836C45.612,45.836,46.003,45.603,46.264,45.279C46.524,44.955,46.623,44.509,46.533,44.103C46.506,43.984,43.914,32.105,46.468,25.723C49.224,18.829,49.304,15.929,49.304,15.622C49.304,15.212,49.12,14.82,48.803,14.56C48.487,14.3,48.07,14.195,47.666,14.275C41.425,15.521,33.839,16.018,32.468,14.649C31.905,14.086,31.664,12.931,31.807,11.481C32.127,8.251,34.13,4.551,36.368,3.06C38.274,1.789,44.158,3.822,53.852,9.093C54.583,9.49,55.163,9.805,55.526,9.986C57.4,11.17,61.458,25.463,63.014,36.354C64.173,44.468,63.317,56.797,63.069,59.941C58.377,62.268,29.288,75.604,6.209,61.025C5.568,60.623,4.724,60.813,4.319,61.451C3.915,62.091,4.106,62.937,4.745,63.341C13.148,68.647,22.271,70.46,30.82,70.459C49.129,70.459,64.794,62.141,65.023,62.018C65.425,61.799,65.693,61.394,65.734,60.937C65.791,60.316,67.103,45.602,65.726,35.967ZM65.726,35.967"/>
</g>
  <g id="Semibold-M" transform="matrix(1.0,0.0,0.0,1.0,2009.32001953125,1055.5400390625)">  <path stroke-opacity="1" stroke="none" fill-opacity="1" stroke-linecap="butt" fill="#000000" stroke-linejoin="miter" x="0px" fill-rule="nonzero" xml:space="preserve" stroke-dasharray="none" stroke-width="1px" xmlns:xlink="http://www.w3.org/1999/xlink" stroke-miterlimit="4" y="0px" version="1.1" d="M65.726,35.967C64.782,29.358,60.743,9.533,56.765,7.543C56.407,7.364,55.856,7.064,55.16,6.686C46.815,2.15,38.575,-1.707,34.849,0.781C31.96,2.708,29.48,7.192,29.081,11.212C28.85,13.548,29.352,15.405,30.531,16.585C33.117,19.172,41.752,18.099,46.303,17.313C45.998,18.753,45.341,21.197,43.924,24.739C41.649,30.427,42.875,39.331,43.533,43.097L40.577,43.097C38.279,38.303,35.111,35.837,31.15,35.049C23.334,33.488,15.106,40.015,13.176,41.727L8.216,41.727C7.459,41.727,6.847,42.341,6.847,43.097C6.847,43.853,7.459,44.466,8.216,44.466L13.695,44.466C14.038,44.466,14.37,44.293,14.623,44.06C14.707,43.981,23.242,36.198,30.622,37.671C33.898,38.324,36.539,40.815,38.473,45.007C38.698,45.493,39.184,45.836,39.717,45.836L45.196,45.836C45.612,45.836,46.003,45.603,46.264,45.279C46.524,44.955,46.623,44.509,46.533,44.103C46.506,43.984,43.914,32.105,46.468,25.723C49.224,18.829,49.304,15.929,49.304,15.622C49.304,15.212,49.12,14.82,48.803,14.56C48.487,14.3,48.07,14.195,47.666,14.275C41.425,15.521,33.839,16.018,32.468,14.649C31.905,14.086,31.664,12.931,31.807,11.481C32.127,8.251,34.13,4.551,36.368,3.06C38.274,1.789,44.158,3.822,53.852,9.093C54.583,9.49,55.163,9.805,55.526,9.986C57.4,11.17,61.458,25.463,63.014,36.354C64.173,44.468,63.317,56.797,63.069,59.941C58.377,62.268,29.288,75.604,6.209,61.025C5.568,60.623,4.724,60.813,4.319,61.451C3.915,62.091,4.106,62.937,4.745,63.341C13.148,68.647,22.271,70.46,30.82,70.459C49.129,70.459,64.794,62.141,65.023,62.018C65.425,61.799,65.693,61.394,65.734,60.937C65.791,60.316,67.103,45.602,65.726,35.967ZM65.726,35.967"/>
</g>
  <g id="Medium-M" transform="matrix(1.0,0.0,0.0,1.0,1712.61001953125,1055.5400390625)">  <path xml:space="preserve" fill="#000000" xmlns:xlink="http://www.w3.org/1999/xlink" stroke="none" stroke-opacity="1" version="1.1" fill-rule="nonzero" x="0px" stroke-width="1px" stroke-linejoin="miter" stroke-miterlimit="4" stroke-linecap="butt" fill-opacity="1" stroke-dasharray="none" y="0px" d="M65.726,35.967C64.782,29.358,60.743,9.533,56.765,7.543C56.407,7.364,55.856,7.064,55.16,6.686C46.815,2.15,38.575,-1.707,34.849,0.781C31.96,2.708,29.48,7.192,29.081,11.212C28.85,13.548,29.352,15.405,30.531,16.585C33.117,19.172,41.752,18.099,46.303,17.313C45.998,18.753,45.341,21.197,43.924,24.739C41.649,30.427,42.875,39.331,43.533,43.097L40.577,43.097C38.279,38.303,35.111,35.837,31.15,35.049C23.334,33.488,15.106,40.015,13.176,41.727L8.216,41.727C7.459,41.727,6.847,42.341,6.847,43.097C6.847,43.853,7.459,44.466,8.216,44.466L13.695,44.466C14.038,44.466,14.37,44.293,14.623,44.06C14.707,43.981,23.242,36.198,30.622,37.671C33.898,38.324,36.539,40.815,38.473,45.007C38.698,45.493,39.184,45.836,39.717,45.836L45.196,45.836C45.612,45.836,46.003,45.603,46.264,45.279C46.524,44.955,46.623,44.509,46.533,44.103C46.506,43.984,43.914,32.105,46.468,25.723C49.224,18.829,49.304,15.929,49.304,15.622C49.304,15.212,49.12,14.82,48.803,14.56C48.487,14.3,48.07,14.195,47.666,14.275C41.425,15.521,33.839,16.018,32.468,14.649C31.905,14.086,31.664,12.931,31.807,11.481C32.127,8.251,34.13,4.551,36.368,3.06C38.274,1.789,44.158,3.822,53.852,9.093C54.583,9.49,55.163,9.805,55.526,9.986C57.4,11.17,61.458,25.463,63.014,36.354C64.173,44.468,63.317,56.797,63.069,59.941C58.377,62.268,29.288,75.604,6.209,61.025C5.568,60.623,4.724,60.813,4.319,61.451C3.915,62.091,4.106,62.937,4.745,63.341C13.148,68.647,22.271,70.46,30.82,70.459C49.129,70.459,64.794,62.141,65.023,62.018C65.425,61.799,65.693,61.394,65.734,60.937C65.791,60.316,67.103,45.602,65.726,35.967ZM65.726,35.967"/>
</g>
  <g id="Regular-M" transform="matrix(1.0,0.0,0.0,1.0,1415.9000195312499,1055.5400390625)">  <path stroke-linejoin="miter" fill-rule="nonzero" x="0px" stroke-opacity="1" version="1.1" stroke="none" xmlns:xlink="http://www.w3.org/1999/xlink" stroke-miterlimit="4" stroke-linecap="butt" stroke-width="1px" fill-opacity="1" fill="#000000" y="0px" xml:space="preserve" stroke-dasharray="none" d="M65.726,35.967C64.782,29.358,60.743,9.533,56.765,7.543C56.407,7.364,55.856,7.064,55.16,6.686C46.815,2.15,38.575,-1.707,34.849,0.781C31.96,2.708,29.48,7.192,29.081,11.212C28.85,13.548,29.352,15.405,30.531,16.585C33.117,19.172,41.752,18.099,46.303,17.313C45.998,18.753,45.341,21.197,43.924,24.739C41.649,30.427,42.875,39.331,43.533,43.097L40.577,43.097C38.279,38.303,35.111,35.837,31.15,35.049C23.334,33.488,15.106,40.015,13.176,41.727L8.216,41.727C7.459,41.727,6.847,42.341,6.847,43.097C6.847,43.853,7.459,44.466,8.216,44.466L13.695,44.466C14.038,44.466,14.37,44.293,14.623,44.06C14.707,43.981,23.242,36.198,30.622,37.671C33.898,38.324,36.539,40.815,38.473,45.007C38.698,45.493,39.184,45.836,39.717,45.836L45.196,45.836C45.612,45.836,46.003,45.603,46.264,45.279C46.524,44.955,46.623,44.509,46.533,44.103C46.506,43.984,43.914,32.105,46.468,25.723C49.224,18.829,49.304,15.929,49.304,15.622C49.304,15.212,49.12,14.82,48.803,14.56C48.487,14.3,48.07,14.195,47.666,14.275C41.425,15.521,33.839,16.018,32.468,14.649C31.905,14.086,31.664,12.931,31.807,11.481C32.127,8.251,34.13,4.551,36.368,3.06C38.274,1.789,44.158,3.822,53.852,9.093C54.583,9.49,55.163,9.805,55.526,9.986C57.4,11.17,61.458,25.463,63.014,36.354C64.173,44.468,63.317,56.797,63.069,59.941C58.377,62.268,29.288,75.604,6.209,61.025C5.568,60.623,4.724,60.813,4.319,61.451C3.915,62.091,4.106,62.937,4.745,63.341C13.148,68.647,22.271,70.46,30.82,70.459C49.129,70.459,64.794,62.141,65.023,62.018C65.425,61.799,65.693,61.394,65.734,60.937C65.791,60.316,67.103,45.602,65.726,35.967ZM65.726,35.967"/>
</g>
  <g id="Light-M" transform="matrix(1.0,0.0,0.0,1.0,1119.19001953125,1055.5400390625)">  <path stroke="none" fill-opacity="1" x="0px" stroke-linecap="butt" version="1.1" stroke-dasharray="none" stroke-linejoin="miter" xml:space="preserve" fill-rule="nonzero" xmlns:xlink="http://www.w3.org/1999/xlink" y="0px" stroke-miterlimit="4" fill="#000000" stroke-width="1px" stroke-opacity="1" d="M65.726,35.967C64.782,29.358,60.743,9.533,56.765,7.543C56.407,7.364,55.856,7.064,55.16,6.686C46.815,2.15,38.575,-1.707,34.849,0.781C31.96,2.708,29.48,7.192,29.081,11.212C28.85,13.548,29.352,15.405,30.531,16.585C33.117,19.172,41.752,18.099,46.303,17.313C45.998,18.753,45.341,21.197,43.924,24.739C41.649,30.427,42.875,39.331,43.533,43.097L40.577,43.097C38.279,38.303,35.111,35.837,31.15,35.049C23.334,33.488,15.106,40.015,13.176,41.727L8.216,41.727C7.459,41.727,6.847,42.341,6.847,43.097C6.847,43.853,7.459,44.466,8.216,44.466L13.695,44.466C14.038,44.466,14.37,44.293,14.623,44.06C14.707,43.981,23.242,36.198,30.622,37.671C33.898,38.324,36.539,40.815,38.473,45.007C38.698,45.493,39.184,45.836,39.717,45.836L45.196,45.836C45.612,45.836,46.003,45.603,46.264,45.279C46.524,44.955,46.623,44.509,46.533,44.103C46.506,43.984,43.914,32.105,46.468,25.723C49.224,18.829,49.304,15.929,49.304,15.622C49.304,15.212,49.12,14.82,48.803,14.56C48.487,14.3,48.07,14.195,47.666,14.275C41.425,15.521,33.839,16.018,32.468,14.649C31.905,14.086,31.664,12.931,31.807,11.481C32.127,8.251,34.13,4.551,36.368,3.06C38.274,1.789,44.158,3.822,53.852,9.093C54.583,9.49,55.163,9.805,55.526,9.986C57.4,11.17,61.458,25.463,63.014,36.354C64.173,44.468,63.317,56.797,63.069,59.941C58.377,62.268,29.288,75.604,6.209,61.025C5.568,60.623,4.724,60.813,4.319,61.451C3.915,62.091,4.106,62.937,4.745,63.341C13.148,68.647,22.271,70.46,30.82,70.459C49.129,70.459,64.794,62.141,65.023,62.018C65.425,61.799,65.693,61.394,65.734,60.937C65.791,60.316,67.103,45.602,65.726,35.967ZM65.726,35.967"/>
</g>
  <g id="Thin-M" transform="matrix(1.0,0.0,0.0,1.0,822.48001953125,1055.5400390625)">  <path y="0px" xml:space="preserve" x="0px" fill="#000000" version="1.1" stroke="none" stroke-linejoin="miter" stroke-opacity="1" stroke-miterlimit="4" stroke-dasharray="none" xmlns:xlink="http://www.w3.org/1999/xlink" fill-opacity="1" stroke-linecap="butt" stroke-width="1px" fill-rule="nonzero" d="M65.726,35.967C64.782,29.358,60.743,9.533,56.765,7.543C56.407,7.364,55.856,7.064,55.16,6.686C46.815,2.15,38.575,-1.707,34.849,0.781C31.96,2.708,29.48,7.192,29.081,11.212C28.85,13.548,29.352,15.405,30.531,16.585C33.117,19.172,41.752,18.099,46.303,17.313C45.998,18.753,45.341,21.197,43.924,24.739C41.649,30.427,42.875,39.331,43.533,43.097L40.577,43.097C38.279,38.303,35.111,35.837,31.15,35.049C23.334,33.488,15.106,40.015,13.176,41.727L8.216,41.727C7.459,41.727,6.847,42.341,6.847,43.097C6.847,43.853,7.459,44.466,8.216,44.466L13.695,44.466C14.038,44.466,14.37,44.293,14.623,44.06C14.707,43.981,23.242,36.198,30.622,37.671C33.898,38.324,36.539,40.815,38.473,45.007C38.698,45.493,39.184,45.836,39.717,45.836L45.196,45.836C45.612,45.836,46.003,45.603,46.264,45.279C46.524,44.955,46.623,44.509,46.533,44.103C46.506,43.984,43.914,32.105,46.468,25.723C49.224,18.829,49.304,15.929,49.304,15.622C49.304,15.212,49.12,14.82,48.803,14.56C48.487,14.3,48.07,14.195,47.666,14.275C41.425,15.521,33.839,16.018,32.468,14.649C31.905,14.086,31.664,12.931,31.807,11.481C32.127,8.251,34.13,4.551,36.368,3.06C38.274,1.789,44.158,3.822,53.852,9.093C54.583,9.49,55.163,9.805,55.526,9.986C57.4,11.17,61.458,25.463,63.014,36.354C64.173,44.468,63.317,56.797,63.069,59.941C58.377,62.268,29.288,75.604,6.209,61.025C5.568,60.623,4.724,60.813,4.319,61.451C3.915,62.091,4.106,62.937,4.745,63.341C13.148,68.647,22.271,70.46,30.82,70.459C49.129,70.459,64.794,62.141,65.023,62.018C65.425,61.799,65.693,61.394,65.734,60.937C65.791,60.316,67.103,45.602,65.726,35.967ZM65.726,35.967"/>
</g>
  <g id="Ultralight-M" transform="matrix(1.0,0.0,0.0,1.0,525.77001953125,1055.5400390625)">  <path xml:space="preserve" stroke-linecap="butt" stroke-dasharray="none" xmlns:xlink="http://www.w3.org/1999/xlink" version="1.1" fill-rule="nonzero" stroke-miterlimit="4" stroke="none" stroke-linejoin="miter" stroke-width="1px" x="0px" fill-opacity="1" stroke-opacity="1" fill="#000000" y="0px" d="M65.726,35.967C64.782,29.358,60.743,9.533,56.765,7.543C56.407,7.364,55.856,7.064,55.16,6.686C46.815,2.15,38.575,-1.707,34.849,0.781C31.96,2.708,29.48,7.192,29.081,11.212C28.85,13.548,29.352,15.405,30.531,16.585C33.117,19.172,41.752,18.099,46.303,17.313C45.998,18.753,45.341,21.197,43.924,24.739C41.649,30.427,42.875,39.331,43.533,43.097L40.577,43.097C38.279,38.303,35.111,35.837,31.15,35.049C23.334,33.488,15.106,40.015,13.176,41.727L8.216,41.727C7.459,41.727,6.847,42.341,6.847,43.097C6.847,43.853,7.459,44.466,8.216,44.466L13.695,44.466C14.038,44.466,14.37,44.293,14.623,44.06C14.707,43.981,23.242,36.198,30.622,37.671C33.898,38.324,36.539,40.815,38.473,45.007C38.698,45.493,39.184,45.836,39.717,45.836L45.196,45.836C45.612,45.836,46.003,45.603,46.264,45.279C46.524,44.955,46.623,44.509,46.533,44.103C46.506,43.984,43.914,32.105,46.468,25.723C49.224,18.829,49.304,15.929,49.304,15.622C49.304,15.212,49.12,14.82,48.803,14.56C48.487,14.3,48.07,14.195,47.666,14.275C41.425,15.521,33.839,16.018,32.468,14.649C31.905,14.086,31.664,12.931,31.807,11.481C32.127,8.251,34.13,4.551,36.368,3.06C38.274,1.789,44.158,3.822,53.852,9.093C54.583,9.49,55.163,9.805,55.526,9.986C57.4,11.17,61.458,25.463,63.014,36.354C64.173,44.468,63.317,56.797,63.069,59.941C58.377,62.268,29.288,75.604,6.209,61.025C5.568,60.623,4.724,60.813,4.319,61.451C3.915,62.091,4.106,62.937,4.745,63.341C13.148,68.647,22.271,70.46,30.82,70.459C49.129,70.459,64.794,62.141,65.023,62.018C65.425,61.799,65.693,61.394,65.734,60.937C65.791,60.316,67.103,45.602,65.726,35.967ZM65.726,35.967"/>
</g>
  <g id="Black-S" transform="matrix(1.0,0.0,0.0,1.0,2907.0949252929686,633.1849448242187)">  <path stroke-width="1px" stroke-linecap="butt" fill-opacity="1" stroke-linejoin="miter" xml:space="preserve" stroke="none" version="1.1" y="0px" xmlns:xlink="http://www.w3.org/1999/xlink" fill="#000000" stroke-dasharray="none" stroke-miterlimit="4" x="0px" stroke-opacity="1" fill-rule="nonzero" d="M51.464,28.162C50.724,22.988,47.562,7.464,44.447,5.907C44.166,5.766,43.735,5.531,43.19,5.235C36.656,1.684,30.204,-1.336,27.286,0.612C25.024,2.12,23.083,5.631,22.771,8.779C22.59,10.608,22.982,12.062,23.906,12.986C25.93,15.012,32.691,14.172,36.255,13.556C36.017,14.684,35.502,16.597,34.392,19.371C32.611,23.824,33.571,30.796,34.086,33.745L31.772,33.745C29.973,29.992,27.492,28.06,24.391,27.443C18.271,26.221,11.828,31.332,10.317,32.672L6.433,32.672C5.841,32.672,5.361,33.153,5.361,33.745C5.361,34.337,5.841,34.817,6.433,34.817L10.723,34.817C10.992,34.817,11.252,34.681,11.45,34.499C11.516,34.437,18.198,28.343,23.977,29.496C26.542,30.008,28.61,31.958,30.125,35.24C30.301,35.621,30.681,35.889,31.099,35.889L35.388,35.889C35.714,35.889,36.021,35.707,36.225,35.453C36.428,35.2,36.506,34.85,36.435,34.533C36.415,34.44,34.385,25.138,36.384,20.141C38.543,14.743,38.605,12.473,38.605,12.232C38.605,11.911,38.461,11.604,38.213,11.4C37.965,11.197,37.639,11.114,37.322,11.177C32.436,12.153,26.496,12.542,25.422,11.47C24.981,11.029,24.793,10.125,24.905,8.99C25.155,6.461,26.724,3.564,28.476,2.396C29.969,1.401,34.576,2.993,42.166,7.12C42.739,7.431,43.192,7.677,43.477,7.819C44.944,8.746,48.122,19.938,49.34,28.465C50.248,34.819,49.577,44.472,49.383,46.933C45.709,48.756,22.933,59.198,4.861,47.782C4.36,47.468,3.699,47.616,3.382,48.116C3.065,48.617,3.215,49.28,3.716,49.596C10.295,53.751,17.438,55.17,24.132,55.17C38.468,55.169,50.734,48.657,50.913,48.56C51.228,48.389,51.438,48.071,51.47,47.714C51.514,47.228,52.541,35.707,51.464,28.162ZM51.464,28.162"/>
</g>
  <g id="Heavy-S" transform="matrix(1.0,0.0,0.0,1.0,2610.3849252929685,633.1849448242187)">  <path fill-opacity="1" xml:space="preserve" fill-rule="nonzero" y="0px" stroke-miterlimit="4" stroke-opacity="1" stroke-linejoin="miter" version="1.1" xmlns:xlink="http://www.w3.org/1999/xlink" fill="#000000" stroke-linecap="butt" stroke="none" stroke-width="1px" x="0px" stroke-dasharray="none" d="M51.464,28.162C50.724,22.988,47.562,7.464,44.447,5.907C44.166,5.766,43.735,5.531,43.19,5.235C36.656,1.684,30.204,-1.336,27.286,0.612C25.024,2.12,23.083,5.631,22.771,8.779C22.59,10.608,22.982,12.062,23.906,12.986C25.93,15.012,32.691,14.172,36.255,13.556C36.017,14.684,35.502,16.597,34.392,19.371C32.611,23.824,33.571,30.796,34.086,33.745L31.772,33.745C29.973,29.992,27.492,28.06,24.391,27.443C18.271,26.221,11.828,31.332,10.317,32.672L6.433,32.672C5.841,32.672,5.361,33.153,5.361,33.745C5.361,34.337,5.841,34.817,6.433,34.817L10.723,34.817C10.992,34.817,11.252,34.681,11.45,34.499C11.516,34.437,18.198,28.343,23.977,29.496C26.542,30.008,28.61,31.958,30.125,35.24C30.301,35.621,30.681,35.889,31.099,35.889L35.388,35.889C35.714,35.889,36.021,35.707,36.225,35.453C36.428,35.2,36.506,34.85,36.435,34.533C36.415,34.44,34.385,25.138,36.384,20.141C38.543,14.743,38.605,12.473,38.605,12.232C38.605,11.911,38.461,11.604,38.213,11.4C37.965,11.197,37.639,11.114,37.322,11.177C32.436,12.153,26.496,12.542,25.422,11.47C24.981,11.029,24.793,10.125,24.905,8.99C25.155,6.461,26.724,3.564,28.476,2.396C29.969,1.401,34.576,2.993,42.166,7.12C42.739,7.431,43.192,7.677,43.477,7.819C44.944,8.746,48.122,19.938,49.34,28.465C50.248,34.819,49.577,44.472,49.383,46.933C45.709,48.756,22.933,59.198,4.861,47.782C4.36,47.468,3.699,47.616,3.382,48.116C3.065,48.617,3.215,49.28,3.716,49.596C10.295,53.751,17.438,55.17,24.132,55.17C38.468,55.169,50.734,48.657,50.913,48.56C51.228,48.389,51.438,48.071,51.47,47.714C51.514,47.228,52.541,35.707,51.464,28.162ZM51.464,28.162"/>
</g>
  <g id="Bold-S" transform="matrix(1.0,0.0,0.0,1.0,2313.6749252929685,633.1849448242187)">  <path fill-opacity="1" fill="#000000" stroke-linejoin="miter" stroke-width="1px" stroke-dasharray="none" xml:space="preserve" y="0px" stroke-opacity="1" xmlns:xlink="http://www.w3.org/1999/xlink" stroke-miterlimit="4" x="0px" version="1.1" stroke-linecap="butt" fill-rule="nonzero" stroke="none" d="M51.464,28.162C50.724,22.988,47.562,7.464,44.447,5.907C44.166,5.766,43.735,5.531,43.19,5.235C36.656,1.684,30.204,-1.336,27.286,0.612C25.024,2.12,23.083,5.631,22.771,8.779C22.59,10.608,22.982,12.062,23.906,12.986C25.93,15.012,32.691,14.172,36.255,13.556C36.017,14.684,35.502,16.597,34.392,19.371C32.611,23.824,33.571,30.796,34.086,33.745L31.772,33.745C29.973,29.992,27.492,28.06,24.391,27.443C18.271,26.221,11.828,31.332,10.317,32.672L6.433,32.672C5.841,32.672,5.361,33.153,5.361,33.745C5.361,34.337,5.841,34.817,6.433,34.817L10.723,34.817C10.992,34.817,11.252,34.681,11.45,34.499C11.516,34.437,18.198,28.343,23.977,29.496C26.542,30.008,28.61,31.958,30.125,35.24C30.301,35.621,30.681,35.889,31.099,35.889L35.388,35.889C35.714,35.889,36.021,35.707,36.225,35.453C36.428,35.2,36.506,34.85,36.435,34.533C36.415,34.44,34.385,25.138,36.384,20.141C38.543,14.743,38.605,12.473,38.605,12.232C38.605,11.911,38.461,11.604,38.213,11.4C37.965,11.197,37.639,11.114,37.322,11.177C32.436,12.153,26.496,12.542,25.422,11.47C24.981,11.029,24.793,10.125,24.905,8.99C25.155,6.461,26.724,3.564,28.476,2.396C29.969,1.401,34.576,2.993,42.166,7.12C42.739,7.431,43.192,7.677,43.477,7.819C44.944,8.746,48.122,19.938,49.34,28.465C50.248,34.819,49.577,44.472,49.383,46.933C45.709,48.756,22.933,59.198,4.861,47.782C4.36,47.468,3.699,47.616,3.382,48.116C3.065,48.617,3.215,49.28,3.716,49.596C10.295,53.751,17.438,55.17,24.132,55.17C38.468,55.169,50.734,48.657,50.913,48.56C51.228,48.389,51.438,48.071,51.47,47.714C51.514,47.228,52.541,35.707,51.464,28.162ZM51.464,28.162"/>
</g>
  <g id="Semibold-S" transform="matrix(1.0,0.0,0.0,1.0,2016.9649252929687,633.1849448242187)">  <path stroke-opacity="1" stroke="none" fill-opacity="1" stroke-linecap="butt" fill="#000000" stroke-linejoin="miter" x="0px" fill-rule="nonzero" xml:space="preserve" stroke-dasharray="none" stroke-width="1px" xmlns:xlink="http://www.w3.org/1999/xlink" stroke-miterlimit="4" y="0px" version="1.1" d="M51.464,28.162C50.724,22.988,47.562,7.464,44.447,5.907C44.166,5.766,43.735,5.531,43.19,5.235C36.656,1.684,30.204,-1.336,27.286,0.612C25.024,2.12,23.083,5.631,22.771,8.779C22.59,10.608,22.982,12.062,23.906,12.986C25.93,15.012,32.691,14.172,36.255,13.556C36.017,14.684,35.502,16.597,34.392,19.371C32.611,23.824,33.571,30.796,34.086,33.745L31.772,33.745C29.973,29.992,27.492,28.06,24.391,27.443C18.271,26.221,11.828,31.332,10.317,32.672L6.433,32.672C5.841,32.672,5.361,33.153,5.361,33.745C5.361,34.337,5.841,34.817,6.433,34.817L10.723,34.817C10.992,34.817,11.252,34.681,11.45,34.499C11.516,34.437,18.198,28.343,23.977,29.496C26.542,30.008,28.61,31.958,30.125,35.24C30.301,35.621,30.681,35.889,31.099,35.889L35.388,35.889C35.714,35.889,36.021,35.707,36.225,35.453C36.428,35.2,36.506,34.85,36.435,34.533C36.415,34.44,34.385,25.138,36.384,20.141C38.543,14.743,38.605,12.473,38.605,12.232C38.605,11.911,38.461,11.604,38.213,11.4C37.965,11.197,37.639,11.114,37.322,11.177C32.436,12.153,26.496,12.542,25.422,11.47C24.981,11.029,24.793,10.125,24.905,8.99C25.155,6.461,26.724,3.564,28.476,2.396C29.969,1.401,34.576,2.993,42.166,7.12C42.739,7.431,43.192,7.677,43.477,7.819C44.944,8.746,48.122,19.938,49.34,28.465C50.248,34.819,49.577,44.472,49.383,46.933C45.709,48.756,22.933,59.198,4.861,47.782C4.36,47.468,3.699,47.616,3.382,48.116C3.065,48.617,3.215,49.28,3.716,49.596C10.295,53.751,17.438,55.17,24.132,55.17C38.468,55.169,50.734,48.657,50.913,48.56C51.228,48.389,51.438,48.071,51.47,47.714C51.514,47.228,52.541,35.707,51.464,28.162ZM51.464,28.162"/>
</g>
  <g id="Medium-S" transform="matrix(1.0,0.0,0.0,1.0,1720.2549252929687,633.1849448242187)">  <path xml:space="preserve" fill="#000000" xmlns:xlink="http://www.w3.org/1999/xlink" stroke="none" stroke-opacity="1" version="1.1" fill-rule="nonzero" x="0px" stroke-width="1px" stroke-linejoin="miter" stroke-miterlimit="4" stroke-linecap="butt" fill-opacity="1" stroke-dasharray="none" y="0px" d="M51.464,28.162C50.724,22.988,47.562,7.464,44.447,5.907C44.166,5.766,43.735,5.531,43.19,5.235C36.656,1.684,30.204,-1.336,27.286,0.612C25.024,2.12,23.083,5.631,22.771,8.779C22.59,10.608,22.982,12.062,23.906,12.986C25.93,15.012,32.691,14.172,36.255,13.556C36.017,14.684,35.502,16.597,34.392,19.371C32.611,23.824,33.571,30.796,34.086,33.745L31.772,33.745C29.973,29.992,27.492,28.06,24.391,27.443C18.271,26.221,11.828,31.332,10.317,32.672L6.433,32.672C5.841,32.672,5.361,33.153,5.361,33.745C5.361,34.337,5.841,34.817,6.433,34.817L10.723,34.817C10.992,34.817,11.252,34.681,11.45,34.499C11.516,34.437,18.198,28.343,23.977,29.496C26.542,30.008,28.61,31.958,30.125,35.24C30.301,35.621,30.681,35.889,31.099,35.889L35.388,35.889C35.714,35.889,36.021,35.707,36.225,35.453C36.428,35.2,36.506,34.85,36.435,34.533C36.415,34.44,34.385,25.138,36.384,20.141C38.543,14.743,38.605,12.473,38.605,12.232C38.605,11.911,38.461,11.604,38.213,11.4C37.965,11.197,37.639,11.114,37.322,11.177C32.436,12.153,26.496,12.542,25.422,11.47C24.981,11.029,24.793,10.125,24.905,8.99C25.155,6.461,26.724,3.564,28.476,2.396C29.969,1.401,34.576,2.993,42.166,7.12C42.739,7.431,43.192,7.677,43.477,7.819C44.944,8.746,48.122,19.938,49.34,28.465C50.248,34.819,49.577,44.472,49.383,46.933C45.709,48.756,22.933,59.198,4.861,47.782C4.36,47.468,3.699,47.616,3.382,48.116C3.065,48.617,3.215,49.28,3.716,49.596C10.295,53.751,17.438,55.17,24.132,55.17C38.468,55.169,50.734,48.657,50.913,48.56C51.228,48.389,51.438,48.071,51.47,47.714C51.514,47.228,52.541,35.707,51.464,28.162ZM51.464,28.162"/>
</g>
  <g id="Regular-S" transform="matrix(1.0,0.0,0.0,1.0,1423.5449252929686,633.1849448242187)">  <path stroke-linejoin="miter" fill-rule="nonzero" x="0px" stroke-opacity="1" version="1.1" stroke="none" xmlns:xlink="http://www.w3.org/1999/xlink" stroke-miterlimit="4" stroke-linecap="butt" stroke-width="1px" fill-opacity="1" fill="#000000" y="0px" xml:space="preserve" stroke-dasharray="none" d="M51.464,28.162C50.724,22.988,47.562,7.464,44.447,5.907C44.166,5.766,43.735,5.531,43.19,5.235C36.656,1.684,30.204,-1.336,27.286,0.612C25.024,2.12,23.083,5.631,22.771,8.779C22.59,10.608,22.982,12.062,23.906,12.986C25.93,15.012,32.691,14.172,36.255,13.556C36.017,14.684,35.502,16.597,34.392,19.371C32.611,23.824,33.571,30.796,34.086,33.745L31.772,33.745C29.973,29.992,27.492,28.06,24.391,27.443C18.271,26.221,11.828,31.332,10.317,32.672L6.433,32.672C5.841,32.672,5.361,33.153,5.361,33.745C5.361,34.337,5.841,34.817,6.433,34.817L10.723,34.817C10.992,34.817,11.252,34.681,11.45,34.499C11.516,34.437,18.198,28.343,23.977,29.496C26.542,30.008,28.61,31.958,30.125,35.24C30.301,35.621,30.681,35.889,31.099,35.889L35.388,35.889C35.714,35.889,36.021,35.707,36.225,35.453C36.428,35.2,36.506,34.85,36.435,34.533C36.415,34.44,34.385,25.138,36.384,20.141C38.543,14.743,38.605,12.473,38.605,12.232C38.605,11.911,38.461,11.604,38.213,11.4C37.965,11.197,37.639,11.114,37.322,11.177C32.436,12.153,26.496,12.542,25.422,11.47C24.981,11.029,24.793,10.125,24.905,8.99C25.155,6.461,26.724,3.564,28.476,2.396C29.969,1.401,34.576,2.993,42.166,7.12C42.739,7.431,43.192,7.677,43.477,7.819C44.944,8.746,48.122,19.938,49.34,28.465C50.248,34.819,49.577,44.472,49.383,46.933C45.709,48.756,22.933,59.198,4.861,47.782C4.36,47.468,3.699,47.616,3.382,48.116C3.065,48.617,3.215,49.28,3.716,49.596C10.295,53.751,17.438,55.17,24.132,55.17C38.468,55.169,50.734,48.657,50.913,48.56C51.228,48.389,51.438,48.071,51.47,47.714C51.514,47.228,52.541,35.707,51.464,28.162ZM51.464,28.162"/>
</g>
  <g id="Light-S" transform="matrix(1.0,0.0,0.0,1.0,1126.8349252929688,633.1849448242187)">  <path stroke="none" fill-opacity="1" x="0px" stroke-linecap="butt" version="1.1" stroke-dasharray="none" stroke-linejoin="miter" xml:space="preserve" fill-rule="nonzero" xmlns:xlink="http://www.w3.org/1999/xlink" y="0px" stroke-miterlimit="4" fill="#000000" stroke-width="1px" stroke-opacity="1" d="M51.464,28.162C50.724,22.988,47.562,7.464,44.447,5.907C44.166,5.766,43.735,5.531,43.19,5.235C36.656,1.684,30.204,-1.336,27.286,0.612C25.024,2.12,23.083,5.631,22.771,8.779C22.59,10.608,22.982,12.062,23.906,12.986C25.93,15.012,32.691,14.172,36.255,13.556C36.017,14.684,35.502,16.597,34.392,19.371C32.611,23.824,33.571,30.796,34.086,33.745L31.772,33.745C29.973,29.992,27.492,28.06,24.391,27.443C18.271,26.221,11.828,31.332,10.317,32.672L6.433,32.672C5.841,32.672,5.361,33.153,5.361,33.745C5.361,34.337,5.841,34.817,6.433,34.817L10.723,34.817C10.992,34.817,11.252,34.681,11.45,34.499C11.516,34.437,18.198,28.343,23.977,29.496C26.542,30.008,28.61,31.958,30.125,35.24C30.301,35.621,30.681,35.889,31.099,35.889L35.388,35.889C35.714,35.889,36.021,35.707,36.225,35.453C36.428,35.2,36.506,34.85,36.435,34.533C36.415,34.44,34.385,25.138,36.384,20.141C38.543,14.743,38.605,12.473,38.605,12.232C38.605,11.911,38.461,11.604,38.213,11.4C37.965,11.197,37.639,11.114,37.322,11.177C32.436,12.153,26.496,12.542,25.422,11.47C24.981,11.029,24.793,10.125,24.905,8.99C25.155,6.461,26.724,3.564,28.476,2.396C29.969,1.401,34.576,2.993,42.166,7.12C42.739,7.431,43.192,7.677,43.477,7.819C44.944,8.746,48.122,19.938,49.34,28.465C50.248,34.819,49.577,44.472,49.383,46.933C45.709,48.756,22.933,59.198,4.861,47.782C4.36,47.468,3.699,47.616,3.382,48.116C3.065,48.617,3.215,49.28,3.716,49.596C10.295,53.751,17.438,55.17,24.132,55.17C38.468,55.169,50.734,48.657,50.913,48.56C51.228,48.389,51.438,48.071,51.47,47.714C51.514,47.228,52.541,35.707,51.464,28.162ZM51.464,28.162"/>
</g>
  <g id="Thin-S" transform="matrix(1.0,0.0,0.0,1.0,830.1249252929688,633.1849448242187)">  <path y="0px" xml:space="preserve" x="0px" fill="#000000" version="1.1" stroke="none" stroke-linejoin="miter" stroke-opacity="1" stroke-miterlimit="4" stroke-dasharray="none" xmlns:xlink="http://www.w3.org/1999/xlink" fill-opacity="1" stroke-linecap="butt" stroke-width="1px" fill-rule="nonzero" d="M51.464,28.162C50.724,22.988,47.562,7.464,44.447,5.907C44.166,5.766,43.735,5.531,43.19,5.235C36.656,1.684,30.204,-1.336,27.286,0.612C25.024,2.12,23.083,5.631,22.771,8.779C22.59,10.608,22.982,12.062,23.906,12.986C25.93,15.012,32.691,14.172,36.255,13.556C36.017,14.684,35.502,16.597,34.392,19.371C32.611,23.824,33.571,30.796,34.086,33.745L31.772,33.745C29.973,29.992,27.492,28.06,24.391,27.443C18.271,26.221,11.828,31.332,10.317,32.672L6.433,32.672C5.841,32.672,5.361,33.153,5.361,33.745C5.361,34.337,5.841,34.817,6.433,34.817L10.723,34.817C10.992,34.817,11.252,34.681,11.45,34.499C11.516,34.437,18.198,28.343,23.977,29.496C26.542,30.008,28.61,31.958,30.125,35.24C30.301,35.621,30.681,35.889,31.099,35.889L35.388,35.889C35.714,35.889,36.021,35.707,36.225,35.453C36.428,35.2,36.506,34.85,36.435,34.533C36.415,34.44,34.385,25.138,36.384,20.141C38.543,14.743,38.605,12.473,38.605,12.232C38.605,11.911,38.461,11.604,38.213,11.4C37.965,11.197,37.639,11.114,37.322,11.177C32.436,12.153,26.496,12.542,25.422,11.47C24.981,11.029,24.793,10.125,24.905,8.99C25.155,6.461,26.724,3.564,28.476,2.396C29.969,1.401,34.576,2.993,42.166,7.12C42.739,7.431,43.192,7.677,43.477,7.819C44.944,8.746,48.122,19.938,49.34,28.465C50.248,34.819,49.577,44.472,49.383,46.933C45.709,48.756,22.933,59.198,4.861,47.782C4.36,47.468,3.699,47.616,3.382,48.116C3.065,48.617,3.215,49.28,3.716,49.596C10.295,53.751,17.438,55.17,24.132,55.17C38.468,55.169,50.734,48.657,50.913,48.56C51.228,48.389,51.438,48.071,51.47,47.714C51.514,47.228,52.541,35.707,51.464,28.162ZM51.464,28.162"/>
</g>
  <g id="Ultralight-S" transform="matrix(1.0,0.0,0.0,1.0,533.4149252929687,633.1849448242187)">  <path xml:space="preserve" stroke-linecap="butt" stroke-dasharray="none" xmlns:xlink="http://www.w3.org/1999/xlink" version="1.1" fill-rule="nonzero" stroke-miterlimit="4" stroke="none" stroke-linejoin="miter" stroke-width="1px" x="0px" fill-opacity="1" stroke-opacity="1" fill="#000000" y="0px" d="M51.464,28.162C50.724,22.988,47.562,7.464,44.447,5.907C44.166,5.766,43.735,5.531,43.19,5.235C36.656,1.684,30.204,-1.336,27.286,0.612C25.024,2.12,23.083,5.631,22.771,8.779C22.59,10.608,22.982,12.062,23.906,12.986C25.93,15.012,32.691,14.172,36.255,13.556C36.017,14.684,35.502,16.597,34.392,19.371C32.611,23.824,33.571,30.796,34.086,33.745L31.772,33.745C29.973,29.992,27.492,28.06,24.391,27.443C18.271,26.221,11.828,31.332,10.317,32.672L6.433,32.672C5.841,32.672,5.361,33.153,5.361,33.745C5.361,34.337,5.841,34.817,6.433,34.817L10.723,34.817C10.992,34.817,11.252,34.681,11.45,34.499C11.516,34.437,18.198,28.343,23.977,29.496C26.542,30.008,28.61,31.958,30.125,35.24C30.301,35.621,30.681,35.889,31.099,35.889L35.388,35.889C35.714,35.889,36.021,35.707,36.225,35.453C36.428,35.2,36.506,34.85,36.435,34.533C36.415,34.44,34.385,25.138,36.384,20.141C38.543,14.743,38.605,12.473,38.605,12.232C38.605,11.911,38.461,11.604,38.213,11.4C37.965,11.197,37.639,11.114,37.322,11.177C32.436,12.153,26.496,12.542,25.422,11.47C24.981,11.029,24.793,10.125,24.905,8.99C25.155,6.461,26.724,3.564,28.476,2.396C29.969,1.401,34.576,2.993,42.166,7.12C42.739,7.431,43.192,7.677,43.477,7.819C44.944,8.746,48.122,19.938,49.34,28.465C50.248,34.819,49.577,44.472,49.383,46.933C45.709,48.756,22.933,59.198,4.861,47.782C4.36,47.468,3.699,47.616,3.382,48.116C3.065,48.617,3.215,49.28,3.716,49.596C10.295,53.751,17.438,55.17,24.132,55.17C38.468,55.169,50.734,48.657,50.913,48.56C51.228,48.389,51.438,48.071,51.47,47.714C51.514,47.228,52.541,35.707,51.464,28.162ZM51.464,28.162"/>
</g>
 </g>
</svg>
