<?xml version="1.0" encoding="UTF-8"?>
<!--Generator: CustomSymbols by @serious_bret-->
<!DOCTYPE svg
PUBLIC "-//W3C//DTD SVG 1.1//EN"
       "http://www.w3.org/Graphics/SVG/1.1/DTD/svg11.dtd">
<svg version="1.1" xmlns="http://www.w3.org/2000/svg" xmlns:xlink="http://www.w3.org/1999/xlink" width="3300" height="2200">
 <g id="Notes">
  <rect height="2200" id="artboard" style="fill:white;opacity:1" width="3300" x="0" y="0"/>
  <line id="" style="fill:none;stroke:black;opacity:1;stroke-width:0.5;" x1="263" x2="3036" y1="292" y2="292"/>
  <text id="reftext1" style="stroke:none;fill:black;font-family:-apple-system,&quot;SF Pro Display&quot;,&quot;SF Pro Text&quot;,Helvetica,sans-serif;font-weight:bold;" transform="matrix(1 0 0 1 263 322)">Weight/Scale Variations</text>
  <text id="reftext2" style="stroke:none;fill:black;font-family:-apple-system,&quot;SF Pro Display&quot;,&quot;SF Pro Text&quot;,Helvetica,sans-serif;text-anchor:middle;" transform="matrix(1 0 0 1 559.711 322)">Ultralight</text>
  <text style="stroke:none;fill:black;font-family:-apple-system,&quot;SF Pro Display&quot;,&quot;SF Pro Text&quot;,Helvetica,sans-serif;text-anchor:middle;" transform="matrix(1 0 0 1 856.422 322)">Thin</text>
  <text style="stroke:none;fill:black;font-family:-apple-system,&quot;SF Pro Display&quot;,&quot;SF Pro Text&quot;,Helvetica,sans-serif;text-anchor:middle;" transform="matrix(1 0 0 1 1153.13 322)">Light</text>
  <text style="stroke:none;fill:black;font-family:-apple-system,&quot;SF Pro Display&quot;,&quot;SF Pro Text&quot;,Helvetica,sans-serif;text-anchor:middle;" transform="matrix(1 0 0 1 1449.84 322)">Regular</text>
  <text style="stroke:none;fill:black;font-family:-apple-system,&quot;SF Pro Display&quot;,&quot;SF Pro Text&quot;,Helvetica,sans-serif;text-anchor:middle;" transform="matrix(1 0 0 1 1746.56 322)">Medium</text>
  <text style="stroke:none;fill:black;font-family:-apple-system,&quot;SF Pro Display&quot;,&quot;SF Pro Text&quot;,Helvetica,sans-serif;text-anchor:middle;" transform="matrix(1 0 0 1 2043.27 322)">Semibold</text>
  <text style="stroke:none;fill:black;font-family:-apple-system,&quot;SF Pro Display&quot;,&quot;SF Pro Text&quot;,Helvetica,sans-serif;text-anchor:middle;" transform="matrix(1 0 0 1 2339.98 322)">Bold</text>
  <text style="stroke:none;fill:black;font-family:-apple-system,&quot;SF Pro Display&quot;,&quot;SF Pro Text&quot;,Helvetica,sans-serif;text-anchor:middle;" transform="matrix(1 0 0 1 2636.69 322)">Heavy</text>
  <text style="stroke:none;fill:black;font-family:-apple-system,&quot;SF Pro Display&quot;,&quot;SF Pro Text&quot;,Helvetica,sans-serif;text-anchor:middle;" transform="matrix(1 0 0 1 2933.4 322)">Black</text>
  <line id="" style="fill:none;stroke:black;opacity:1;stroke-width:0.5;" x1="263" x2="3036" y1="1903" y2="1903"/>
  <g id="" transform="matrix(1 0 0 1 263 1933)">
   <path d="M9.24805 0.830078C13.5547 0.830078 17.1387-2.74414 17.1387-7.05078C17.1387-11.3574 13.5449-14.9316 9.23828-14.9316C4.94141-14.9316 1.36719-11.3574 1.36719-7.05078C1.36719-2.74414 4.95117 0.830078 9.24805 0.830078ZM9.24805-0.654297C5.70312-0.654297 2.87109-3.49609 2.87109-7.05078C2.87109-10.6055 5.69336-13.4473 9.23828-13.4473C12.793-13.4473 15.6348-10.6055 15.6445-7.05078C15.6543-3.49609 12.8027-0.654297 9.24805-0.654297ZM6.39648-6.31836L8.50586-6.31836L8.50586-4.19922C8.50586-3.75977 8.79883-3.45703 9.22852-3.45703C9.67773-3.45703 9.9707-3.75977 9.9707-4.19922L9.9707-6.31836L12.0996-6.31836C12.5391-6.31836 12.8418-6.61133 12.8418-7.04102C12.8418-7.48047 12.5391-7.7832 12.0996-7.7832L9.9707-7.7832L9.9707-9.89258C9.9707-10.3418 9.67773-10.6445 9.22852-10.6445C8.79883-10.6445 8.50586-10.3418 8.50586-9.89258L8.50586-7.7832L6.39648-7.7832C5.94727-7.7832 5.64453-7.48047 5.64453-7.04102C5.64453-6.61133 5.94727-6.31836 6.39648-6.31836Z"/>
  </g>
  <g id="" transform="matrix(1 0 0 1 281.506 1933)">
   <path d="M11.709 2.91016C17.1582 2.91016 21.6699-1.61133 21.6699-7.05078C21.6699-12.5 17.1484-17.0117 11.6992-17.0117C6.25977-17.0117 1.74805-12.5 1.74805-7.05078C1.74805-1.61133 6.26953 2.91016 11.709 2.91016ZM11.709 1.25C7.09961 1.25 3.41797-2.44141 3.41797-7.05078C3.41797-11.6602 7.08984-15.3516 11.6992-15.3516C16.3086-15.3516 20-11.6602 20.0098-7.05078C20.0195-2.44141 16.3184 1.25 11.709 1.25ZM7.98828-6.23047L10.8789-6.23047L10.8789-3.32031C10.8789-2.83203 11.2109-2.5 11.6895-2.5C12.1777-2.5 12.5195-2.83203 12.5195-3.32031L12.5195-6.23047L15.4297-6.23047C15.918-6.23047 16.25-6.5625 16.25-7.04102C16.25-7.5293 15.918-7.87109 15.4297-7.87109L12.5195-7.87109L12.5195-10.7617C12.5195-11.2695 12.1777-11.6016 11.6895-11.6016C11.2109-11.6016 10.8789-11.2598 10.8789-10.7617L10.8789-7.87109L7.98828-7.87109C7.48047-7.87109 7.14844-7.5293 7.14844-7.04102C7.14844-6.5625 7.49023-6.23047 7.98828-6.23047Z"/>
  </g>
  <g id="" transform="matrix(1 0 0 1 304.924 1933)">
   <path d="M14.9707 5.66406C21.9336 5.66406 27.6953-0.0976562 27.6953-7.05078C27.6953-14.0137 21.9238-19.7754 14.9609-19.7754C8.00781-19.7754 2.25586-14.0137 2.25586-7.05078C2.25586-0.0976562 8.01758 5.66406 14.9707 5.66406ZM14.9707 3.84766C8.93555 3.84766 4.08203-1.01562 4.08203-7.05078C4.08203-13.0957 8.92578-17.9492 14.9609-17.9492C21.0059-17.9492 25.8594-13.0957 25.8691-7.05078C25.8789-1.01562 21.0156 3.84766 14.9707 3.84766ZM10.0586-6.14258L14.0625-6.14258L14.0625-2.12891C14.0625-1.5918 14.4336-1.2207 14.9512-1.2207C15.4883-1.2207 15.8594-1.5918 15.8594-2.12891L15.8594-6.14258L19.8828-6.14258C20.4102-6.14258 20.791-6.51367 20.791-7.03125C20.791-7.56836 20.4199-7.94922 19.8828-7.94922L15.8594-7.94922L15.8594-11.9531C15.8594-12.5098 15.4883-12.8809 14.9512-12.8809C14.4336-12.8809 14.0625-12.5 14.0625-11.9531L14.0625-7.94922L10.0586-7.94922C9.50195-7.94922 9.13086-7.56836 9.13086-7.03125C9.13086-6.51367 9.51172-6.14258 10.0586-6.14258Z"/>
  </g>
  <text style="stroke:none;fill:black;font-family:-apple-system,&quot;SF Pro Display&quot;,&quot;SF Pro Text&quot;,Helvetica,sans-serif;font-weight:bold;" transform="matrix(1 0 0 1 263 1953)">Design Variations</text>
  <text style="stroke:none;fill:black;font-family:-apple-system,&quot;SF Pro Display&quot;,&quot;SF Pro Text&quot;,Helvetica,sans-serif;" transform="matrix(1 0 0 1 263 1971)">Symbols are supported in up to nine weights and three scales.</text>
  <text style="stroke:none;fill:black;font-family:-apple-system,&quot;SF Pro Display&quot;,&quot;SF Pro Text&quot;,Helvetica,sans-serif;" transform="matrix(1 0 0 1 263 1989)">For optimal layout with text and other symbols, vertically align</text>
  <text style="stroke:none;fill:black;font-family:-apple-system,&quot;SF Pro Display&quot;,&quot;SF Pro Text&quot;,Helvetica,sans-serif;" transform="matrix(1 0 0 1 263 2007)">symbols with the adjacent text.</text>
  <line id="" style="fill:none;stroke:#00AEEF;stroke-width:0.5;opacity:1.0;" x1="776" x2="776" y1="1919" y2="1933"/>
  <g id="" transform="matrix(1 0 0 1 776 1933)">
   <path d="M3.31055 0.126953C3.82812 0.126953 4.08203-0.0683594 4.26758-0.605469L5.52734-4.0625L11.2891-4.0625L12.5488-0.605469C12.7344-0.0683594 12.9883 0.126953 13.4961 0.126953C14.0137 0.126953 14.3457-0.185547 14.3457-0.673828C14.3457-0.839844 14.3164-0.986328 14.2383-1.20117L9.6582-13.3887C9.43359-13.9941 9.0332-14.2871 8.4082-14.2871C7.80273-14.2871 7.39258-13.9941 7.17773-13.3984L2.59766-1.19141C2.51953-0.976562 2.49023-0.830078 2.49023-0.664062C2.49023-0.175781 2.80273 0.126953 3.31055 0.126953ZM6.00586-5.53711L8.37891-12.1094L8.42773-12.1094L10.8008-5.53711Z"/>
  </g>
  <line id="" style="fill:none;stroke:#00AEEF;stroke-width:0.5;opacity:1.0;" x1="792.836" x2="792.836" y1="1919" y2="1933"/>
  <text style="stroke:none;fill:black;font-family:-apple-system,&quot;SF Pro Display&quot;,&quot;SF Pro Text&quot;,Helvetica,sans-serif;font-weight:bold;" transform="matrix(1 0 0 1 776 1953)">Margins</text>
  <text style="stroke:none;fill:black;font-family:-apple-system,&quot;SF Pro Display&quot;,&quot;SF Pro Text&quot;,Helvetica,sans-serif;" transform="matrix(1 0 0 1 776 1971)">Leading and trailing margins on the left and right side of each symbol</text>
  <text style="stroke:none;fill:black;font-family:-apple-system,&quot;SF Pro Display&quot;,&quot;SF Pro Text&quot;,Helvetica,sans-serif;" transform="matrix(1 0 0 1 776 1989)">can be adjusted by modifying the x-location of the margin guidelines.</text>
  <text style="stroke:none;fill:black;font-family:-apple-system,&quot;SF Pro Display&quot;,&quot;SF Pro Text&quot;,Helvetica,sans-serif;" transform="matrix(1 0 0 1 776 2007)">Modifications are automatically applied proportionally to all</text>
  <text style="stroke:none;fill:black;font-family:-apple-system,&quot;SF Pro Display&quot;,&quot;SF Pro Text&quot;,Helvetica,sans-serif;" transform="matrix(1 0 0 1 776 2025)">scales and weights.</text>
  <g id="" transform="matrix(1 0 0 1 1289 1933)">
   <path d="M2.8418 1.86523L4.54102 3.57422C5.40039 4.44336 6.38672 4.38477 7.31445 3.35938L17.4902-7.85156C17.7539-7.76367 18.0273-7.7832 18.3398-7.8418L19.4043-8.03711L20.0684-7.36328L20.0293-6.80664C19.9902-6.30859 20.1172-5.92773 20.6055-5.44922L21.3672-4.70703C21.8457-4.22852 22.4609-4.19922 22.9297-4.66797L25.8398-7.58789C26.3086-8.05664 26.2891-8.65234 25.8105-9.13086L25.0391-9.89258C24.5605-10.3711 24.1895-10.5273 23.7109-10.4883L23.1348-10.4395L22.4902-11.0742L22.7344-12.1973C22.8613-12.7637 22.7051-13.2031 22.1191-13.7891L19.9219-15.9766C16.582-19.2969 12.1484-19.2188 9.25781-16.3281C8.83789-15.918 8.80859-15.3418 9.04297-14.9512C9.27734-14.5898 9.73633-14.3555 10.3809-14.5215C11.8457-14.8633 13.3691-14.9219 14.7949-13.9844L14.209-12.5293C14.0137-12.0508 13.9844-11.6504 14.1113-11.2891L3.04688-0.898438C2.06055 0.0195312 1.98242 0.996094 2.8418 1.86523ZM10.752-15.957C13.1836-17.7344 16.4746-17.4316 18.7012-15.2051L21.1328-12.793C21.3672-12.5586 21.4062-12.373 21.3379-12.0312L21.0156-10.5469L22.5195-9.0625L23.5059-9.12109C23.7598-9.13086 23.8379-9.11133 24.0332-8.91602L24.6094-8.33984L22.168-5.89844L21.5918-6.47461C21.3965-6.66992 21.3672-6.74805 21.377-7.01172L21.4453-7.98828L19.9512-9.47266L18.4277-9.21875C18.1055-9.15039 17.959-9.17969 17.7148-9.41406L15.7129-11.416C15.459-11.6504 15.4297-11.8164 15.5859-12.1875L16.4648-14.2773C14.9023-15.7324 12.8711-16.3574 10.8398-15.7617C10.6836-15.7227 10.625-15.8496 10.752-15.957ZM5.27344 2.30469L4.10156 1.14258C3.63281 0.683594 3.74023 0.341797 4.14062-0.0195312L14.9512-10.1953L16.416-8.71094L6.42578 2.27539C6.07422 2.67578 5.74219 2.77344 5.27344 2.30469Z"/>
  </g>
  <text style="stroke:none;fill:black;font-family:-apple-system,&quot;SF Pro Display&quot;,&quot;SF Pro Text&quot;,Helvetica,sans-serif;font-weight:bold;" transform="matrix(1 0 0 1 1289 1953)">Exporting</text>
  <text style="stroke:none;fill:black;font-family:-apple-system,&quot;SF Pro Display&quot;,&quot;SF Pro Text&quot;,Helvetica,sans-serif;" transform="matrix(1 0 0 1 1289 1971)">Symbols should be outlined when exporting to ensure the</text>
  <text style="stroke:none;fill:black;font-family:-apple-system,&quot;SF Pro Display&quot;,&quot;SF Pro Text&quot;,Helvetica,sans-serif;" transform="matrix(1 0 0 1 1289 1989)">design is preserved when submitting to Xcode.</text>
  <text id="template-version" style="stroke:none;fill:black;font-family:-apple-system,&quot;SF Pro Display&quot;,&quot;SF Pro Text&quot;,Helvetica,sans-serif;text-anchor:end;" transform="matrix(1 0 0 1 3036 1933)">Template v.2.0</text>
  <text style="stroke:none;fill:black;font-family:-apple-system,&quot;SF Pro Display&quot;,&quot;SF Pro Text&quot;,Helvetica,sans-serif;text-anchor:end;" transform="matrix(1 0 0 1 3036 1951)">Requires Xcode 12 or greater</text>
  <text style="stroke:none;fill:black;font-family:-apple-system,&quot;SF Pro Display&quot;,&quot;SF Pro Text&quot;,Helvetica,sans-serif;" transform="matrix(1 0 0 1 263 726)">Small</text>
  <text style="stroke:none;fill:black;font-family:-apple-system,&quot;SF Pro Display&quot;,&quot;SF Pro Text&quot;,Helvetica,sans-serif;" transform="matrix(1 0 0 1 263 1156)">Medium</text>
  <text style="stroke:none;fill:black;font-family:-apple-system,&quot;SF Pro Display&quot;,&quot;SF Pro Text&quot;,Helvetica,sans-serif;" transform="matrix(1 0 0 1 263 1586)">Large</text>
 </g>
 <g id="Guides">
  <g id="H-reference" style="fill:#27AAE1;stroke:none;" transform="matrix(1 0 0 1 339 696)">
   <path d="M0.976562 0L3.66211 0L12.9883-24.4629L45.752-24.4629L55.127 0L57.7637 0L30.6152-70.459L28.125-70.459ZM29.3457-67.1387L29.4434-67.1387L44.873-26.709L13.8672-26.709Z"/>
  </g>
  <line id="Baseline-S" style="fill:none;stroke:#27AAE1;opacity:1;stroke-width:0.5;" x1="263" x2="3036" y1="696" y2="696"/>
  <line id="Capline-S" style="fill:none;stroke:#27AAE1;opacity:1;stroke-width:0.5;" x1="263" x2="3036" y1="625.541" y2="625.541"/>
  <g id="H-reference" style="fill:#27AAE1;stroke:none;" transform="matrix(1 0 0 1 339 1126)">
   <path d="M0.976562 0L3.66211 0L12.9883-24.4629L45.752-24.4629L55.127 0L57.7637 0L30.6152-70.459L28.125-70.459ZM29.3457-67.1387L29.4434-67.1387L44.873-26.709L13.8672-26.709Z"/>
  </g>
  <line id="Baseline-M" style="fill:none;stroke:#27AAE1;opacity:1;stroke-width:0.5;" x1="263" x2="3036" y1="1126" y2="1126"/>
  <line id="Capline-M" style="fill:none;stroke:#27AAE1;opacity:1;stroke-width:0.5;" x1="263" x2="3036" y1="1055.54" y2="1055.54"/>
  <g id="H-reference" style="fill:#27AAE1;stroke:none;" transform="matrix(1 0 0 1 339 1556)">
   <path d="M0.976562 0L3.66211 0L12.9883-24.4629L45.752-24.4629L55.127 0L57.7637 0L30.6152-70.459L28.125-70.459ZM29.3457-67.1387L29.4434-67.1387L44.873-26.709L13.8672-26.709Z"/>
  </g>
  <line id="Baseline-L" style="fill:none;stroke:#27AAE1;opacity:1;stroke-width:0.5;" x1="263" x2="3036" y1="1556" y2="1556"/>
  <line id="Capline-L" style="fill:none;stroke:#27AAE1;opacity:1;stroke-width:0.5;" x1="263" x2="3036" y1="1485.54" y2="1485.54"/>
  <line id="left-margin" x1="1383.6396159602489" x2="1383.6396159602489" y1="1030.79" y2="1150.12" style="fill:none;stroke:#00AEEF;stroke-width:0.5;opacity:1.0;"/>
  <line id="right-margin" x1="1518.620384039751" x2="1518.620384039751" y1="1030.79" y2="1150.12" style="fill:none;stroke:#00AEEF;stroke-width:0.5;opacity:1.0;"/>
 </g>
 <g id="Symbols">
  <g id="Black-L" transform="matrix(1.0,0.0,0.0,1.0,2847.617404588721,1433.7074241199712)">  <path y="0px" stroke-opacity="1" stroke-width="1px" stroke-linejoin="miter" stroke-dasharray="none" xml:space="preserve" fill="#000000" fill-rule="nonzero" stroke="none" x="0px" stroke-miterlimit="4" xmlns:xlink="http://www.w3.org/1999/xlink" fill-opacity="1" version="1.1" stroke-linecap="butt" d="M171.551,74.514L159.355,74.514L159.355,61.677C159.355,57.798,156.199,54.642,152.32,54.642L144.053,54.642C143.398,54.642,142.767,54.739,142.165,54.907L142.165,52.317C142.165,48.439,139.01,45.283,135.131,45.283L121.474,45.283C117.595,45.283,114.439,48.438,114.439,52.317L114.439,74.514L59.685,74.514L59.685,52.317C59.685,48.439,56.53,45.283,52.651,45.283L38.993,45.283C35.115,45.283,31.959,48.438,31.959,52.317L31.959,54.907C31.357,54.739,30.726,54.642,30.072,54.642L21.805,54.642C17.926,54.642,14.771,57.798,14.771,61.677L14.771,74.514L2.573,74.514C1.152,74.514,0,75.666,0,77.087L0,97.038C0,98.459,1.152,99.611,2.573,99.611L14.771,99.611L14.771,112.449C14.771,116.327,17.926,119.483,21.805,119.483L30.072,119.483C30.727,119.483,31.358,119.386,31.959,119.218L31.959,121.808C31.959,125.687,35.115,128.842,38.994,128.842L52.651,128.842C56.53,128.842,59.685,125.687,59.685,121.808L59.685,99.611L114.44,99.611L114.44,121.808C114.44,125.687,117.596,128.842,121.475,128.842L135.132,128.842C139.01,128.842,142.166,125.687,142.166,121.808L142.166,119.218C142.768,119.386,143.399,119.483,144.053,119.483L152.321,119.483C156.2,119.483,159.355,116.328,159.355,112.449L159.355,99.611L171.552,99.611C172.974,99.611,174.126,98.459,174.126,97.038L174.126,77.087C174.125,75.666,172.973,74.514,171.551,74.514ZM14.771,94.464L5.147,94.464L5.147,79.661L14.771,79.661L14.771,94.464ZM31.959,112.449C31.959,113.489,31.113,114.336,30.072,114.336L21.805,114.336C20.765,114.336,19.918,113.49,19.918,112.449L19.918,97.038L19.918,77.087L19.918,61.676C19.918,60.636,20.765,59.789,21.805,59.789L30.072,59.789C31.113,59.789,31.959,60.636,31.959,61.676L31.959,112.449ZM54.538,77.088L54.538,97.038L54.538,121.808C54.538,122.848,53.691,123.695,52.651,123.695L38.993,123.695C37.953,123.695,37.106,122.848,37.106,121.808L37.106,112.449L37.106,61.676L37.106,52.317C37.106,51.277,37.953,50.43,38.993,50.43L52.651,50.43C53.691,50.43,54.538,51.277,54.538,52.317L54.538,77.088ZM114.439,94.464L59.685,94.464L59.685,79.661L114.439,79.661L114.439,94.464ZM137.019,61.676L137.019,112.449L137.019,121.808C137.019,122.849,136.172,123.695,135.131,123.695L121.474,123.695C120.434,123.695,119.587,122.849,119.587,121.808L119.587,97.038L119.587,77.088L119.587,52.318C119.587,51.277,120.434,50.431,121.474,50.431L135.131,50.431C136.172,50.431,137.019,51.277,137.019,52.318L137.019,61.676ZM154.208,77.087L154.208,97.038L154.208,112.449C154.208,113.49,153.361,114.336,152.32,114.336L144.053,114.336C143.013,114.336,142.166,113.49,142.166,112.449L142.166,61.676C142.166,60.636,143.013,59.789,144.053,59.789L152.32,59.789C153.361,59.789,154.208,60.636,154.208,61.676L154.208,77.087ZM168.978,94.464L159.355,94.464L159.355,79.661L168.978,79.661L168.978,94.464ZM168.978,94.464"/>
</g>
  <g id="Heavy-L" transform="matrix(1.0,0.0,0.0,1.0,2550.907404588721,1433.7074241199712)">  <path stroke-linecap="butt" version="1.1" stroke-width="1px" fill="#000000" y="0px" stroke-dasharray="none" stroke-opacity="1" stroke-linejoin="miter" x="0px" stroke="none" stroke-miterlimit="4" xmlns:xlink="http://www.w3.org/1999/xlink" xml:space="preserve" fill-rule="nonzero" fill-opacity="1" d="M171.551,74.514L159.355,74.514L159.355,61.677C159.355,57.798,156.199,54.642,152.32,54.642L144.053,54.642C143.398,54.642,142.767,54.739,142.165,54.907L142.165,52.317C142.165,48.439,139.01,45.283,135.131,45.283L121.474,45.283C117.595,45.283,114.439,48.438,114.439,52.317L114.439,74.514L59.685,74.514L59.685,52.317C59.685,48.439,56.53,45.283,52.651,45.283L38.993,45.283C35.115,45.283,31.959,48.438,31.959,52.317L31.959,54.907C31.357,54.739,30.726,54.642,30.072,54.642L21.805,54.642C17.926,54.642,14.771,57.798,14.771,61.677L14.771,74.514L2.573,74.514C1.152,74.514,0,75.666,0,77.087L0,97.038C0,98.459,1.152,99.611,2.573,99.611L14.771,99.611L14.771,112.449C14.771,116.327,17.926,119.483,21.805,119.483L30.072,119.483C30.727,119.483,31.358,119.386,31.959,119.218L31.959,121.808C31.959,125.687,35.115,128.842,38.994,128.842L52.651,128.842C56.53,128.842,59.685,125.687,59.685,121.808L59.685,99.611L114.44,99.611L114.44,121.808C114.44,125.687,117.596,128.842,121.475,128.842L135.132,128.842C139.01,128.842,142.166,125.687,142.166,121.808L142.166,119.218C142.768,119.386,143.399,119.483,144.053,119.483L152.321,119.483C156.2,119.483,159.355,116.328,159.355,112.449L159.355,99.611L171.552,99.611C172.974,99.611,174.126,98.459,174.126,97.038L174.126,77.087C174.125,75.666,172.973,74.514,171.551,74.514ZM14.771,94.464L5.147,94.464L5.147,79.661L14.771,79.661L14.771,94.464ZM31.959,112.449C31.959,113.489,31.113,114.336,30.072,114.336L21.805,114.336C20.765,114.336,19.918,113.49,19.918,112.449L19.918,97.038L19.918,77.087L19.918,61.676C19.918,60.636,20.765,59.789,21.805,59.789L30.072,59.789C31.113,59.789,31.959,60.636,31.959,61.676L31.959,112.449ZM54.538,77.088L54.538,97.038L54.538,121.808C54.538,122.848,53.691,123.695,52.651,123.695L38.993,123.695C37.953,123.695,37.106,122.848,37.106,121.808L37.106,112.449L37.106,61.676L37.106,52.317C37.106,51.277,37.953,50.43,38.993,50.43L52.651,50.43C53.691,50.43,54.538,51.277,54.538,52.317L54.538,77.088ZM114.439,94.464L59.685,94.464L59.685,79.661L114.439,79.661L114.439,94.464ZM137.019,61.676L137.019,112.449L137.019,121.808C137.019,122.849,136.172,123.695,135.131,123.695L121.474,123.695C120.434,123.695,119.587,122.849,119.587,121.808L119.587,97.038L119.587,77.088L119.587,52.318C119.587,51.277,120.434,50.431,121.474,50.431L135.131,50.431C136.172,50.431,137.019,51.277,137.019,52.318L137.019,61.676ZM154.208,77.087L154.208,97.038L154.208,112.449C154.208,113.49,153.361,114.336,152.32,114.336L144.053,114.336C143.013,114.336,142.166,113.49,142.166,112.449L142.166,61.676C142.166,60.636,143.013,59.789,144.053,59.789L152.32,59.789C153.361,59.789,154.208,60.636,154.208,61.676L154.208,77.087ZM168.978,94.464L159.355,94.464L159.355,79.661L168.978,79.661L168.978,94.464ZM168.978,94.464"/>
</g>
  <g id="Bold-L" transform="matrix(1.0,0.0,0.0,1.0,2254.197404588721,1433.7074241199712)">  <path version="1.1" fill-opacity="1" fill="#000000" stroke="none" stroke-miterlimit="4" stroke-width="1px" stroke-linecap="butt" stroke-opacity="1" x="0px" xml:space="preserve" fill-rule="nonzero" stroke-dasharray="none" stroke-linejoin="miter" xmlns:xlink="http://www.w3.org/1999/xlink" y="0px" d="M171.551,74.514L159.355,74.514L159.355,61.677C159.355,57.798,156.199,54.642,152.32,54.642L144.053,54.642C143.398,54.642,142.767,54.739,142.165,54.907L142.165,52.317C142.165,48.439,139.01,45.283,135.131,45.283L121.474,45.283C117.595,45.283,114.439,48.438,114.439,52.317L114.439,74.514L59.685,74.514L59.685,52.317C59.685,48.439,56.53,45.283,52.651,45.283L38.993,45.283C35.115,45.283,31.959,48.438,31.959,52.317L31.959,54.907C31.357,54.739,30.726,54.642,30.072,54.642L21.805,54.642C17.926,54.642,14.771,57.798,14.771,61.677L14.771,74.514L2.573,74.514C1.152,74.514,0,75.666,0,77.087L0,97.038C0,98.459,1.152,99.611,2.573,99.611L14.771,99.611L14.771,112.449C14.771,116.327,17.926,119.483,21.805,119.483L30.072,119.483C30.727,119.483,31.358,119.386,31.959,119.218L31.959,121.808C31.959,125.687,35.115,128.842,38.994,128.842L52.651,128.842C56.53,128.842,59.685,125.687,59.685,121.808L59.685,99.611L114.44,99.611L114.44,121.808C114.44,125.687,117.596,128.842,121.475,128.842L135.132,128.842C139.01,128.842,142.166,125.687,142.166,121.808L142.166,119.218C142.768,119.386,143.399,119.483,144.053,119.483L152.321,119.483C156.2,119.483,159.355,116.328,159.355,112.449L159.355,99.611L171.552,99.611C172.974,99.611,174.126,98.459,174.126,97.038L174.126,77.087C174.125,75.666,172.973,74.514,171.551,74.514ZM14.771,94.464L5.147,94.464L5.147,79.661L14.771,79.661L14.771,94.464ZM31.959,112.449C31.959,113.489,31.113,114.336,30.072,114.336L21.805,114.336C20.765,114.336,19.918,113.49,19.918,112.449L19.918,97.038L19.918,77.087L19.918,61.676C19.918,60.636,20.765,59.789,21.805,59.789L30.072,59.789C31.113,59.789,31.959,60.636,31.959,61.676L31.959,112.449ZM54.538,77.088L54.538,97.038L54.538,121.808C54.538,122.848,53.691,123.695,52.651,123.695L38.993,123.695C37.953,123.695,37.106,122.848,37.106,121.808L37.106,112.449L37.106,61.676L37.106,52.317C37.106,51.277,37.953,50.43,38.993,50.43L52.651,50.43C53.691,50.43,54.538,51.277,54.538,52.317L54.538,77.088ZM114.439,94.464L59.685,94.464L59.685,79.661L114.439,79.661L114.439,94.464ZM137.019,61.676L137.019,112.449L137.019,121.808C137.019,122.849,136.172,123.695,135.131,123.695L121.474,123.695C120.434,123.695,119.587,122.849,119.587,121.808L119.587,97.038L119.587,77.088L119.587,52.318C119.587,51.277,120.434,50.431,121.474,50.431L135.131,50.431C136.172,50.431,137.019,51.277,137.019,52.318L137.019,61.676ZM154.208,77.087L154.208,97.038L154.208,112.449C154.208,113.49,153.361,114.336,152.32,114.336L144.053,114.336C143.013,114.336,142.166,113.49,142.166,112.449L142.166,61.676C142.166,60.636,143.013,59.789,144.053,59.789L152.32,59.789C153.361,59.789,154.208,60.636,154.208,61.676L154.208,77.087ZM168.978,94.464L159.355,94.464L159.355,79.661L168.978,79.661L168.978,94.464ZM168.978,94.464"/>
</g>
  <g id="Semibold-L" transform="matrix(1.0,0.0,0.0,1.0,1957.4874045887213,1433.7074241199712)">  <path xml:space="preserve" version="1.1" stroke-width="1px" stroke-linejoin="miter" fill="#000000" fill-rule="nonzero" x="0px" stroke="none" y="0px" stroke-dasharray="none" fill-opacity="1" stroke-miterlimit="4" xmlns:xlink="http://www.w3.org/1999/xlink" stroke-opacity="1" stroke-linecap="butt" d="M171.551,74.514L159.355,74.514L159.355,61.677C159.355,57.798,156.199,54.642,152.32,54.642L144.053,54.642C143.398,54.642,142.767,54.739,142.165,54.907L142.165,52.317C142.165,48.439,139.01,45.283,135.131,45.283L121.474,45.283C117.595,45.283,114.439,48.438,114.439,52.317L114.439,74.514L59.685,74.514L59.685,52.317C59.685,48.439,56.53,45.283,52.651,45.283L38.993,45.283C35.115,45.283,31.959,48.438,31.959,52.317L31.959,54.907C31.357,54.739,30.726,54.642,30.072,54.642L21.805,54.642C17.926,54.642,14.771,57.798,14.771,61.677L14.771,74.514L2.573,74.514C1.152,74.514,0,75.666,0,77.087L0,97.038C0,98.459,1.152,99.611,2.573,99.611L14.771,99.611L14.771,112.449C14.771,116.327,17.926,119.483,21.805,119.483L30.072,119.483C30.727,119.483,31.358,119.386,31.959,119.218L31.959,121.808C31.959,125.687,35.115,128.842,38.994,128.842L52.651,128.842C56.53,128.842,59.685,125.687,59.685,121.808L59.685,99.611L114.44,99.611L114.44,121.808C114.44,125.687,117.596,128.842,121.475,128.842L135.132,128.842C139.01,128.842,142.166,125.687,142.166,121.808L142.166,119.218C142.768,119.386,143.399,119.483,144.053,119.483L152.321,119.483C156.2,119.483,159.355,116.328,159.355,112.449L159.355,99.611L171.552,99.611C172.974,99.611,174.126,98.459,174.126,97.038L174.126,77.087C174.125,75.666,172.973,74.514,171.551,74.514ZM14.771,94.464L5.147,94.464L5.147,79.661L14.771,79.661L14.771,94.464ZM31.959,112.449C31.959,113.489,31.113,114.336,30.072,114.336L21.805,114.336C20.765,114.336,19.918,113.49,19.918,112.449L19.918,97.038L19.918,77.087L19.918,61.676C19.918,60.636,20.765,59.789,21.805,59.789L30.072,59.789C31.113,59.789,31.959,60.636,31.959,61.676L31.959,112.449ZM54.538,77.088L54.538,97.038L54.538,121.808C54.538,122.848,53.691,123.695,52.651,123.695L38.993,123.695C37.953,123.695,37.106,122.848,37.106,121.808L37.106,112.449L37.106,61.676L37.106,52.317C37.106,51.277,37.953,50.43,38.993,50.43L52.651,50.43C53.691,50.43,54.538,51.277,54.538,52.317L54.538,77.088ZM114.439,94.464L59.685,94.464L59.685,79.661L114.439,79.661L114.439,94.464ZM137.019,61.676L137.019,112.449L137.019,121.808C137.019,122.849,136.172,123.695,135.131,123.695L121.474,123.695C120.434,123.695,119.587,122.849,119.587,121.808L119.587,97.038L119.587,77.088L119.587,52.318C119.587,51.277,120.434,50.431,121.474,50.431L135.131,50.431C136.172,50.431,137.019,51.277,137.019,52.318L137.019,61.676ZM154.208,77.087L154.208,97.038L154.208,112.449C154.208,113.49,153.361,114.336,152.32,114.336L144.053,114.336C143.013,114.336,142.166,113.49,142.166,112.449L142.166,61.676C142.166,60.636,143.013,59.789,144.053,59.789L152.32,59.789C153.361,59.789,154.208,60.636,154.208,61.676L154.208,77.087ZM168.978,94.464L159.355,94.464L159.355,79.661L168.978,79.661L168.978,94.464ZM168.978,94.464"/>
</g>
  <g id="Medium-L" transform="matrix(1.0,0.0,0.0,1.0,1660.7774045887213,1433.7074241199712)">  <path stroke-linecap="butt" stroke="none" version="1.1" fill-opacity="1" xml:space="preserve" stroke-miterlimit="4" fill-rule="nonzero" fill="#000000" stroke-opacity="1" stroke-linejoin="miter" stroke-width="1px" xmlns:xlink="http://www.w3.org/1999/xlink" y="0px" x="0px" stroke-dasharray="none" d="M171.551,74.514L159.355,74.514L159.355,61.677C159.355,57.798,156.199,54.642,152.32,54.642L144.053,54.642C143.398,54.642,142.767,54.739,142.165,54.907L142.165,52.317C142.165,48.439,139.01,45.283,135.131,45.283L121.474,45.283C117.595,45.283,114.439,48.438,114.439,52.317L114.439,74.514L59.685,74.514L59.685,52.317C59.685,48.439,56.53,45.283,52.651,45.283L38.993,45.283C35.115,45.283,31.959,48.438,31.959,52.317L31.959,54.907C31.357,54.739,30.726,54.642,30.072,54.642L21.805,54.642C17.926,54.642,14.771,57.798,14.771,61.677L14.771,74.514L2.573,74.514C1.152,74.514,0,75.666,0,77.087L0,97.038C0,98.459,1.152,99.611,2.573,99.611L14.771,99.611L14.771,112.449C14.771,116.327,17.926,119.483,21.805,119.483L30.072,119.483C30.727,119.483,31.358,119.386,31.959,119.218L31.959,121.808C31.959,125.687,35.115,128.842,38.994,128.842L52.651,128.842C56.53,128.842,59.685,125.687,59.685,121.808L59.685,99.611L114.44,99.611L114.44,121.808C114.44,125.687,117.596,128.842,121.475,128.842L135.132,128.842C139.01,128.842,142.166,125.687,142.166,121.808L142.166,119.218C142.768,119.386,143.399,119.483,144.053,119.483L152.321,119.483C156.2,119.483,159.355,116.328,159.355,112.449L159.355,99.611L171.552,99.611C172.974,99.611,174.126,98.459,174.126,97.038L174.126,77.087C174.125,75.666,172.973,74.514,171.551,74.514ZM14.771,94.464L5.147,94.464L5.147,79.661L14.771,79.661L14.771,94.464ZM31.959,112.449C31.959,113.489,31.113,114.336,30.072,114.336L21.805,114.336C20.765,114.336,19.918,113.49,19.918,112.449L19.918,97.038L19.918,77.087L19.918,61.676C19.918,60.636,20.765,59.789,21.805,59.789L30.072,59.789C31.113,59.789,31.959,60.636,31.959,61.676L31.959,112.449ZM54.538,77.088L54.538,97.038L54.538,121.808C54.538,122.848,53.691,123.695,52.651,123.695L38.993,123.695C37.953,123.695,37.106,122.848,37.106,121.808L37.106,112.449L37.106,61.676L37.106,52.317C37.106,51.277,37.953,50.43,38.993,50.43L52.651,50.43C53.691,50.43,54.538,51.277,54.538,52.317L54.538,77.088ZM114.439,94.464L59.685,94.464L59.685,79.661L114.439,79.661L114.439,94.464ZM137.019,61.676L137.019,112.449L137.019,121.808C137.019,122.849,136.172,123.695,135.131,123.695L121.474,123.695C120.434,123.695,119.587,122.849,119.587,121.808L119.587,97.038L119.587,77.088L119.587,52.318C119.587,51.277,120.434,50.431,121.474,50.431L135.131,50.431C136.172,50.431,137.019,51.277,137.019,52.318L137.019,61.676ZM154.208,77.087L154.208,97.038L154.208,112.449C154.208,113.49,153.361,114.336,152.32,114.336L144.053,114.336C143.013,114.336,142.166,113.49,142.166,112.449L142.166,61.676C142.166,60.636,143.013,59.789,144.053,59.789L152.32,59.789C153.361,59.789,154.208,60.636,154.208,61.676L154.208,77.087ZM168.978,94.464L159.355,94.464L159.355,79.661L168.978,79.661L168.978,94.464ZM168.978,94.464"/>
</g>
  <g id="Regular-L" transform="matrix(1.0,0.0,0.0,1.0,1364.0674045887213,1433.7074241199712)">  <path stroke-miterlimit="4" stroke-linejoin="miter" fill-opacity="1" stroke-dasharray="none" y="0px" xmlns:xlink="http://www.w3.org/1999/xlink" stroke-opacity="1" stroke-width="1px" stroke-linecap="butt" xml:space="preserve" stroke="none" x="0px" fill-rule="nonzero" fill="#000000" version="1.1" d="M171.551,74.514L159.355,74.514L159.355,61.677C159.355,57.798,156.199,54.642,152.32,54.642L144.053,54.642C143.398,54.642,142.767,54.739,142.165,54.907L142.165,52.317C142.165,48.439,139.01,45.283,135.131,45.283L121.474,45.283C117.595,45.283,114.439,48.438,114.439,52.317L114.439,74.514L59.685,74.514L59.685,52.317C59.685,48.439,56.53,45.283,52.651,45.283L38.993,45.283C35.115,45.283,31.959,48.438,31.959,52.317L31.959,54.907C31.357,54.739,30.726,54.642,30.072,54.642L21.805,54.642C17.926,54.642,14.771,57.798,14.771,61.677L14.771,74.514L2.573,74.514C1.152,74.514,0,75.666,0,77.087L0,97.038C0,98.459,1.152,99.611,2.573,99.611L14.771,99.611L14.771,112.449C14.771,116.327,17.926,119.483,21.805,119.483L30.072,119.483C30.727,119.483,31.358,119.386,31.959,119.218L31.959,121.808C31.959,125.687,35.115,128.842,38.994,128.842L52.651,128.842C56.53,128.842,59.685,125.687,59.685,121.808L59.685,99.611L114.44,99.611L114.44,121.808C114.44,125.687,117.596,128.842,121.475,128.842L135.132,128.842C139.01,128.842,142.166,125.687,142.166,121.808L142.166,119.218C142.768,119.386,143.399,119.483,144.053,119.483L152.321,119.483C156.2,119.483,159.355,116.328,159.355,112.449L159.355,99.611L171.552,99.611C172.974,99.611,174.126,98.459,174.126,97.038L174.126,77.087C174.125,75.666,172.973,74.514,171.551,74.514ZM14.771,94.464L5.147,94.464L5.147,79.661L14.771,79.661L14.771,94.464ZM31.959,112.449C31.959,113.489,31.113,114.336,30.072,114.336L21.805,114.336C20.765,114.336,19.918,113.49,19.918,112.449L19.918,97.038L19.918,77.087L19.918,61.676C19.918,60.636,20.765,59.789,21.805,59.789L30.072,59.789C31.113,59.789,31.959,60.636,31.959,61.676L31.959,112.449ZM54.538,77.088L54.538,97.038L54.538,121.808C54.538,122.848,53.691,123.695,52.651,123.695L38.993,123.695C37.953,123.695,37.106,122.848,37.106,121.808L37.106,112.449L37.106,61.676L37.106,52.317C37.106,51.277,37.953,50.43,38.993,50.43L52.651,50.43C53.691,50.43,54.538,51.277,54.538,52.317L54.538,77.088ZM114.439,94.464L59.685,94.464L59.685,79.661L114.439,79.661L114.439,94.464ZM137.019,61.676L137.019,112.449L137.019,121.808C137.019,122.849,136.172,123.695,135.131,123.695L121.474,123.695C120.434,123.695,119.587,122.849,119.587,121.808L119.587,97.038L119.587,77.088L119.587,52.318C119.587,51.277,120.434,50.431,121.474,50.431L135.131,50.431C136.172,50.431,137.019,51.277,137.019,52.318L137.019,61.676ZM154.208,77.087L154.208,97.038L154.208,112.449C154.208,113.49,153.361,114.336,152.32,114.336L144.053,114.336C143.013,114.336,142.166,113.49,142.166,112.449L142.166,61.676C142.166,60.636,143.013,59.789,144.053,59.789L152.32,59.789C153.361,59.789,154.208,60.636,154.208,61.676L154.208,77.087ZM168.978,94.464L159.355,94.464L159.355,79.661L168.978,79.661L168.978,94.464ZM168.978,94.464"/>
</g>
  <g id="Light-L" transform="matrix(1.0,0.0,0.0,1.0,1067.3574045887212,1433.7074241199712)">  <path version="1.1" stroke-linejoin="miter" y="0px" xmlns:xlink="http://www.w3.org/1999/xlink" stroke-width="1px" fill="#000000" stroke-linecap="butt" fill-rule="nonzero" stroke="none" stroke-dasharray="none" fill-opacity="1" x="0px" xml:space="preserve" stroke-opacity="1" stroke-miterlimit="4" d="M171.551,74.514L159.355,74.514L159.355,61.677C159.355,57.798,156.199,54.642,152.32,54.642L144.053,54.642C143.398,54.642,142.767,54.739,142.165,54.907L142.165,52.317C142.165,48.439,139.01,45.283,135.131,45.283L121.474,45.283C117.595,45.283,114.439,48.438,114.439,52.317L114.439,74.514L59.685,74.514L59.685,52.317C59.685,48.439,56.53,45.283,52.651,45.283L38.993,45.283C35.115,45.283,31.959,48.438,31.959,52.317L31.959,54.907C31.357,54.739,30.726,54.642,30.072,54.642L21.805,54.642C17.926,54.642,14.771,57.798,14.771,61.677L14.771,74.514L2.573,74.514C1.152,74.514,0,75.666,0,77.087L0,97.038C0,98.459,1.152,99.611,2.573,99.611L14.771,99.611L14.771,112.449C14.771,116.327,17.926,119.483,21.805,119.483L30.072,119.483C30.727,119.483,31.358,119.386,31.959,119.218L31.959,121.808C31.959,125.687,35.115,128.842,38.994,128.842L52.651,128.842C56.53,128.842,59.685,125.687,59.685,121.808L59.685,99.611L114.44,99.611L114.44,121.808C114.44,125.687,117.596,128.842,121.475,128.842L135.132,128.842C139.01,128.842,142.166,125.687,142.166,121.808L142.166,119.218C142.768,119.386,143.399,119.483,144.053,119.483L152.321,119.483C156.2,119.483,159.355,116.328,159.355,112.449L159.355,99.611L171.552,99.611C172.974,99.611,174.126,98.459,174.126,97.038L174.126,77.087C174.125,75.666,172.973,74.514,171.551,74.514ZM14.771,94.464L5.147,94.464L5.147,79.661L14.771,79.661L14.771,94.464ZM31.959,112.449C31.959,113.489,31.113,114.336,30.072,114.336L21.805,114.336C20.765,114.336,19.918,113.49,19.918,112.449L19.918,97.038L19.918,77.087L19.918,61.676C19.918,60.636,20.765,59.789,21.805,59.789L30.072,59.789C31.113,59.789,31.959,60.636,31.959,61.676L31.959,112.449ZM54.538,77.088L54.538,97.038L54.538,121.808C54.538,122.848,53.691,123.695,52.651,123.695L38.993,123.695C37.953,123.695,37.106,122.848,37.106,121.808L37.106,112.449L37.106,61.676L37.106,52.317C37.106,51.277,37.953,50.43,38.993,50.43L52.651,50.43C53.691,50.43,54.538,51.277,54.538,52.317L54.538,77.088ZM114.439,94.464L59.685,94.464L59.685,79.661L114.439,79.661L114.439,94.464ZM137.019,61.676L137.019,112.449L137.019,121.808C137.019,122.849,136.172,123.695,135.131,123.695L121.474,123.695C120.434,123.695,119.587,122.849,119.587,121.808L119.587,97.038L119.587,77.088L119.587,52.318C119.587,51.277,120.434,50.431,121.474,50.431L135.131,50.431C136.172,50.431,137.019,51.277,137.019,52.318L137.019,61.676ZM154.208,77.087L154.208,97.038L154.208,112.449C154.208,113.49,153.361,114.336,152.32,114.336L144.053,114.336C143.013,114.336,142.166,113.49,142.166,112.449L142.166,61.676C142.166,60.636,143.013,59.789,144.053,59.789L152.32,59.789C153.361,59.789,154.208,60.636,154.208,61.676L154.208,77.087ZM168.978,94.464L159.355,94.464L159.355,79.661L168.978,79.661L168.978,94.464ZM168.978,94.464"/>
</g>
  <g id="Thin-L" transform="matrix(1.0,0.0,0.0,1.0,770.6474045887213,1433.7074241199712)">  <path stroke-linecap="butt" fill="#000000" xmlns:xlink="http://www.w3.org/1999/xlink" stroke-miterlimit="4" stroke="none" stroke-opacity="1" fill-opacity="1" xml:space="preserve" version="1.1" x="0px" fill-rule="nonzero" stroke-dasharray="none" y="0px" stroke-width="1px" stroke-linejoin="miter" d="M171.551,74.514L159.355,74.514L159.355,61.677C159.355,57.798,156.199,54.642,152.32,54.642L144.053,54.642C143.398,54.642,142.767,54.739,142.165,54.907L142.165,52.317C142.165,48.439,139.01,45.283,135.131,45.283L121.474,45.283C117.595,45.283,114.439,48.438,114.439,52.317L114.439,74.514L59.685,74.514L59.685,52.317C59.685,48.439,56.53,45.283,52.651,45.283L38.993,45.283C35.115,45.283,31.959,48.438,31.959,52.317L31.959,54.907C31.357,54.739,30.726,54.642,30.072,54.642L21.805,54.642C17.926,54.642,14.771,57.798,14.771,61.677L14.771,74.514L2.573,74.514C1.152,74.514,0,75.666,0,77.087L0,97.038C0,98.459,1.152,99.611,2.573,99.611L14.771,99.611L14.771,112.449C14.771,116.327,17.926,119.483,21.805,119.483L30.072,119.483C30.727,119.483,31.358,119.386,31.959,119.218L31.959,121.808C31.959,125.687,35.115,128.842,38.994,128.842L52.651,128.842C56.53,128.842,59.685,125.687,59.685,121.808L59.685,99.611L114.44,99.611L114.44,121.808C114.44,125.687,117.596,128.842,121.475,128.842L135.132,128.842C139.01,128.842,142.166,125.687,142.166,121.808L142.166,119.218C142.768,119.386,143.399,119.483,144.053,119.483L152.321,119.483C156.2,119.483,159.355,116.328,159.355,112.449L159.355,99.611L171.552,99.611C172.974,99.611,174.126,98.459,174.126,97.038L174.126,77.087C174.125,75.666,172.973,74.514,171.551,74.514ZM14.771,94.464L5.147,94.464L5.147,79.661L14.771,79.661L14.771,94.464ZM31.959,112.449C31.959,113.489,31.113,114.336,30.072,114.336L21.805,114.336C20.765,114.336,19.918,113.49,19.918,112.449L19.918,97.038L19.918,77.087L19.918,61.676C19.918,60.636,20.765,59.789,21.805,59.789L30.072,59.789C31.113,59.789,31.959,60.636,31.959,61.676L31.959,112.449ZM54.538,77.088L54.538,97.038L54.538,121.808C54.538,122.848,53.691,123.695,52.651,123.695L38.993,123.695C37.953,123.695,37.106,122.848,37.106,121.808L37.106,112.449L37.106,61.676L37.106,52.317C37.106,51.277,37.953,50.43,38.993,50.43L52.651,50.43C53.691,50.43,54.538,51.277,54.538,52.317L54.538,77.088ZM114.439,94.464L59.685,94.464L59.685,79.661L114.439,79.661L114.439,94.464ZM137.019,61.676L137.019,112.449L137.019,121.808C137.019,122.849,136.172,123.695,135.131,123.695L121.474,123.695C120.434,123.695,119.587,122.849,119.587,121.808L119.587,97.038L119.587,77.088L119.587,52.318C119.587,51.277,120.434,50.431,121.474,50.431L135.131,50.431C136.172,50.431,137.019,51.277,137.019,52.318L137.019,61.676ZM154.208,77.087L154.208,97.038L154.208,112.449C154.208,113.49,153.361,114.336,152.32,114.336L144.053,114.336C143.013,114.336,142.166,113.49,142.166,112.449L142.166,61.676C142.166,60.636,143.013,59.789,144.053,59.789L152.32,59.789C153.361,59.789,154.208,60.636,154.208,61.676L154.208,77.087ZM168.978,94.464L159.355,94.464L159.355,79.661L168.978,79.661L168.978,94.464ZM168.978,94.464"/>
</g>
  <g id="Ultralight-L" transform="matrix(1.0,0.0,0.0,1.0,473.9374045887213,1433.7074241199712)">  <path stroke-dasharray="none" fill="#000000" x="0px" fill-rule="nonzero" stroke-miterlimit="4" stroke-width="1px" y="0px" stroke-linecap="butt" xmlns:xlink="http://www.w3.org/1999/xlink" version="1.1" stroke-linejoin="miter" stroke="none" xml:space="preserve" fill-opacity="1" stroke-opacity="1" d="M171.551,74.514L159.355,74.514L159.355,61.677C159.355,57.798,156.199,54.642,152.32,54.642L144.053,54.642C143.398,54.642,142.767,54.739,142.165,54.907L142.165,52.317C142.165,48.439,139.01,45.283,135.131,45.283L121.474,45.283C117.595,45.283,114.439,48.438,114.439,52.317L114.439,74.514L59.685,74.514L59.685,52.317C59.685,48.439,56.53,45.283,52.651,45.283L38.993,45.283C35.115,45.283,31.959,48.438,31.959,52.317L31.959,54.907C31.357,54.739,30.726,54.642,30.072,54.642L21.805,54.642C17.926,54.642,14.771,57.798,14.771,61.677L14.771,74.514L2.573,74.514C1.152,74.514,0,75.666,0,77.087L0,97.038C0,98.459,1.152,99.611,2.573,99.611L14.771,99.611L14.771,112.449C14.771,116.327,17.926,119.483,21.805,119.483L30.072,119.483C30.727,119.483,31.358,119.386,31.959,119.218L31.959,121.808C31.959,125.687,35.115,128.842,38.994,128.842L52.651,128.842C56.53,128.842,59.685,125.687,59.685,121.808L59.685,99.611L114.44,99.611L114.44,121.808C114.44,125.687,117.596,128.842,121.475,128.842L135.132,128.842C139.01,128.842,142.166,125.687,142.166,121.808L142.166,119.218C142.768,119.386,143.399,119.483,144.053,119.483L152.321,119.483C156.2,119.483,159.355,116.328,159.355,112.449L159.355,99.611L171.552,99.611C172.974,99.611,174.126,98.459,174.126,97.038L174.126,77.087C174.125,75.666,172.973,74.514,171.551,74.514ZM14.771,94.464L5.147,94.464L5.147,79.661L14.771,79.661L14.771,94.464ZM31.959,112.449C31.959,113.489,31.113,114.336,30.072,114.336L21.805,114.336C20.765,114.336,19.918,113.49,19.918,112.449L19.918,97.038L19.918,77.087L19.918,61.676C19.918,60.636,20.765,59.789,21.805,59.789L30.072,59.789C31.113,59.789,31.959,60.636,31.959,61.676L31.959,112.449ZM54.538,77.088L54.538,97.038L54.538,121.808C54.538,122.848,53.691,123.695,52.651,123.695L38.993,123.695C37.953,123.695,37.106,122.848,37.106,121.808L37.106,112.449L37.106,61.676L37.106,52.317C37.106,51.277,37.953,50.43,38.993,50.43L52.651,50.43C53.691,50.43,54.538,51.277,54.538,52.317L54.538,77.088ZM114.439,94.464L59.685,94.464L59.685,79.661L114.439,79.661L114.439,94.464ZM137.019,61.676L137.019,112.449L137.019,121.808C137.019,122.849,136.172,123.695,135.131,123.695L121.474,123.695C120.434,123.695,119.587,122.849,119.587,121.808L119.587,97.038L119.587,77.088L119.587,52.318C119.587,51.277,120.434,50.431,121.474,50.431L135.131,50.431C136.172,50.431,137.019,51.277,137.019,52.318L137.019,61.676ZM154.208,77.087L154.208,97.038L154.208,112.449C154.208,113.49,153.361,114.336,152.32,114.336L144.053,114.336C143.013,114.336,142.166,113.49,142.166,112.449L142.166,61.676C142.166,60.636,143.013,59.789,144.053,59.789L152.32,59.789C153.361,59.789,154.208,60.636,154.208,61.676L154.208,77.087ZM168.978,94.464L159.355,94.464L159.355,79.661L168.978,79.661L168.978,94.464ZM168.978,94.464"/>
</g>
  <g id="Black-M" transform="matrix(1.0,0.0,0.0,1.0,2867.189615960249,1023.279635491499)">  <path y="0px" stroke-opacity="1" stroke-width="1px" stroke-linejoin="miter" stroke-dasharray="none" xml:space="preserve" fill="#000000" fill-rule="nonzero" stroke="none" x="0px" stroke-miterlimit="4" xmlns:xlink="http://www.w3.org/1999/xlink" fill-opacity="1" version="1.1" stroke-linecap="butt" d="M132.986,57.763L123.531,57.763L123.531,47.811C123.531,44.805,121.085,42.358,118.078,42.358L111.669,42.358C111.161,42.358,110.672,42.433,110.206,42.563L110.206,40.556C110.206,37.549,107.76,35.103,104.753,35.103L94.166,35.103C91.159,35.103,88.713,37.549,88.713,40.556L88.713,57.763L46.267,57.763L46.267,40.556C46.267,37.549,43.821,35.103,40.814,35.103L30.227,35.103C27.221,35.103,24.774,37.549,24.774,40.556L24.774,42.563C24.308,42.433,23.819,42.358,23.312,42.358L16.903,42.358C13.896,42.358,11.45,44.804,11.45,47.811L11.45,57.763L1.995,57.763C0.893,57.763,0,58.656,0,59.758L0,75.223C0,76.325,0.893,77.218,1.995,77.218L11.45,77.218L11.45,87.169C11.45,90.176,13.896,92.622,16.903,92.622L23.312,92.622C23.819,92.622,24.309,92.547,24.775,92.417L24.775,94.425C24.775,97.431,27.221,99.878,30.228,99.878L40.815,99.878C43.821,99.878,46.268,97.431,46.268,94.425L46.268,77.218L88.713,77.218L88.713,94.425C88.713,97.431,91.16,99.878,94.166,99.878L104.753,99.878C107.76,99.878,110.206,97.432,110.206,94.425L110.206,92.417C110.673,92.548,111.162,92.622,111.669,92.622L118.078,92.622C121.085,92.622,123.531,90.176,123.531,87.169L123.531,77.218L132.986,77.218C134.088,77.218,134.981,76.325,134.981,75.223L134.981,59.758C134.981,58.656,134.088,57.763,132.986,57.763ZM11.45,73.228L3.99,73.228L3.99,61.753L11.45,61.753L11.45,73.228ZM24.775,87.17C24.775,87.976,24.119,88.633,23.312,88.633L16.903,88.633C16.097,88.633,15.44,87.976,15.44,87.17L15.44,75.223L15.44,59.758L15.44,47.811C15.44,47.004,16.097,46.348,16.903,46.348L23.312,46.348C24.119,46.348,24.775,47.004,24.775,47.811L24.775,87.17ZM42.277,59.758L42.277,75.223L42.277,94.425C42.277,95.231,41.621,95.888,40.814,95.888L30.227,95.888C29.421,95.888,28.765,95.231,28.765,94.425L28.765,87.169L28.765,47.811L28.765,40.556C28.765,39.749,29.421,39.093,30.227,39.093L40.814,39.093C41.621,39.093,42.277,39.749,42.277,40.556L42.277,59.758ZM88.713,73.228L46.267,73.228L46.267,61.753L88.713,61.753L88.713,73.228ZM106.216,47.811L106.216,87.169L106.216,94.425C106.216,95.232,105.559,95.888,104.753,95.888L94.166,95.888C93.36,95.888,92.703,95.232,92.703,94.425L92.703,75.223L92.703,59.758L92.703,40.556C92.703,39.75,93.36,39.093,94.166,39.093L104.753,39.093C105.559,39.093,106.216,39.75,106.216,40.556L106.216,47.811ZM119.541,59.758L119.541,75.223L119.541,87.17C119.541,87.976,118.884,88.633,118.078,88.633L111.669,88.633C110.862,88.633,110.206,87.976,110.206,87.17L110.206,47.811C110.206,47.004,110.862,46.348,111.669,46.348L118.078,46.348C118.884,46.348,119.541,47.004,119.541,47.811L119.541,59.758ZM130.99,73.228L123.531,73.228L123.531,61.753L130.99,61.753L130.99,73.228ZM130.99,73.228"/>
</g>
  <g id="Heavy-M" transform="matrix(1.0,0.0,0.0,1.0,2570.479615960249,1023.279635491499)">  <path stroke-linecap="butt" version="1.1" stroke-width="1px" fill="#000000" y="0px" stroke-dasharray="none" stroke-opacity="1" stroke-linejoin="miter" x="0px" stroke="none" stroke-miterlimit="4" xmlns:xlink="http://www.w3.org/1999/xlink" xml:space="preserve" fill-rule="nonzero" fill-opacity="1" d="M132.986,57.763L123.531,57.763L123.531,47.811C123.531,44.805,121.085,42.358,118.078,42.358L111.669,42.358C111.161,42.358,110.672,42.433,110.206,42.563L110.206,40.556C110.206,37.549,107.76,35.103,104.753,35.103L94.166,35.103C91.159,35.103,88.713,37.549,88.713,40.556L88.713,57.763L46.267,57.763L46.267,40.556C46.267,37.549,43.821,35.103,40.814,35.103L30.227,35.103C27.221,35.103,24.774,37.549,24.774,40.556L24.774,42.563C24.308,42.433,23.819,42.358,23.312,42.358L16.903,42.358C13.896,42.358,11.45,44.804,11.45,47.811L11.45,57.763L1.995,57.763C0.893,57.763,0,58.656,0,59.758L0,75.223C0,76.325,0.893,77.218,1.995,77.218L11.45,77.218L11.45,87.169C11.45,90.176,13.896,92.622,16.903,92.622L23.312,92.622C23.819,92.622,24.309,92.547,24.775,92.417L24.775,94.425C24.775,97.431,27.221,99.878,30.228,99.878L40.815,99.878C43.821,99.878,46.268,97.431,46.268,94.425L46.268,77.218L88.713,77.218L88.713,94.425C88.713,97.431,91.16,99.878,94.166,99.878L104.753,99.878C107.76,99.878,110.206,97.432,110.206,94.425L110.206,92.417C110.673,92.548,111.162,92.622,111.669,92.622L118.078,92.622C121.085,92.622,123.531,90.176,123.531,87.169L123.531,77.218L132.986,77.218C134.088,77.218,134.981,76.325,134.981,75.223L134.981,59.758C134.981,58.656,134.088,57.763,132.986,57.763ZM11.45,73.228L3.99,73.228L3.99,61.753L11.45,61.753L11.45,73.228ZM24.775,87.17C24.775,87.976,24.119,88.633,23.312,88.633L16.903,88.633C16.097,88.633,15.44,87.976,15.44,87.17L15.44,75.223L15.44,59.758L15.44,47.811C15.44,47.004,16.097,46.348,16.903,46.348L23.312,46.348C24.119,46.348,24.775,47.004,24.775,47.811L24.775,87.17ZM42.277,59.758L42.277,75.223L42.277,94.425C42.277,95.231,41.621,95.888,40.814,95.888L30.227,95.888C29.421,95.888,28.765,95.231,28.765,94.425L28.765,87.169L28.765,47.811L28.765,40.556C28.765,39.749,29.421,39.093,30.227,39.093L40.814,39.093C41.621,39.093,42.277,39.749,42.277,40.556L42.277,59.758ZM88.713,73.228L46.267,73.228L46.267,61.753L88.713,61.753L88.713,73.228ZM106.216,47.811L106.216,87.169L106.216,94.425C106.216,95.232,105.559,95.888,104.753,95.888L94.166,95.888C93.36,95.888,92.703,95.232,92.703,94.425L92.703,75.223L92.703,59.758L92.703,40.556C92.703,39.75,93.36,39.093,94.166,39.093L104.753,39.093C105.559,39.093,106.216,39.75,106.216,40.556L106.216,47.811ZM119.541,59.758L119.541,75.223L119.541,87.17C119.541,87.976,118.884,88.633,118.078,88.633L111.669,88.633C110.862,88.633,110.206,87.976,110.206,87.17L110.206,47.811C110.206,47.004,110.862,46.348,111.669,46.348L118.078,46.348C118.884,46.348,119.541,47.004,119.541,47.811L119.541,59.758ZM130.99,73.228L123.531,73.228L123.531,61.753L130.99,61.753L130.99,73.228ZM130.99,73.228"/>
</g>
  <g id="Bold-M" transform="matrix(1.0,0.0,0.0,1.0,2273.7696159602488,1023.279635491499)">  <path version="1.1" fill-opacity="1" fill="#000000" stroke="none" stroke-miterlimit="4" stroke-width="1px" stroke-linecap="butt" stroke-opacity="1" x="0px" xml:space="preserve" fill-rule="nonzero" stroke-dasharray="none" stroke-linejoin="miter" xmlns:xlink="http://www.w3.org/1999/xlink" y="0px" d="M132.986,57.763L123.531,57.763L123.531,47.811C123.531,44.805,121.085,42.358,118.078,42.358L111.669,42.358C111.161,42.358,110.672,42.433,110.206,42.563L110.206,40.556C110.206,37.549,107.76,35.103,104.753,35.103L94.166,35.103C91.159,35.103,88.713,37.549,88.713,40.556L88.713,57.763L46.267,57.763L46.267,40.556C46.267,37.549,43.821,35.103,40.814,35.103L30.227,35.103C27.221,35.103,24.774,37.549,24.774,40.556L24.774,42.563C24.308,42.433,23.819,42.358,23.312,42.358L16.903,42.358C13.896,42.358,11.45,44.804,11.45,47.811L11.45,57.763L1.995,57.763C0.893,57.763,0,58.656,0,59.758L0,75.223C0,76.325,0.893,77.218,1.995,77.218L11.45,77.218L11.45,87.169C11.45,90.176,13.896,92.622,16.903,92.622L23.312,92.622C23.819,92.622,24.309,92.547,24.775,92.417L24.775,94.425C24.775,97.431,27.221,99.878,30.228,99.878L40.815,99.878C43.821,99.878,46.268,97.431,46.268,94.425L46.268,77.218L88.713,77.218L88.713,94.425C88.713,97.431,91.16,99.878,94.166,99.878L104.753,99.878C107.76,99.878,110.206,97.432,110.206,94.425L110.206,92.417C110.673,92.548,111.162,92.622,111.669,92.622L118.078,92.622C121.085,92.622,123.531,90.176,123.531,87.169L123.531,77.218L132.986,77.218C134.088,77.218,134.981,76.325,134.981,75.223L134.981,59.758C134.981,58.656,134.088,57.763,132.986,57.763ZM11.45,73.228L3.99,73.228L3.99,61.753L11.45,61.753L11.45,73.228ZM24.775,87.17C24.775,87.976,24.119,88.633,23.312,88.633L16.903,88.633C16.097,88.633,15.44,87.976,15.44,87.17L15.44,75.223L15.44,59.758L15.44,47.811C15.44,47.004,16.097,46.348,16.903,46.348L23.312,46.348C24.119,46.348,24.775,47.004,24.775,47.811L24.775,87.17ZM42.277,59.758L42.277,75.223L42.277,94.425C42.277,95.231,41.621,95.888,40.814,95.888L30.227,95.888C29.421,95.888,28.765,95.231,28.765,94.425L28.765,87.169L28.765,47.811L28.765,40.556C28.765,39.749,29.421,39.093,30.227,39.093L40.814,39.093C41.621,39.093,42.277,39.749,42.277,40.556L42.277,59.758ZM88.713,73.228L46.267,73.228L46.267,61.753L88.713,61.753L88.713,73.228ZM106.216,47.811L106.216,87.169L106.216,94.425C106.216,95.232,105.559,95.888,104.753,95.888L94.166,95.888C93.36,95.888,92.703,95.232,92.703,94.425L92.703,75.223L92.703,59.758L92.703,40.556C92.703,39.75,93.36,39.093,94.166,39.093L104.753,39.093C105.559,39.093,106.216,39.75,106.216,40.556L106.216,47.811ZM119.541,59.758L119.541,75.223L119.541,87.17C119.541,87.976,118.884,88.633,118.078,88.633L111.669,88.633C110.862,88.633,110.206,87.976,110.206,87.17L110.206,47.811C110.206,47.004,110.862,46.348,111.669,46.348L118.078,46.348C118.884,46.348,119.541,47.004,119.541,47.811L119.541,59.758ZM130.99,73.228L123.531,73.228L123.531,61.753L130.99,61.753L130.99,73.228ZM130.99,73.228"/>
</g>
  <g id="Semibold-M" transform="matrix(1.0,0.0,0.0,1.0,1977.059615960249,1023.279635491499)">  <path xml:space="preserve" version="1.1" stroke-width="1px" stroke-linejoin="miter" fill="#000000" fill-rule="nonzero" x="0px" stroke="none" y="0px" stroke-dasharray="none" fill-opacity="1" stroke-miterlimit="4" xmlns:xlink="http://www.w3.org/1999/xlink" stroke-opacity="1" stroke-linecap="butt" d="M132.986,57.763L123.531,57.763L123.531,47.811C123.531,44.805,121.085,42.358,118.078,42.358L111.669,42.358C111.161,42.358,110.672,42.433,110.206,42.563L110.206,40.556C110.206,37.549,107.76,35.103,104.753,35.103L94.166,35.103C91.159,35.103,88.713,37.549,88.713,40.556L88.713,57.763L46.267,57.763L46.267,40.556C46.267,37.549,43.821,35.103,40.814,35.103L30.227,35.103C27.221,35.103,24.774,37.549,24.774,40.556L24.774,42.563C24.308,42.433,23.819,42.358,23.312,42.358L16.903,42.358C13.896,42.358,11.45,44.804,11.45,47.811L11.45,57.763L1.995,57.763C0.893,57.763,0,58.656,0,59.758L0,75.223C0,76.325,0.893,77.218,1.995,77.218L11.45,77.218L11.45,87.169C11.45,90.176,13.896,92.622,16.903,92.622L23.312,92.622C23.819,92.622,24.309,92.547,24.775,92.417L24.775,94.425C24.775,97.431,27.221,99.878,30.228,99.878L40.815,99.878C43.821,99.878,46.268,97.431,46.268,94.425L46.268,77.218L88.713,77.218L88.713,94.425C88.713,97.431,91.16,99.878,94.166,99.878L104.753,99.878C107.76,99.878,110.206,97.432,110.206,94.425L110.206,92.417C110.673,92.548,111.162,92.622,111.669,92.622L118.078,92.622C121.085,92.622,123.531,90.176,123.531,87.169L123.531,77.218L132.986,77.218C134.088,77.218,134.981,76.325,134.981,75.223L134.981,59.758C134.981,58.656,134.088,57.763,132.986,57.763ZM11.45,73.228L3.99,73.228L3.99,61.753L11.45,61.753L11.45,73.228ZM24.775,87.17C24.775,87.976,24.119,88.633,23.312,88.633L16.903,88.633C16.097,88.633,15.44,87.976,15.44,87.17L15.44,75.223L15.44,59.758L15.44,47.811C15.44,47.004,16.097,46.348,16.903,46.348L23.312,46.348C24.119,46.348,24.775,47.004,24.775,47.811L24.775,87.17ZM42.277,59.758L42.277,75.223L42.277,94.425C42.277,95.231,41.621,95.888,40.814,95.888L30.227,95.888C29.421,95.888,28.765,95.231,28.765,94.425L28.765,87.169L28.765,47.811L28.765,40.556C28.765,39.749,29.421,39.093,30.227,39.093L40.814,39.093C41.621,39.093,42.277,39.749,42.277,40.556L42.277,59.758ZM88.713,73.228L46.267,73.228L46.267,61.753L88.713,61.753L88.713,73.228ZM106.216,47.811L106.216,87.169L106.216,94.425C106.216,95.232,105.559,95.888,104.753,95.888L94.166,95.888C93.36,95.888,92.703,95.232,92.703,94.425L92.703,75.223L92.703,59.758L92.703,40.556C92.703,39.75,93.36,39.093,94.166,39.093L104.753,39.093C105.559,39.093,106.216,39.75,106.216,40.556L106.216,47.811ZM119.541,59.758L119.541,75.223L119.541,87.17C119.541,87.976,118.884,88.633,118.078,88.633L111.669,88.633C110.862,88.633,110.206,87.976,110.206,87.17L110.206,47.811C110.206,47.004,110.862,46.348,111.669,46.348L118.078,46.348C118.884,46.348,119.541,47.004,119.541,47.811L119.541,59.758ZM130.99,73.228L123.531,73.228L123.531,61.753L130.99,61.753L130.99,73.228ZM130.99,73.228"/>
</g>
  <g id="Medium-M" transform="matrix(1.0,0.0,0.0,1.0,1680.349615960249,1023.279635491499)">  <path stroke-linecap="butt" stroke="none" version="1.1" fill-opacity="1" xml:space="preserve" stroke-miterlimit="4" fill-rule="nonzero" fill="#000000" stroke-opacity="1" stroke-linejoin="miter" stroke-width="1px" xmlns:xlink="http://www.w3.org/1999/xlink" y="0px" x="0px" stroke-dasharray="none" d="M132.986,57.763L123.531,57.763L123.531,47.811C123.531,44.805,121.085,42.358,118.078,42.358L111.669,42.358C111.161,42.358,110.672,42.433,110.206,42.563L110.206,40.556C110.206,37.549,107.76,35.103,104.753,35.103L94.166,35.103C91.159,35.103,88.713,37.549,88.713,40.556L88.713,57.763L46.267,57.763L46.267,40.556C46.267,37.549,43.821,35.103,40.814,35.103L30.227,35.103C27.221,35.103,24.774,37.549,24.774,40.556L24.774,42.563C24.308,42.433,23.819,42.358,23.312,42.358L16.903,42.358C13.896,42.358,11.45,44.804,11.45,47.811L11.45,57.763L1.995,57.763C0.893,57.763,0,58.656,0,59.758L0,75.223C0,76.325,0.893,77.218,1.995,77.218L11.45,77.218L11.45,87.169C11.45,90.176,13.896,92.622,16.903,92.622L23.312,92.622C23.819,92.622,24.309,92.547,24.775,92.417L24.775,94.425C24.775,97.431,27.221,99.878,30.228,99.878L40.815,99.878C43.821,99.878,46.268,97.431,46.268,94.425L46.268,77.218L88.713,77.218L88.713,94.425C88.713,97.431,91.16,99.878,94.166,99.878L104.753,99.878C107.76,99.878,110.206,97.432,110.206,94.425L110.206,92.417C110.673,92.548,111.162,92.622,111.669,92.622L118.078,92.622C121.085,92.622,123.531,90.176,123.531,87.169L123.531,77.218L132.986,77.218C134.088,77.218,134.981,76.325,134.981,75.223L134.981,59.758C134.981,58.656,134.088,57.763,132.986,57.763ZM11.45,73.228L3.99,73.228L3.99,61.753L11.45,61.753L11.45,73.228ZM24.775,87.17C24.775,87.976,24.119,88.633,23.312,88.633L16.903,88.633C16.097,88.633,15.44,87.976,15.44,87.17L15.44,75.223L15.44,59.758L15.44,47.811C15.44,47.004,16.097,46.348,16.903,46.348L23.312,46.348C24.119,46.348,24.775,47.004,24.775,47.811L24.775,87.17ZM42.277,59.758L42.277,75.223L42.277,94.425C42.277,95.231,41.621,95.888,40.814,95.888L30.227,95.888C29.421,95.888,28.765,95.231,28.765,94.425L28.765,87.169L28.765,47.811L28.765,40.556C28.765,39.749,29.421,39.093,30.227,39.093L40.814,39.093C41.621,39.093,42.277,39.749,42.277,40.556L42.277,59.758ZM88.713,73.228L46.267,73.228L46.267,61.753L88.713,61.753L88.713,73.228ZM106.216,47.811L106.216,87.169L106.216,94.425C106.216,95.232,105.559,95.888,104.753,95.888L94.166,95.888C93.36,95.888,92.703,95.232,92.703,94.425L92.703,75.223L92.703,59.758L92.703,40.556C92.703,39.75,93.36,39.093,94.166,39.093L104.753,39.093C105.559,39.093,106.216,39.75,106.216,40.556L106.216,47.811ZM119.541,59.758L119.541,75.223L119.541,87.17C119.541,87.976,118.884,88.633,118.078,88.633L111.669,88.633C110.862,88.633,110.206,87.976,110.206,87.17L110.206,47.811C110.206,47.004,110.862,46.348,111.669,46.348L118.078,46.348C118.884,46.348,119.541,47.004,119.541,47.811L119.541,59.758ZM130.99,73.228L123.531,73.228L123.531,61.753L130.99,61.753L130.99,73.228ZM130.99,73.228"/>
</g>
  <g id="Regular-M" transform="matrix(1.0,0.0,0.0,1.0,1383.6396159602489,1023.279635491499)">  <path stroke-miterlimit="4" stroke-linejoin="miter" fill-opacity="1" stroke-dasharray="none" y="0px" xmlns:xlink="http://www.w3.org/1999/xlink" stroke-opacity="1" stroke-width="1px" stroke-linecap="butt" xml:space="preserve" stroke="none" x="0px" fill-rule="nonzero" fill="#000000" version="1.1" d="M132.986,57.763L123.531,57.763L123.531,47.811C123.531,44.805,121.085,42.358,118.078,42.358L111.669,42.358C111.161,42.358,110.672,42.433,110.206,42.563L110.206,40.556C110.206,37.549,107.76,35.103,104.753,35.103L94.166,35.103C91.159,35.103,88.713,37.549,88.713,40.556L88.713,57.763L46.267,57.763L46.267,40.556C46.267,37.549,43.821,35.103,40.814,35.103L30.227,35.103C27.221,35.103,24.774,37.549,24.774,40.556L24.774,42.563C24.308,42.433,23.819,42.358,23.312,42.358L16.903,42.358C13.896,42.358,11.45,44.804,11.45,47.811L11.45,57.763L1.995,57.763C0.893,57.763,0,58.656,0,59.758L0,75.223C0,76.325,0.893,77.218,1.995,77.218L11.45,77.218L11.45,87.169C11.45,90.176,13.896,92.622,16.903,92.622L23.312,92.622C23.819,92.622,24.309,92.547,24.775,92.417L24.775,94.425C24.775,97.431,27.221,99.878,30.228,99.878L40.815,99.878C43.821,99.878,46.268,97.431,46.268,94.425L46.268,77.218L88.713,77.218L88.713,94.425C88.713,97.431,91.16,99.878,94.166,99.878L104.753,99.878C107.76,99.878,110.206,97.432,110.206,94.425L110.206,92.417C110.673,92.548,111.162,92.622,111.669,92.622L118.078,92.622C121.085,92.622,123.531,90.176,123.531,87.169L123.531,77.218L132.986,77.218C134.088,77.218,134.981,76.325,134.981,75.223L134.981,59.758C134.981,58.656,134.088,57.763,132.986,57.763ZM11.45,73.228L3.99,73.228L3.99,61.753L11.45,61.753L11.45,73.228ZM24.775,87.17C24.775,87.976,24.119,88.633,23.312,88.633L16.903,88.633C16.097,88.633,15.44,87.976,15.44,87.17L15.44,75.223L15.44,59.758L15.44,47.811C15.44,47.004,16.097,46.348,16.903,46.348L23.312,46.348C24.119,46.348,24.775,47.004,24.775,47.811L24.775,87.17ZM42.277,59.758L42.277,75.223L42.277,94.425C42.277,95.231,41.621,95.888,40.814,95.888L30.227,95.888C29.421,95.888,28.765,95.231,28.765,94.425L28.765,87.169L28.765,47.811L28.765,40.556C28.765,39.749,29.421,39.093,30.227,39.093L40.814,39.093C41.621,39.093,42.277,39.749,42.277,40.556L42.277,59.758ZM88.713,73.228L46.267,73.228L46.267,61.753L88.713,61.753L88.713,73.228ZM106.216,47.811L106.216,87.169L106.216,94.425C106.216,95.232,105.559,95.888,104.753,95.888L94.166,95.888C93.36,95.888,92.703,95.232,92.703,94.425L92.703,75.223L92.703,59.758L92.703,40.556C92.703,39.75,93.36,39.093,94.166,39.093L104.753,39.093C105.559,39.093,106.216,39.75,106.216,40.556L106.216,47.811ZM119.541,59.758L119.541,75.223L119.541,87.17C119.541,87.976,118.884,88.633,118.078,88.633L111.669,88.633C110.862,88.633,110.206,87.976,110.206,87.17L110.206,47.811C110.206,47.004,110.862,46.348,111.669,46.348L118.078,46.348C118.884,46.348,119.541,47.004,119.541,47.811L119.541,59.758ZM130.99,73.228L123.531,73.228L123.531,61.753L130.99,61.753L130.99,73.228ZM130.99,73.228"/>
</g>
  <g id="Light-M" transform="matrix(1.0,0.0,0.0,1.0,1086.929615960249,1023.279635491499)">  <path version="1.1" stroke-linejoin="miter" y="0px" xmlns:xlink="http://www.w3.org/1999/xlink" stroke-width="1px" fill="#000000" stroke-linecap="butt" fill-rule="nonzero" stroke="none" stroke-dasharray="none" fill-opacity="1" x="0px" xml:space="preserve" stroke-opacity="1" stroke-miterlimit="4" d="M132.986,57.763L123.531,57.763L123.531,47.811C123.531,44.805,121.085,42.358,118.078,42.358L111.669,42.358C111.161,42.358,110.672,42.433,110.206,42.563L110.206,40.556C110.206,37.549,107.76,35.103,104.753,35.103L94.166,35.103C91.159,35.103,88.713,37.549,88.713,40.556L88.713,57.763L46.267,57.763L46.267,40.556C46.267,37.549,43.821,35.103,40.814,35.103L30.227,35.103C27.221,35.103,24.774,37.549,24.774,40.556L24.774,42.563C24.308,42.433,23.819,42.358,23.312,42.358L16.903,42.358C13.896,42.358,11.45,44.804,11.45,47.811L11.45,57.763L1.995,57.763C0.893,57.763,0,58.656,0,59.758L0,75.223C0,76.325,0.893,77.218,1.995,77.218L11.45,77.218L11.45,87.169C11.45,90.176,13.896,92.622,16.903,92.622L23.312,92.622C23.819,92.622,24.309,92.547,24.775,92.417L24.775,94.425C24.775,97.431,27.221,99.878,30.228,99.878L40.815,99.878C43.821,99.878,46.268,97.431,46.268,94.425L46.268,77.218L88.713,77.218L88.713,94.425C88.713,97.431,91.16,99.878,94.166,99.878L104.753,99.878C107.76,99.878,110.206,97.432,110.206,94.425L110.206,92.417C110.673,92.548,111.162,92.622,111.669,92.622L118.078,92.622C121.085,92.622,123.531,90.176,123.531,87.169L123.531,77.218L132.986,77.218C134.088,77.218,134.981,76.325,134.981,75.223L134.981,59.758C134.981,58.656,134.088,57.763,132.986,57.763ZM11.45,73.228L3.99,73.228L3.99,61.753L11.45,61.753L11.45,73.228ZM24.775,87.17C24.775,87.976,24.119,88.633,23.312,88.633L16.903,88.633C16.097,88.633,15.44,87.976,15.44,87.17L15.44,75.223L15.44,59.758L15.44,47.811C15.44,47.004,16.097,46.348,16.903,46.348L23.312,46.348C24.119,46.348,24.775,47.004,24.775,47.811L24.775,87.17ZM42.277,59.758L42.277,75.223L42.277,94.425C42.277,95.231,41.621,95.888,40.814,95.888L30.227,95.888C29.421,95.888,28.765,95.231,28.765,94.425L28.765,87.169L28.765,47.811L28.765,40.556C28.765,39.749,29.421,39.093,30.227,39.093L40.814,39.093C41.621,39.093,42.277,39.749,42.277,40.556L42.277,59.758ZM88.713,73.228L46.267,73.228L46.267,61.753L88.713,61.753L88.713,73.228ZM106.216,47.811L106.216,87.169L106.216,94.425C106.216,95.232,105.559,95.888,104.753,95.888L94.166,95.888C93.36,95.888,92.703,95.232,92.703,94.425L92.703,75.223L92.703,59.758L92.703,40.556C92.703,39.75,93.36,39.093,94.166,39.093L104.753,39.093C105.559,39.093,106.216,39.75,106.216,40.556L106.216,47.811ZM119.541,59.758L119.541,75.223L119.541,87.17C119.541,87.976,118.884,88.633,118.078,88.633L111.669,88.633C110.862,88.633,110.206,87.976,110.206,87.17L110.206,47.811C110.206,47.004,110.862,46.348,111.669,46.348L118.078,46.348C118.884,46.348,119.541,47.004,119.541,47.811L119.541,59.758ZM130.99,73.228L123.531,73.228L123.531,61.753L130.99,61.753L130.99,73.228ZM130.99,73.228"/>
</g>
  <g id="Thin-M" transform="matrix(1.0,0.0,0.0,1.0,790.219615960249,1023.279635491499)">  <path stroke-linecap="butt" fill="#000000" xmlns:xlink="http://www.w3.org/1999/xlink" stroke-miterlimit="4" stroke="none" stroke-opacity="1" fill-opacity="1" xml:space="preserve" version="1.1" x="0px" fill-rule="nonzero" stroke-dasharray="none" y="0px" stroke-width="1px" stroke-linejoin="miter" d="M132.986,57.763L123.531,57.763L123.531,47.811C123.531,44.805,121.085,42.358,118.078,42.358L111.669,42.358C111.161,42.358,110.672,42.433,110.206,42.563L110.206,40.556C110.206,37.549,107.76,35.103,104.753,35.103L94.166,35.103C91.159,35.103,88.713,37.549,88.713,40.556L88.713,57.763L46.267,57.763L46.267,40.556C46.267,37.549,43.821,35.103,40.814,35.103L30.227,35.103C27.221,35.103,24.774,37.549,24.774,40.556L24.774,42.563C24.308,42.433,23.819,42.358,23.312,42.358L16.903,42.358C13.896,42.358,11.45,44.804,11.45,47.811L11.45,57.763L1.995,57.763C0.893,57.763,0,58.656,0,59.758L0,75.223C0,76.325,0.893,77.218,1.995,77.218L11.45,77.218L11.45,87.169C11.45,90.176,13.896,92.622,16.903,92.622L23.312,92.622C23.819,92.622,24.309,92.547,24.775,92.417L24.775,94.425C24.775,97.431,27.221,99.878,30.228,99.878L40.815,99.878C43.821,99.878,46.268,97.431,46.268,94.425L46.268,77.218L88.713,77.218L88.713,94.425C88.713,97.431,91.16,99.878,94.166,99.878L104.753,99.878C107.76,99.878,110.206,97.432,110.206,94.425L110.206,92.417C110.673,92.548,111.162,92.622,111.669,92.622L118.078,92.622C121.085,92.622,123.531,90.176,123.531,87.169L123.531,77.218L132.986,77.218C134.088,77.218,134.981,76.325,134.981,75.223L134.981,59.758C134.981,58.656,134.088,57.763,132.986,57.763ZM11.45,73.228L3.99,73.228L3.99,61.753L11.45,61.753L11.45,73.228ZM24.775,87.17C24.775,87.976,24.119,88.633,23.312,88.633L16.903,88.633C16.097,88.633,15.44,87.976,15.44,87.17L15.44,75.223L15.44,59.758L15.44,47.811C15.44,47.004,16.097,46.348,16.903,46.348L23.312,46.348C24.119,46.348,24.775,47.004,24.775,47.811L24.775,87.17ZM42.277,59.758L42.277,75.223L42.277,94.425C42.277,95.231,41.621,95.888,40.814,95.888L30.227,95.888C29.421,95.888,28.765,95.231,28.765,94.425L28.765,87.169L28.765,47.811L28.765,40.556C28.765,39.749,29.421,39.093,30.227,39.093L40.814,39.093C41.621,39.093,42.277,39.749,42.277,40.556L42.277,59.758ZM88.713,73.228L46.267,73.228L46.267,61.753L88.713,61.753L88.713,73.228ZM106.216,47.811L106.216,87.169L106.216,94.425C106.216,95.232,105.559,95.888,104.753,95.888L94.166,95.888C93.36,95.888,92.703,95.232,92.703,94.425L92.703,75.223L92.703,59.758L92.703,40.556C92.703,39.75,93.36,39.093,94.166,39.093L104.753,39.093C105.559,39.093,106.216,39.75,106.216,40.556L106.216,47.811ZM119.541,59.758L119.541,75.223L119.541,87.17C119.541,87.976,118.884,88.633,118.078,88.633L111.669,88.633C110.862,88.633,110.206,87.976,110.206,87.17L110.206,47.811C110.206,47.004,110.862,46.348,111.669,46.348L118.078,46.348C118.884,46.348,119.541,47.004,119.541,47.811L119.541,59.758ZM130.99,73.228L123.531,73.228L123.531,61.753L130.99,61.753L130.99,73.228ZM130.99,73.228"/>
</g>
  <g id="Ultralight-M" transform="matrix(1.0,0.0,0.0,1.0,493.50961596024905,1023.279635491499)">  <path stroke-dasharray="none" fill="#000000" x="0px" fill-rule="nonzero" stroke-miterlimit="4" stroke-width="1px" y="0px" stroke-linecap="butt" xmlns:xlink="http://www.w3.org/1999/xlink" version="1.1" stroke-linejoin="miter" stroke="none" xml:space="preserve" fill-opacity="1" stroke-opacity="1" d="M132.986,57.763L123.531,57.763L123.531,47.811C123.531,44.805,121.085,42.358,118.078,42.358L111.669,42.358C111.161,42.358,110.672,42.433,110.206,42.563L110.206,40.556C110.206,37.549,107.76,35.103,104.753,35.103L94.166,35.103C91.159,35.103,88.713,37.549,88.713,40.556L88.713,57.763L46.267,57.763L46.267,40.556C46.267,37.549,43.821,35.103,40.814,35.103L30.227,35.103C27.221,35.103,24.774,37.549,24.774,40.556L24.774,42.563C24.308,42.433,23.819,42.358,23.312,42.358L16.903,42.358C13.896,42.358,11.45,44.804,11.45,47.811L11.45,57.763L1.995,57.763C0.893,57.763,0,58.656,0,59.758L0,75.223C0,76.325,0.893,77.218,1.995,77.218L11.45,77.218L11.45,87.169C11.45,90.176,13.896,92.622,16.903,92.622L23.312,92.622C23.819,92.622,24.309,92.547,24.775,92.417L24.775,94.425C24.775,97.431,27.221,99.878,30.228,99.878L40.815,99.878C43.821,99.878,46.268,97.431,46.268,94.425L46.268,77.218L88.713,77.218L88.713,94.425C88.713,97.431,91.16,99.878,94.166,99.878L104.753,99.878C107.76,99.878,110.206,97.432,110.206,94.425L110.206,92.417C110.673,92.548,111.162,92.622,111.669,92.622L118.078,92.622C121.085,92.622,123.531,90.176,123.531,87.169L123.531,77.218L132.986,77.218C134.088,77.218,134.981,76.325,134.981,75.223L134.981,59.758C134.981,58.656,134.088,57.763,132.986,57.763ZM11.45,73.228L3.99,73.228L3.99,61.753L11.45,61.753L11.45,73.228ZM24.775,87.17C24.775,87.976,24.119,88.633,23.312,88.633L16.903,88.633C16.097,88.633,15.44,87.976,15.44,87.17L15.44,75.223L15.44,59.758L15.44,47.811C15.44,47.004,16.097,46.348,16.903,46.348L23.312,46.348C24.119,46.348,24.775,47.004,24.775,47.811L24.775,87.17ZM42.277,59.758L42.277,75.223L42.277,94.425C42.277,95.231,41.621,95.888,40.814,95.888L30.227,95.888C29.421,95.888,28.765,95.231,28.765,94.425L28.765,87.169L28.765,47.811L28.765,40.556C28.765,39.749,29.421,39.093,30.227,39.093L40.814,39.093C41.621,39.093,42.277,39.749,42.277,40.556L42.277,59.758ZM88.713,73.228L46.267,73.228L46.267,61.753L88.713,61.753L88.713,73.228ZM106.216,47.811L106.216,87.169L106.216,94.425C106.216,95.232,105.559,95.888,104.753,95.888L94.166,95.888C93.36,95.888,92.703,95.232,92.703,94.425L92.703,75.223L92.703,59.758L92.703,40.556C92.703,39.75,93.36,39.093,94.166,39.093L104.753,39.093C105.559,39.093,106.216,39.75,106.216,40.556L106.216,47.811ZM119.541,59.758L119.541,75.223L119.541,87.17C119.541,87.976,118.884,88.633,118.078,88.633L111.669,88.633C110.862,88.633,110.206,87.976,110.206,87.17L110.206,47.811C110.206,47.004,110.862,46.348,111.669,46.348L118.078,46.348C118.884,46.348,119.541,47.004,119.541,47.811L119.541,59.758ZM130.99,73.228L123.531,73.228L123.531,61.753L130.99,61.753L130.99,73.228ZM130.99,73.228"/>
</g>
  <g id="Black-S" transform="matrix(1.0,0.0,0.0,1.0,2881.835029296875,607.925048828125)">  <path y="0px" stroke-opacity="1" stroke-width="1px" stroke-linejoin="miter" stroke-dasharray="none" xml:space="preserve" fill="#000000" fill-rule="nonzero" stroke="none" x="0px" stroke-miterlimit="4" xmlns:xlink="http://www.w3.org/1999/xlink" fill-opacity="1" version="1.1" stroke-linecap="butt" d="M104.128,45.228L96.724,45.228L96.724,37.436C96.724,35.082,94.809,33.167,92.455,33.167L87.437,33.167C87.039,33.167,86.656,33.225,86.291,33.327L86.291,31.755C86.291,29.401,84.376,27.486,82.021,27.486L73.732,27.486C71.378,27.486,69.462,29.401,69.462,31.755L69.462,45.228L36.227,45.228L36.227,31.755C36.227,29.401,34.312,27.486,31.958,27.486L23.668,27.486C21.314,27.486,19.398,29.401,19.398,31.755L19.398,33.327C19.033,33.225,18.65,33.167,18.253,33.167L13.235,33.167C10.881,33.167,8.965,35.082,8.965,37.436L8.965,45.228L1.562,45.228C0.699,45.228,0,45.928,0,46.79L0,58.9C0,59.762,0.699,60.462,1.562,60.462L8.965,60.462L8.965,68.254C8.965,70.608,10.881,72.523,13.235,72.523L18.253,72.523C18.65,72.523,19.034,72.465,19.399,72.363L19.399,73.935C19.399,76.289,21.314,78.204,23.668,78.204L31.958,78.204C34.312,78.204,36.228,76.289,36.228,73.935L36.228,60.462L69.463,60.462L69.463,73.935C69.463,76.289,71.378,78.204,73.732,78.204L82.022,78.204C84.376,78.204,86.292,76.289,86.292,73.935L86.292,72.363C86.657,72.465,87.04,72.523,87.437,72.523L92.455,72.523C94.809,72.523,96.725,70.608,96.725,68.254L96.725,60.462L104.128,60.462C104.991,60.462,105.69,59.762,105.69,58.9L105.69,46.79C105.69,45.928,104.991,45.228,104.128,45.228ZM8.965,57.338L3.124,57.338L3.124,48.352L8.965,48.352L8.965,57.338ZM19.399,68.254C19.399,68.885,18.885,69.399,18.253,69.399L13.235,69.399C12.604,69.399,12.09,68.886,12.09,68.254L12.09,58.9L12.09,46.79L12.09,37.436C12.09,36.804,12.604,36.291,13.235,36.291L18.253,36.291C18.885,36.291,19.399,36.804,19.399,37.436L19.399,68.254ZM33.103,46.79L33.103,58.9L33.103,73.935C33.103,74.566,32.589,75.08,31.958,75.08L23.668,75.08C23.037,75.08,22.523,74.566,22.523,73.935L22.523,68.254L22.523,37.436L22.523,31.755C22.523,31.124,23.037,30.61,23.668,30.61L31.958,30.61C32.589,30.61,33.103,31.124,33.103,31.755L33.103,46.79ZM69.462,57.338L36.227,57.338L36.227,48.352L69.462,48.352L69.462,57.338ZM83.167,37.436L83.167,68.254L83.167,73.935C83.167,74.566,82.653,75.08,82.022,75.08L73.732,75.08C73.101,75.08,72.587,74.566,72.587,73.935L72.587,58.9L72.587,46.79L72.587,31.756C72.587,31.124,73.101,30.61,73.732,30.61L82.022,30.61C82.653,30.61,83.167,31.124,83.167,31.756L83.167,37.436ZM93.6,46.79L93.6,58.9L93.6,68.254C93.6,68.886,93.086,69.399,92.455,69.399L87.437,69.399C86.805,69.399,86.291,68.886,86.291,68.254L86.291,37.436C86.291,36.804,86.805,36.291,87.437,36.291L92.455,36.291C93.086,36.291,93.6,36.804,93.6,37.436L93.6,46.79ZM102.565,57.338L96.724,57.338L96.724,48.352L102.565,48.352L102.565,57.338ZM102.565,57.338"/>
</g>
  <g id="Heavy-S" transform="matrix(1.0,0.0,0.0,1.0,2585.125029296875,607.925048828125)">  <path stroke-linecap="butt" version="1.1" stroke-width="1px" fill="#000000" y="0px" stroke-dasharray="none" stroke-opacity="1" stroke-linejoin="miter" x="0px" stroke="none" stroke-miterlimit="4" xmlns:xlink="http://www.w3.org/1999/xlink" xml:space="preserve" fill-rule="nonzero" fill-opacity="1" d="M104.128,45.228L96.724,45.228L96.724,37.436C96.724,35.082,94.809,33.167,92.455,33.167L87.437,33.167C87.039,33.167,86.656,33.225,86.291,33.327L86.291,31.755C86.291,29.401,84.376,27.486,82.021,27.486L73.732,27.486C71.378,27.486,69.462,29.401,69.462,31.755L69.462,45.228L36.227,45.228L36.227,31.755C36.227,29.401,34.312,27.486,31.958,27.486L23.668,27.486C21.314,27.486,19.398,29.401,19.398,31.755L19.398,33.327C19.033,33.225,18.65,33.167,18.253,33.167L13.235,33.167C10.881,33.167,8.965,35.082,8.965,37.436L8.965,45.228L1.562,45.228C0.699,45.228,0,45.928,0,46.79L0,58.9C0,59.762,0.699,60.462,1.562,60.462L8.965,60.462L8.965,68.254C8.965,70.608,10.881,72.523,13.235,72.523L18.253,72.523C18.65,72.523,19.034,72.465,19.399,72.363L19.399,73.935C19.399,76.289,21.314,78.204,23.668,78.204L31.958,78.204C34.312,78.204,36.228,76.289,36.228,73.935L36.228,60.462L69.463,60.462L69.463,73.935C69.463,76.289,71.378,78.204,73.732,78.204L82.022,78.204C84.376,78.204,86.292,76.289,86.292,73.935L86.292,72.363C86.657,72.465,87.04,72.523,87.437,72.523L92.455,72.523C94.809,72.523,96.725,70.608,96.725,68.254L96.725,60.462L104.128,60.462C104.991,60.462,105.69,59.762,105.69,58.9L105.69,46.79C105.69,45.928,104.991,45.228,104.128,45.228ZM8.965,57.338L3.124,57.338L3.124,48.352L8.965,48.352L8.965,57.338ZM19.399,68.254C19.399,68.885,18.885,69.399,18.253,69.399L13.235,69.399C12.604,69.399,12.09,68.886,12.09,68.254L12.09,58.9L12.09,46.79L12.09,37.436C12.09,36.804,12.604,36.291,13.235,36.291L18.253,36.291C18.885,36.291,19.399,36.804,19.399,37.436L19.399,68.254ZM33.103,46.79L33.103,58.9L33.103,73.935C33.103,74.566,32.589,75.08,31.958,75.08L23.668,75.08C23.037,75.08,22.523,74.566,22.523,73.935L22.523,68.254L22.523,37.436L22.523,31.755C22.523,31.124,23.037,30.61,23.668,30.61L31.958,30.61C32.589,30.61,33.103,31.124,33.103,31.755L33.103,46.79ZM69.462,57.338L36.227,57.338L36.227,48.352L69.462,48.352L69.462,57.338ZM83.167,37.436L83.167,68.254L83.167,73.935C83.167,74.566,82.653,75.08,82.022,75.08L73.732,75.08C73.101,75.08,72.587,74.566,72.587,73.935L72.587,58.9L72.587,46.79L72.587,31.756C72.587,31.124,73.101,30.61,73.732,30.61L82.022,30.61C82.653,30.61,83.167,31.124,83.167,31.756L83.167,37.436ZM93.6,46.79L93.6,58.9L93.6,68.254C93.6,68.886,93.086,69.399,92.455,69.399L87.437,69.399C86.805,69.399,86.291,68.886,86.291,68.254L86.291,37.436C86.291,36.804,86.805,36.291,87.437,36.291L92.455,36.291C93.086,36.291,93.6,36.804,93.6,37.436L93.6,46.79ZM102.565,57.338L96.724,57.338L96.724,48.352L102.565,48.352L102.565,57.338ZM102.565,57.338"/>
</g>
  <g id="Bold-S" transform="matrix(1.0,0.0,0.0,1.0,2288.4150292968748,607.925048828125)">  <path version="1.1" fill-opacity="1" fill="#000000" stroke="none" stroke-miterlimit="4" stroke-width="1px" stroke-linecap="butt" stroke-opacity="1" x="0px" xml:space="preserve" fill-rule="nonzero" stroke-dasharray="none" stroke-linejoin="miter" xmlns:xlink="http://www.w3.org/1999/xlink" y="0px" d="M104.128,45.228L96.724,45.228L96.724,37.436C96.724,35.082,94.809,33.167,92.455,33.167L87.437,33.167C87.039,33.167,86.656,33.225,86.291,33.327L86.291,31.755C86.291,29.401,84.376,27.486,82.021,27.486L73.732,27.486C71.378,27.486,69.462,29.401,69.462,31.755L69.462,45.228L36.227,45.228L36.227,31.755C36.227,29.401,34.312,27.486,31.958,27.486L23.668,27.486C21.314,27.486,19.398,29.401,19.398,31.755L19.398,33.327C19.033,33.225,18.65,33.167,18.253,33.167L13.235,33.167C10.881,33.167,8.965,35.082,8.965,37.436L8.965,45.228L1.562,45.228C0.699,45.228,0,45.928,0,46.79L0,58.9C0,59.762,0.699,60.462,1.562,60.462L8.965,60.462L8.965,68.254C8.965,70.608,10.881,72.523,13.235,72.523L18.253,72.523C18.65,72.523,19.034,72.465,19.399,72.363L19.399,73.935C19.399,76.289,21.314,78.204,23.668,78.204L31.958,78.204C34.312,78.204,36.228,76.289,36.228,73.935L36.228,60.462L69.463,60.462L69.463,73.935C69.463,76.289,71.378,78.204,73.732,78.204L82.022,78.204C84.376,78.204,86.292,76.289,86.292,73.935L86.292,72.363C86.657,72.465,87.04,72.523,87.437,72.523L92.455,72.523C94.809,72.523,96.725,70.608,96.725,68.254L96.725,60.462L104.128,60.462C104.991,60.462,105.69,59.762,105.69,58.9L105.69,46.79C105.69,45.928,104.991,45.228,104.128,45.228ZM8.965,57.338L3.124,57.338L3.124,48.352L8.965,48.352L8.965,57.338ZM19.399,68.254C19.399,68.885,18.885,69.399,18.253,69.399L13.235,69.399C12.604,69.399,12.09,68.886,12.09,68.254L12.09,58.9L12.09,46.79L12.09,37.436C12.09,36.804,12.604,36.291,13.235,36.291L18.253,36.291C18.885,36.291,19.399,36.804,19.399,37.436L19.399,68.254ZM33.103,46.79L33.103,58.9L33.103,73.935C33.103,74.566,32.589,75.08,31.958,75.08L23.668,75.08C23.037,75.08,22.523,74.566,22.523,73.935L22.523,68.254L22.523,37.436L22.523,31.755C22.523,31.124,23.037,30.61,23.668,30.61L31.958,30.61C32.589,30.61,33.103,31.124,33.103,31.755L33.103,46.79ZM69.462,57.338L36.227,57.338L36.227,48.352L69.462,48.352L69.462,57.338ZM83.167,37.436L83.167,68.254L83.167,73.935C83.167,74.566,82.653,75.08,82.022,75.08L73.732,75.08C73.101,75.08,72.587,74.566,72.587,73.935L72.587,58.9L72.587,46.79L72.587,31.756C72.587,31.124,73.101,30.61,73.732,30.61L82.022,30.61C82.653,30.61,83.167,31.124,83.167,31.756L83.167,37.436ZM93.6,46.79L93.6,58.9L93.6,68.254C93.6,68.886,93.086,69.399,92.455,69.399L87.437,69.399C86.805,69.399,86.291,68.886,86.291,68.254L86.291,37.436C86.291,36.804,86.805,36.291,87.437,36.291L92.455,36.291C93.086,36.291,93.6,36.804,93.6,37.436L93.6,46.79ZM102.565,57.338L96.724,57.338L96.724,48.352L102.565,48.352L102.565,57.338ZM102.565,57.338"/>
</g>
  <g id="Semibold-S" transform="matrix(1.0,0.0,0.0,1.0,1991.705029296875,607.925048828125)">  <path xml:space="preserve" version="1.1" stroke-width="1px" stroke-linejoin="miter" fill="#000000" fill-rule="nonzero" x="0px" stroke="none" y="0px" stroke-dasharray="none" fill-opacity="1" stroke-miterlimit="4" xmlns:xlink="http://www.w3.org/1999/xlink" stroke-opacity="1" stroke-linecap="butt" d="M104.128,45.228L96.724,45.228L96.724,37.436C96.724,35.082,94.809,33.167,92.455,33.167L87.437,33.167C87.039,33.167,86.656,33.225,86.291,33.327L86.291,31.755C86.291,29.401,84.376,27.486,82.021,27.486L73.732,27.486C71.378,27.486,69.462,29.401,69.462,31.755L69.462,45.228L36.227,45.228L36.227,31.755C36.227,29.401,34.312,27.486,31.958,27.486L23.668,27.486C21.314,27.486,19.398,29.401,19.398,31.755L19.398,33.327C19.033,33.225,18.65,33.167,18.253,33.167L13.235,33.167C10.881,33.167,8.965,35.082,8.965,37.436L8.965,45.228L1.562,45.228C0.699,45.228,0,45.928,0,46.79L0,58.9C0,59.762,0.699,60.462,1.562,60.462L8.965,60.462L8.965,68.254C8.965,70.608,10.881,72.523,13.235,72.523L18.253,72.523C18.65,72.523,19.034,72.465,19.399,72.363L19.399,73.935C19.399,76.289,21.314,78.204,23.668,78.204L31.958,78.204C34.312,78.204,36.228,76.289,36.228,73.935L36.228,60.462L69.463,60.462L69.463,73.935C69.463,76.289,71.378,78.204,73.732,78.204L82.022,78.204C84.376,78.204,86.292,76.289,86.292,73.935L86.292,72.363C86.657,72.465,87.04,72.523,87.437,72.523L92.455,72.523C94.809,72.523,96.725,70.608,96.725,68.254L96.725,60.462L104.128,60.462C104.991,60.462,105.69,59.762,105.69,58.9L105.69,46.79C105.69,45.928,104.991,45.228,104.128,45.228ZM8.965,57.338L3.124,57.338L3.124,48.352L8.965,48.352L8.965,57.338ZM19.399,68.254C19.399,68.885,18.885,69.399,18.253,69.399L13.235,69.399C12.604,69.399,12.09,68.886,12.09,68.254L12.09,58.9L12.09,46.79L12.09,37.436C12.09,36.804,12.604,36.291,13.235,36.291L18.253,36.291C18.885,36.291,19.399,36.804,19.399,37.436L19.399,68.254ZM33.103,46.79L33.103,58.9L33.103,73.935C33.103,74.566,32.589,75.08,31.958,75.08L23.668,75.08C23.037,75.08,22.523,74.566,22.523,73.935L22.523,68.254L22.523,37.436L22.523,31.755C22.523,31.124,23.037,30.61,23.668,30.61L31.958,30.61C32.589,30.61,33.103,31.124,33.103,31.755L33.103,46.79ZM69.462,57.338L36.227,57.338L36.227,48.352L69.462,48.352L69.462,57.338ZM83.167,37.436L83.167,68.254L83.167,73.935C83.167,74.566,82.653,75.08,82.022,75.08L73.732,75.08C73.101,75.08,72.587,74.566,72.587,73.935L72.587,58.9L72.587,46.79L72.587,31.756C72.587,31.124,73.101,30.61,73.732,30.61L82.022,30.61C82.653,30.61,83.167,31.124,83.167,31.756L83.167,37.436ZM93.6,46.79L93.6,58.9L93.6,68.254C93.6,68.886,93.086,69.399,92.455,69.399L87.437,69.399C86.805,69.399,86.291,68.886,86.291,68.254L86.291,37.436C86.291,36.804,86.805,36.291,87.437,36.291L92.455,36.291C93.086,36.291,93.6,36.804,93.6,37.436L93.6,46.79ZM102.565,57.338L96.724,57.338L96.724,48.352L102.565,48.352L102.565,57.338ZM102.565,57.338"/>
</g>
  <g id="Medium-S" transform="matrix(1.0,0.0,0.0,1.0,1694.995029296875,607.925048828125)">  <path stroke-linecap="butt" stroke="none" version="1.1" fill-opacity="1" xml:space="preserve" stroke-miterlimit="4" fill-rule="nonzero" fill="#000000" stroke-opacity="1" stroke-linejoin="miter" stroke-width="1px" xmlns:xlink="http://www.w3.org/1999/xlink" y="0px" x="0px" stroke-dasharray="none" d="M104.128,45.228L96.724,45.228L96.724,37.436C96.724,35.082,94.809,33.167,92.455,33.167L87.437,33.167C87.039,33.167,86.656,33.225,86.291,33.327L86.291,31.755C86.291,29.401,84.376,27.486,82.021,27.486L73.732,27.486C71.378,27.486,69.462,29.401,69.462,31.755L69.462,45.228L36.227,45.228L36.227,31.755C36.227,29.401,34.312,27.486,31.958,27.486L23.668,27.486C21.314,27.486,19.398,29.401,19.398,31.755L19.398,33.327C19.033,33.225,18.65,33.167,18.253,33.167L13.235,33.167C10.881,33.167,8.965,35.082,8.965,37.436L8.965,45.228L1.562,45.228C0.699,45.228,0,45.928,0,46.79L0,58.9C0,59.762,0.699,60.462,1.562,60.462L8.965,60.462L8.965,68.254C8.965,70.608,10.881,72.523,13.235,72.523L18.253,72.523C18.65,72.523,19.034,72.465,19.399,72.363L19.399,73.935C19.399,76.289,21.314,78.204,23.668,78.204L31.958,78.204C34.312,78.204,36.228,76.289,36.228,73.935L36.228,60.462L69.463,60.462L69.463,73.935C69.463,76.289,71.378,78.204,73.732,78.204L82.022,78.204C84.376,78.204,86.292,76.289,86.292,73.935L86.292,72.363C86.657,72.465,87.04,72.523,87.437,72.523L92.455,72.523C94.809,72.523,96.725,70.608,96.725,68.254L96.725,60.462L104.128,60.462C104.991,60.462,105.69,59.762,105.69,58.9L105.69,46.79C105.69,45.928,104.991,45.228,104.128,45.228ZM8.965,57.338L3.124,57.338L3.124,48.352L8.965,48.352L8.965,57.338ZM19.399,68.254C19.399,68.885,18.885,69.399,18.253,69.399L13.235,69.399C12.604,69.399,12.09,68.886,12.09,68.254L12.09,58.9L12.09,46.79L12.09,37.436C12.09,36.804,12.604,36.291,13.235,36.291L18.253,36.291C18.885,36.291,19.399,36.804,19.399,37.436L19.399,68.254ZM33.103,46.79L33.103,58.9L33.103,73.935C33.103,74.566,32.589,75.08,31.958,75.08L23.668,75.08C23.037,75.08,22.523,74.566,22.523,73.935L22.523,68.254L22.523,37.436L22.523,31.755C22.523,31.124,23.037,30.61,23.668,30.61L31.958,30.61C32.589,30.61,33.103,31.124,33.103,31.755L33.103,46.79ZM69.462,57.338L36.227,57.338L36.227,48.352L69.462,48.352L69.462,57.338ZM83.167,37.436L83.167,68.254L83.167,73.935C83.167,74.566,82.653,75.08,82.022,75.08L73.732,75.08C73.101,75.08,72.587,74.566,72.587,73.935L72.587,58.9L72.587,46.79L72.587,31.756C72.587,31.124,73.101,30.61,73.732,30.61L82.022,30.61C82.653,30.61,83.167,31.124,83.167,31.756L83.167,37.436ZM93.6,46.79L93.6,58.9L93.6,68.254C93.6,68.886,93.086,69.399,92.455,69.399L87.437,69.399C86.805,69.399,86.291,68.886,86.291,68.254L86.291,37.436C86.291,36.804,86.805,36.291,87.437,36.291L92.455,36.291C93.086,36.291,93.6,36.804,93.6,37.436L93.6,46.79ZM102.565,57.338L96.724,57.338L96.724,48.352L102.565,48.352L102.565,57.338ZM102.565,57.338"/>
</g>
  <g id="Regular-S" transform="matrix(1.0,0.0,0.0,1.0,1398.2850292968749,607.925048828125)">  <path stroke-miterlimit="4" stroke-linejoin="miter" fill-opacity="1" stroke-dasharray="none" y="0px" xmlns:xlink="http://www.w3.org/1999/xlink" stroke-opacity="1" stroke-width="1px" stroke-linecap="butt" xml:space="preserve" stroke="none" x="0px" fill-rule="nonzero" fill="#000000" version="1.1" d="M104.128,45.228L96.724,45.228L96.724,37.436C96.724,35.082,94.809,33.167,92.455,33.167L87.437,33.167C87.039,33.167,86.656,33.225,86.291,33.327L86.291,31.755C86.291,29.401,84.376,27.486,82.021,27.486L73.732,27.486C71.378,27.486,69.462,29.401,69.462,31.755L69.462,45.228L36.227,45.228L36.227,31.755C36.227,29.401,34.312,27.486,31.958,27.486L23.668,27.486C21.314,27.486,19.398,29.401,19.398,31.755L19.398,33.327C19.033,33.225,18.65,33.167,18.253,33.167L13.235,33.167C10.881,33.167,8.965,35.082,8.965,37.436L8.965,45.228L1.562,45.228C0.699,45.228,0,45.928,0,46.79L0,58.9C0,59.762,0.699,60.462,1.562,60.462L8.965,60.462L8.965,68.254C8.965,70.608,10.881,72.523,13.235,72.523L18.253,72.523C18.65,72.523,19.034,72.465,19.399,72.363L19.399,73.935C19.399,76.289,21.314,78.204,23.668,78.204L31.958,78.204C34.312,78.204,36.228,76.289,36.228,73.935L36.228,60.462L69.463,60.462L69.463,73.935C69.463,76.289,71.378,78.204,73.732,78.204L82.022,78.204C84.376,78.204,86.292,76.289,86.292,73.935L86.292,72.363C86.657,72.465,87.04,72.523,87.437,72.523L92.455,72.523C94.809,72.523,96.725,70.608,96.725,68.254L96.725,60.462L104.128,60.462C104.991,60.462,105.69,59.762,105.69,58.9L105.69,46.79C105.69,45.928,104.991,45.228,104.128,45.228ZM8.965,57.338L3.124,57.338L3.124,48.352L8.965,48.352L8.965,57.338ZM19.399,68.254C19.399,68.885,18.885,69.399,18.253,69.399L13.235,69.399C12.604,69.399,12.09,68.886,12.09,68.254L12.09,58.9L12.09,46.79L12.09,37.436C12.09,36.804,12.604,36.291,13.235,36.291L18.253,36.291C18.885,36.291,19.399,36.804,19.399,37.436L19.399,68.254ZM33.103,46.79L33.103,58.9L33.103,73.935C33.103,74.566,32.589,75.08,31.958,75.08L23.668,75.08C23.037,75.08,22.523,74.566,22.523,73.935L22.523,68.254L22.523,37.436L22.523,31.755C22.523,31.124,23.037,30.61,23.668,30.61L31.958,30.61C32.589,30.61,33.103,31.124,33.103,31.755L33.103,46.79ZM69.462,57.338L36.227,57.338L36.227,48.352L69.462,48.352L69.462,57.338ZM83.167,37.436L83.167,68.254L83.167,73.935C83.167,74.566,82.653,75.08,82.022,75.08L73.732,75.08C73.101,75.08,72.587,74.566,72.587,73.935L72.587,58.9L72.587,46.79L72.587,31.756C72.587,31.124,73.101,30.61,73.732,30.61L82.022,30.61C82.653,30.61,83.167,31.124,83.167,31.756L83.167,37.436ZM93.6,46.79L93.6,58.9L93.6,68.254C93.6,68.886,93.086,69.399,92.455,69.399L87.437,69.399C86.805,69.399,86.291,68.886,86.291,68.254L86.291,37.436C86.291,36.804,86.805,36.291,87.437,36.291L92.455,36.291C93.086,36.291,93.6,36.804,93.6,37.436L93.6,46.79ZM102.565,57.338L96.724,57.338L96.724,48.352L102.565,48.352L102.565,57.338ZM102.565,57.338"/>
</g>
  <g id="Light-S" transform="matrix(1.0,0.0,0.0,1.0,1101.575029296875,607.925048828125)">  <path version="1.1" stroke-linejoin="miter" y="0px" xmlns:xlink="http://www.w3.org/1999/xlink" stroke-width="1px" fill="#000000" stroke-linecap="butt" fill-rule="nonzero" stroke="none" stroke-dasharray="none" fill-opacity="1" x="0px" xml:space="preserve" stroke-opacity="1" stroke-miterlimit="4" d="M104.128,45.228L96.724,45.228L96.724,37.436C96.724,35.082,94.809,33.167,92.455,33.167L87.437,33.167C87.039,33.167,86.656,33.225,86.291,33.327L86.291,31.755C86.291,29.401,84.376,27.486,82.021,27.486L73.732,27.486C71.378,27.486,69.462,29.401,69.462,31.755L69.462,45.228L36.227,45.228L36.227,31.755C36.227,29.401,34.312,27.486,31.958,27.486L23.668,27.486C21.314,27.486,19.398,29.401,19.398,31.755L19.398,33.327C19.033,33.225,18.65,33.167,18.253,33.167L13.235,33.167C10.881,33.167,8.965,35.082,8.965,37.436L8.965,45.228L1.562,45.228C0.699,45.228,0,45.928,0,46.79L0,58.9C0,59.762,0.699,60.462,1.562,60.462L8.965,60.462L8.965,68.254C8.965,70.608,10.881,72.523,13.235,72.523L18.253,72.523C18.65,72.523,19.034,72.465,19.399,72.363L19.399,73.935C19.399,76.289,21.314,78.204,23.668,78.204L31.958,78.204C34.312,78.204,36.228,76.289,36.228,73.935L36.228,60.462L69.463,60.462L69.463,73.935C69.463,76.289,71.378,78.204,73.732,78.204L82.022,78.204C84.376,78.204,86.292,76.289,86.292,73.935L86.292,72.363C86.657,72.465,87.04,72.523,87.437,72.523L92.455,72.523C94.809,72.523,96.725,70.608,96.725,68.254L96.725,60.462L104.128,60.462C104.991,60.462,105.69,59.762,105.69,58.9L105.69,46.79C105.69,45.928,104.991,45.228,104.128,45.228ZM8.965,57.338L3.124,57.338L3.124,48.352L8.965,48.352L8.965,57.338ZM19.399,68.254C19.399,68.885,18.885,69.399,18.253,69.399L13.235,69.399C12.604,69.399,12.09,68.886,12.09,68.254L12.09,58.9L12.09,46.79L12.09,37.436C12.09,36.804,12.604,36.291,13.235,36.291L18.253,36.291C18.885,36.291,19.399,36.804,19.399,37.436L19.399,68.254ZM33.103,46.79L33.103,58.9L33.103,73.935C33.103,74.566,32.589,75.08,31.958,75.08L23.668,75.08C23.037,75.08,22.523,74.566,22.523,73.935L22.523,68.254L22.523,37.436L22.523,31.755C22.523,31.124,23.037,30.61,23.668,30.61L31.958,30.61C32.589,30.61,33.103,31.124,33.103,31.755L33.103,46.79ZM69.462,57.338L36.227,57.338L36.227,48.352L69.462,48.352L69.462,57.338ZM83.167,37.436L83.167,68.254L83.167,73.935C83.167,74.566,82.653,75.08,82.022,75.08L73.732,75.08C73.101,75.08,72.587,74.566,72.587,73.935L72.587,58.9L72.587,46.79L72.587,31.756C72.587,31.124,73.101,30.61,73.732,30.61L82.022,30.61C82.653,30.61,83.167,31.124,83.167,31.756L83.167,37.436ZM93.6,46.79L93.6,58.9L93.6,68.254C93.6,68.886,93.086,69.399,92.455,69.399L87.437,69.399C86.805,69.399,86.291,68.886,86.291,68.254L86.291,37.436C86.291,36.804,86.805,36.291,87.437,36.291L92.455,36.291C93.086,36.291,93.6,36.804,93.6,37.436L93.6,46.79ZM102.565,57.338L96.724,57.338L96.724,48.352L102.565,48.352L102.565,57.338ZM102.565,57.338"/>
</g>
  <g id="Thin-S" transform="matrix(1.0,0.0,0.0,1.0,804.865029296875,607.925048828125)">  <path stroke-linecap="butt" fill="#000000" xmlns:xlink="http://www.w3.org/1999/xlink" stroke-miterlimit="4" stroke="none" stroke-opacity="1" fill-opacity="1" xml:space="preserve" version="1.1" x="0px" fill-rule="nonzero" stroke-dasharray="none" y="0px" stroke-width="1px" stroke-linejoin="miter" d="M104.128,45.228L96.724,45.228L96.724,37.436C96.724,35.082,94.809,33.167,92.455,33.167L87.437,33.167C87.039,33.167,86.656,33.225,86.291,33.327L86.291,31.755C86.291,29.401,84.376,27.486,82.021,27.486L73.732,27.486C71.378,27.486,69.462,29.401,69.462,31.755L69.462,45.228L36.227,45.228L36.227,31.755C36.227,29.401,34.312,27.486,31.958,27.486L23.668,27.486C21.314,27.486,19.398,29.401,19.398,31.755L19.398,33.327C19.033,33.225,18.65,33.167,18.253,33.167L13.235,33.167C10.881,33.167,8.965,35.082,8.965,37.436L8.965,45.228L1.562,45.228C0.699,45.228,0,45.928,0,46.79L0,58.9C0,59.762,0.699,60.462,1.562,60.462L8.965,60.462L8.965,68.254C8.965,70.608,10.881,72.523,13.235,72.523L18.253,72.523C18.65,72.523,19.034,72.465,19.399,72.363L19.399,73.935C19.399,76.289,21.314,78.204,23.668,78.204L31.958,78.204C34.312,78.204,36.228,76.289,36.228,73.935L36.228,60.462L69.463,60.462L69.463,73.935C69.463,76.289,71.378,78.204,73.732,78.204L82.022,78.204C84.376,78.204,86.292,76.289,86.292,73.935L86.292,72.363C86.657,72.465,87.04,72.523,87.437,72.523L92.455,72.523C94.809,72.523,96.725,70.608,96.725,68.254L96.725,60.462L104.128,60.462C104.991,60.462,105.69,59.762,105.69,58.9L105.69,46.79C105.69,45.928,104.991,45.228,104.128,45.228ZM8.965,57.338L3.124,57.338L3.124,48.352L8.965,48.352L8.965,57.338ZM19.399,68.254C19.399,68.885,18.885,69.399,18.253,69.399L13.235,69.399C12.604,69.399,12.09,68.886,12.09,68.254L12.09,58.9L12.09,46.79L12.09,37.436C12.09,36.804,12.604,36.291,13.235,36.291L18.253,36.291C18.885,36.291,19.399,36.804,19.399,37.436L19.399,68.254ZM33.103,46.79L33.103,58.9L33.103,73.935C33.103,74.566,32.589,75.08,31.958,75.08L23.668,75.08C23.037,75.08,22.523,74.566,22.523,73.935L22.523,68.254L22.523,37.436L22.523,31.755C22.523,31.124,23.037,30.61,23.668,30.61L31.958,30.61C32.589,30.61,33.103,31.124,33.103,31.755L33.103,46.79ZM69.462,57.338L36.227,57.338L36.227,48.352L69.462,48.352L69.462,57.338ZM83.167,37.436L83.167,68.254L83.167,73.935C83.167,74.566,82.653,75.08,82.022,75.08L73.732,75.08C73.101,75.08,72.587,74.566,72.587,73.935L72.587,58.9L72.587,46.79L72.587,31.756C72.587,31.124,73.101,30.61,73.732,30.61L82.022,30.61C82.653,30.61,83.167,31.124,83.167,31.756L83.167,37.436ZM93.6,46.79L93.6,58.9L93.6,68.254C93.6,68.886,93.086,69.399,92.455,69.399L87.437,69.399C86.805,69.399,86.291,68.886,86.291,68.254L86.291,37.436C86.291,36.804,86.805,36.291,87.437,36.291L92.455,36.291C93.086,36.291,93.6,36.804,93.6,37.436L93.6,46.79ZM102.565,57.338L96.724,57.338L96.724,48.352L102.565,48.352L102.565,57.338ZM102.565,57.338"/>
</g>
  <g id="Ultralight-S" transform="matrix(1.0,0.0,0.0,1.0,508.155029296875,607.925048828125)">  <path stroke-dasharray="none" fill="#000000" x="0px" fill-rule="nonzero" stroke-miterlimit="4" stroke-width="1px" y="0px" stroke-linecap="butt" xmlns:xlink="http://www.w3.org/1999/xlink" version="1.1" stroke-linejoin="miter" stroke="none" xml:space="preserve" fill-opacity="1" stroke-opacity="1" d="M104.128,45.228L96.724,45.228L96.724,37.436C96.724,35.082,94.809,33.167,92.455,33.167L87.437,33.167C87.039,33.167,86.656,33.225,86.291,33.327L86.291,31.755C86.291,29.401,84.376,27.486,82.021,27.486L73.732,27.486C71.378,27.486,69.462,29.401,69.462,31.755L69.462,45.228L36.227,45.228L36.227,31.755C36.227,29.401,34.312,27.486,31.958,27.486L23.668,27.486C21.314,27.486,19.398,29.401,19.398,31.755L19.398,33.327C19.033,33.225,18.65,33.167,18.253,33.167L13.235,33.167C10.881,33.167,8.965,35.082,8.965,37.436L8.965,45.228L1.562,45.228C0.699,45.228,0,45.928,0,46.79L0,58.9C0,59.762,0.699,60.462,1.562,60.462L8.965,60.462L8.965,68.254C8.965,70.608,10.881,72.523,13.235,72.523L18.253,72.523C18.65,72.523,19.034,72.465,19.399,72.363L19.399,73.935C19.399,76.289,21.314,78.204,23.668,78.204L31.958,78.204C34.312,78.204,36.228,76.289,36.228,73.935L36.228,60.462L69.463,60.462L69.463,73.935C69.463,76.289,71.378,78.204,73.732,78.204L82.022,78.204C84.376,78.204,86.292,76.289,86.292,73.935L86.292,72.363C86.657,72.465,87.04,72.523,87.437,72.523L92.455,72.523C94.809,72.523,96.725,70.608,96.725,68.254L96.725,60.462L104.128,60.462C104.991,60.462,105.69,59.762,105.69,58.9L105.69,46.79C105.69,45.928,104.991,45.228,104.128,45.228ZM8.965,57.338L3.124,57.338L3.124,48.352L8.965,48.352L8.965,57.338ZM19.399,68.254C19.399,68.885,18.885,69.399,18.253,69.399L13.235,69.399C12.604,69.399,12.09,68.886,12.09,68.254L12.09,58.9L12.09,46.79L12.09,37.436C12.09,36.804,12.604,36.291,13.235,36.291L18.253,36.291C18.885,36.291,19.399,36.804,19.399,37.436L19.399,68.254ZM33.103,46.79L33.103,58.9L33.103,73.935C33.103,74.566,32.589,75.08,31.958,75.08L23.668,75.08C23.037,75.08,22.523,74.566,22.523,73.935L22.523,68.254L22.523,37.436L22.523,31.755C22.523,31.124,23.037,30.61,23.668,30.61L31.958,30.61C32.589,30.61,33.103,31.124,33.103,31.755L33.103,46.79ZM69.462,57.338L36.227,57.338L36.227,48.352L69.462,48.352L69.462,57.338ZM83.167,37.436L83.167,68.254L83.167,73.935C83.167,74.566,82.653,75.08,82.022,75.08L73.732,75.08C73.101,75.08,72.587,74.566,72.587,73.935L72.587,58.9L72.587,46.79L72.587,31.756C72.587,31.124,73.101,30.61,73.732,30.61L82.022,30.61C82.653,30.61,83.167,31.124,83.167,31.756L83.167,37.436ZM93.6,46.79L93.6,58.9L93.6,68.254C93.6,68.886,93.086,69.399,92.455,69.399L87.437,69.399C86.805,69.399,86.291,68.886,86.291,68.254L86.291,37.436C86.291,36.804,86.805,36.291,87.437,36.291L92.455,36.291C93.086,36.291,93.6,36.804,93.6,37.436L93.6,46.79ZM102.565,57.338L96.724,57.338L96.724,48.352L102.565,48.352L102.565,57.338ZM102.565,57.338"/>
</g>
 </g>
</svg>
