<?xml version="1.0" encoding="UTF-8"?>
<!--Generator: CustomSymbols by @serious_bret-->
<!DOCTYPE svg
PUBLIC "-//W3C//DTD SVG 1.1//EN"
       "http://www.w3.org/Graphics/SVG/1.1/DTD/svg11.dtd">
<svg version="1.1" xmlns="http://www.w3.org/2000/svg" xmlns:xlink="http://www.w3.org/1999/xlink" width="3300" height="2200">
 <g id="Notes">
  <rect height="2200" id="artboard" style="fill:white;opacity:1" width="3300" x="0" y="0"/>
  <line id="" style="fill:none;stroke:black;opacity:1;stroke-width:0.5;" x1="263" x2="3036" y1="292" y2="292"/>
  <text id="reftext1" style="stroke:none;fill:black;font-family:-apple-system,&quot;SF Pro Display&quot;,&quot;SF Pro Text&quot;,Helvetica,sans-serif;font-weight:bold;" transform="matrix(1 0 0 1 263 322)">Weight/Scale Variations</text>
  <text id="reftext2" style="stroke:none;fill:black;font-family:-apple-system,&quot;SF Pro Display&quot;,&quot;SF Pro Text&quot;,Helvetica,sans-serif;text-anchor:middle;" transform="matrix(1 0 0 1 559.711 322)">Ultralight</text>
  <text style="stroke:none;fill:black;font-family:-apple-system,&quot;SF Pro Display&quot;,&quot;SF Pro Text&quot;,Helvetica,sans-serif;text-anchor:middle;" transform="matrix(1 0 0 1 856.422 322)">Thin</text>
  <text style="stroke:none;fill:black;font-family:-apple-system,&quot;SF Pro Display&quot;,&quot;SF Pro Text&quot;,Helvetica,sans-serif;text-anchor:middle;" transform="matrix(1 0 0 1 1153.13 322)">Light</text>
  <text style="stroke:none;fill:black;font-family:-apple-system,&quot;SF Pro Display&quot;,&quot;SF Pro Text&quot;,Helvetica,sans-serif;text-anchor:middle;" transform="matrix(1 0 0 1 1449.84 322)">Regular</text>
  <text style="stroke:none;fill:black;font-family:-apple-system,&quot;SF Pro Display&quot;,&quot;SF Pro Text&quot;,Helvetica,sans-serif;text-anchor:middle;" transform="matrix(1 0 0 1 1746.56 322)">Medium</text>
  <text style="stroke:none;fill:black;font-family:-apple-system,&quot;SF Pro Display&quot;,&quot;SF Pro Text&quot;,Helvetica,sans-serif;text-anchor:middle;" transform="matrix(1 0 0 1 2043.27 322)">Semibold</text>
  <text style="stroke:none;fill:black;font-family:-apple-system,&quot;SF Pro Display&quot;,&quot;SF Pro Text&quot;,Helvetica,sans-serif;text-anchor:middle;" transform="matrix(1 0 0 1 2339.98 322)">Bold</text>
  <text style="stroke:none;fill:black;font-family:-apple-system,&quot;SF Pro Display&quot;,&quot;SF Pro Text&quot;,Helvetica,sans-serif;text-anchor:middle;" transform="matrix(1 0 0 1 2636.69 322)">Heavy</text>
  <text style="stroke:none;fill:black;font-family:-apple-system,&quot;SF Pro Display&quot;,&quot;SF Pro Text&quot;,Helvetica,sans-serif;text-anchor:middle;" transform="matrix(1 0 0 1 2933.4 322)">Black</text>
  <line id="" style="fill:none;stroke:black;opacity:1;stroke-width:0.5;" x1="263" x2="3036" y1="1903" y2="1903"/>
  <g id="" transform="matrix(1 0 0 1 263 1933)">
   <path d="M9.24805 0.830078C13.5547 0.830078 17.1387-2.74414 17.1387-7.05078C17.1387-11.3574 13.5449-14.9316 9.23828-14.9316C4.94141-14.9316 1.36719-11.3574 1.36719-7.05078C1.36719-2.74414 4.95117 0.830078 9.24805 0.830078ZM9.24805-0.654297C5.70312-0.654297 2.87109-3.49609 2.87109-7.05078C2.87109-10.6055 5.69336-13.4473 9.23828-13.4473C12.793-13.4473 15.6348-10.6055 15.6445-7.05078C15.6543-3.49609 12.8027-0.654297 9.24805-0.654297ZM6.39648-6.31836L8.50586-6.31836L8.50586-4.19922C8.50586-3.75977 8.79883-3.45703 9.22852-3.45703C9.67773-3.45703 9.9707-3.75977 9.9707-4.19922L9.9707-6.31836L12.0996-6.31836C12.5391-6.31836 12.8418-6.61133 12.8418-7.04102C12.8418-7.48047 12.5391-7.7832 12.0996-7.7832L9.9707-7.7832L9.9707-9.89258C9.9707-10.3418 9.67773-10.6445 9.22852-10.6445C8.79883-10.6445 8.50586-10.3418 8.50586-9.89258L8.50586-7.7832L6.39648-7.7832C5.94727-7.7832 5.64453-7.48047 5.64453-7.04102C5.64453-6.61133 5.94727-6.31836 6.39648-6.31836Z"/>
  </g>
  <g id="" transform="matrix(1 0 0 1 281.506 1933)">
   <path d="M11.709 2.91016C17.1582 2.91016 21.6699-1.61133 21.6699-7.05078C21.6699-12.5 17.1484-17.0117 11.6992-17.0117C6.25977-17.0117 1.74805-12.5 1.74805-7.05078C1.74805-1.61133 6.26953 2.91016 11.709 2.91016ZM11.709 1.25C7.09961 1.25 3.41797-2.44141 3.41797-7.05078C3.41797-11.6602 7.08984-15.3516 11.6992-15.3516C16.3086-15.3516 20-11.6602 20.0098-7.05078C20.0195-2.44141 16.3184 1.25 11.709 1.25ZM7.98828-6.23047L10.8789-6.23047L10.8789-3.32031C10.8789-2.83203 11.2109-2.5 11.6895-2.5C12.1777-2.5 12.5195-2.83203 12.5195-3.32031L12.5195-6.23047L15.4297-6.23047C15.918-6.23047 16.25-6.5625 16.25-7.04102C16.25-7.5293 15.918-7.87109 15.4297-7.87109L12.5195-7.87109L12.5195-10.7617C12.5195-11.2695 12.1777-11.6016 11.6895-11.6016C11.2109-11.6016 10.8789-11.2598 10.8789-10.7617L10.8789-7.87109L7.98828-7.87109C7.48047-7.87109 7.14844-7.5293 7.14844-7.04102C7.14844-6.5625 7.49023-6.23047 7.98828-6.23047Z"/>
  </g>
  <g id="" transform="matrix(1 0 0 1 304.924 1933)">
   <path d="M14.9707 5.66406C21.9336 5.66406 27.6953-0.0976562 27.6953-7.05078C27.6953-14.0137 21.9238-19.7754 14.9609-19.7754C8.00781-19.7754 2.25586-14.0137 2.25586-7.05078C2.25586-0.0976562 8.01758 5.66406 14.9707 5.66406ZM14.9707 3.84766C8.93555 3.84766 4.08203-1.01562 4.08203-7.05078C4.08203-13.0957 8.92578-17.9492 14.9609-17.9492C21.0059-17.9492 25.8594-13.0957 25.8691-7.05078C25.8789-1.01562 21.0156 3.84766 14.9707 3.84766ZM10.0586-6.14258L14.0625-6.14258L14.0625-2.12891C14.0625-1.5918 14.4336-1.2207 14.9512-1.2207C15.4883-1.2207 15.8594-1.5918 15.8594-2.12891L15.8594-6.14258L19.8828-6.14258C20.4102-6.14258 20.791-6.51367 20.791-7.03125C20.791-7.56836 20.4199-7.94922 19.8828-7.94922L15.8594-7.94922L15.8594-11.9531C15.8594-12.5098 15.4883-12.8809 14.9512-12.8809C14.4336-12.8809 14.0625-12.5 14.0625-11.9531L14.0625-7.94922L10.0586-7.94922C9.50195-7.94922 9.13086-7.56836 9.13086-7.03125C9.13086-6.51367 9.51172-6.14258 10.0586-6.14258Z"/>
  </g>
  <text style="stroke:none;fill:black;font-family:-apple-system,&quot;SF Pro Display&quot;,&quot;SF Pro Text&quot;,Helvetica,sans-serif;font-weight:bold;" transform="matrix(1 0 0 1 263 1953)">Design Variations</text>
  <text style="stroke:none;fill:black;font-family:-apple-system,&quot;SF Pro Display&quot;,&quot;SF Pro Text&quot;,Helvetica,sans-serif;" transform="matrix(1 0 0 1 263 1971)">Symbols are supported in up to nine weights and three scales.</text>
  <text style="stroke:none;fill:black;font-family:-apple-system,&quot;SF Pro Display&quot;,&quot;SF Pro Text&quot;,Helvetica,sans-serif;" transform="matrix(1 0 0 1 263 1989)">For optimal layout with text and other symbols, vertically align</text>
  <text style="stroke:none;fill:black;font-family:-apple-system,&quot;SF Pro Display&quot;,&quot;SF Pro Text&quot;,Helvetica,sans-serif;" transform="matrix(1 0 0 1 263 2007)">symbols with the adjacent text.</text>
  <line id="" style="fill:none;stroke:#00AEEF;stroke-width:0.5;opacity:1.0;" x1="776" x2="776" y1="1919" y2="1933"/>
  <g id="" transform="matrix(1 0 0 1 776 1933)">
   <path d="M3.31055 0.126953C3.82812 0.126953 4.08203-0.0683594 4.26758-0.605469L5.52734-4.0625L11.2891-4.0625L12.5488-0.605469C12.7344-0.0683594 12.9883 0.126953 13.4961 0.126953C14.0137 0.126953 14.3457-0.185547 14.3457-0.673828C14.3457-0.839844 14.3164-0.986328 14.2383-1.20117L9.6582-13.3887C9.43359-13.9941 9.0332-14.2871 8.4082-14.2871C7.80273-14.2871 7.39258-13.9941 7.17773-13.3984L2.59766-1.19141C2.51953-0.976562 2.49023-0.830078 2.49023-0.664062C2.49023-0.175781 2.80273 0.126953 3.31055 0.126953ZM6.00586-5.53711L8.37891-12.1094L8.42773-12.1094L10.8008-5.53711Z"/>
  </g>
  <line id="" style="fill:none;stroke:#00AEEF;stroke-width:0.5;opacity:1.0;" x1="792.836" x2="792.836" y1="1919" y2="1933"/>
  <text style="stroke:none;fill:black;font-family:-apple-system,&quot;SF Pro Display&quot;,&quot;SF Pro Text&quot;,Helvetica,sans-serif;font-weight:bold;" transform="matrix(1 0 0 1 776 1953)">Margins</text>
  <text style="stroke:none;fill:black;font-family:-apple-system,&quot;SF Pro Display&quot;,&quot;SF Pro Text&quot;,Helvetica,sans-serif;" transform="matrix(1 0 0 1 776 1971)">Leading and trailing margins on the left and right side of each symbol</text>
  <text style="stroke:none;fill:black;font-family:-apple-system,&quot;SF Pro Display&quot;,&quot;SF Pro Text&quot;,Helvetica,sans-serif;" transform="matrix(1 0 0 1 776 1989)">can be adjusted by modifying the x-location of the margin guidelines.</text>
  <text style="stroke:none;fill:black;font-family:-apple-system,&quot;SF Pro Display&quot;,&quot;SF Pro Text&quot;,Helvetica,sans-serif;" transform="matrix(1 0 0 1 776 2007)">Modifications are automatically applied proportionally to all</text>
  <text style="stroke:none;fill:black;font-family:-apple-system,&quot;SF Pro Display&quot;,&quot;SF Pro Text&quot;,Helvetica,sans-serif;" transform="matrix(1 0 0 1 776 2025)">scales and weights.</text>
  <g id="" transform="matrix(1 0 0 1 1289 1933)">
   <path d="M2.8418 1.86523L4.54102 3.57422C5.40039 4.44336 6.38672 4.38477 7.31445 3.35938L17.4902-7.85156C17.7539-7.76367 18.0273-7.7832 18.3398-7.8418L19.4043-8.03711L20.0684-7.36328L20.0293-6.80664C19.9902-6.30859 20.1172-5.92773 20.6055-5.44922L21.3672-4.70703C21.8457-4.22852 22.4609-4.19922 22.9297-4.66797L25.8398-7.58789C26.3086-8.05664 26.2891-8.65234 25.8105-9.13086L25.0391-9.89258C24.5605-10.3711 24.1895-10.5273 23.7109-10.4883L23.1348-10.4395L22.4902-11.0742L22.7344-12.1973C22.8613-12.7637 22.7051-13.2031 22.1191-13.7891L19.9219-15.9766C16.582-19.2969 12.1484-19.2188 9.25781-16.3281C8.83789-15.918 8.80859-15.3418 9.04297-14.9512C9.27734-14.5898 9.73633-14.3555 10.3809-14.5215C11.8457-14.8633 13.3691-14.9219 14.7949-13.9844L14.209-12.5293C14.0137-12.0508 13.9844-11.6504 14.1113-11.2891L3.04688-0.898438C2.06055 0.0195312 1.98242 0.996094 2.8418 1.86523ZM10.752-15.957C13.1836-17.7344 16.4746-17.4316 18.7012-15.2051L21.1328-12.793C21.3672-12.5586 21.4062-12.373 21.3379-12.0312L21.0156-10.5469L22.5195-9.0625L23.5059-9.12109C23.7598-9.13086 23.8379-9.11133 24.0332-8.91602L24.6094-8.33984L22.168-5.89844L21.5918-6.47461C21.3965-6.66992 21.3672-6.74805 21.377-7.01172L21.4453-7.98828L19.9512-9.47266L18.4277-9.21875C18.1055-9.15039 17.959-9.17969 17.7148-9.41406L15.7129-11.416C15.459-11.6504 15.4297-11.8164 15.5859-12.1875L16.4648-14.2773C14.9023-15.7324 12.8711-16.3574 10.8398-15.7617C10.6836-15.7227 10.625-15.8496 10.752-15.957ZM5.27344 2.30469L4.10156 1.14258C3.63281 0.683594 3.74023 0.341797 4.14062-0.0195312L14.9512-10.1953L16.416-8.71094L6.42578 2.27539C6.07422 2.67578 5.74219 2.77344 5.27344 2.30469Z"/>
  </g>
  <text style="stroke:none;fill:black;font-family:-apple-system,&quot;SF Pro Display&quot;,&quot;SF Pro Text&quot;,Helvetica,sans-serif;font-weight:bold;" transform="matrix(1 0 0 1 1289 1953)">Exporting</text>
  <text style="stroke:none;fill:black;font-family:-apple-system,&quot;SF Pro Display&quot;,&quot;SF Pro Text&quot;,Helvetica,sans-serif;" transform="matrix(1 0 0 1 1289 1971)">Symbols should be outlined when exporting to ensure the</text>
  <text style="stroke:none;fill:black;font-family:-apple-system,&quot;SF Pro Display&quot;,&quot;SF Pro Text&quot;,Helvetica,sans-serif;" transform="matrix(1 0 0 1 1289 1989)">design is preserved when submitting to Xcode.</text>
  <text id="template-version" style="stroke:none;fill:black;font-family:-apple-system,&quot;SF Pro Display&quot;,&quot;SF Pro Text&quot;,Helvetica,sans-serif;text-anchor:end;" transform="matrix(1 0 0 1 3036 1933)">Template v.2.0</text>
  <text style="stroke:none;fill:black;font-family:-apple-system,&quot;SF Pro Display&quot;,&quot;SF Pro Text&quot;,Helvetica,sans-serif;text-anchor:end;" transform="matrix(1 0 0 1 3036 1951)">Requires Xcode 12 or greater</text>
  <text style="stroke:none;fill:black;font-family:-apple-system,&quot;SF Pro Display&quot;,&quot;SF Pro Text&quot;,Helvetica,sans-serif;" transform="matrix(1 0 0 1 263 726)">Small</text>
  <text style="stroke:none;fill:black;font-family:-apple-system,&quot;SF Pro Display&quot;,&quot;SF Pro Text&quot;,Helvetica,sans-serif;" transform="matrix(1 0 0 1 263 1156)">Medium</text>
  <text style="stroke:none;fill:black;font-family:-apple-system,&quot;SF Pro Display&quot;,&quot;SF Pro Text&quot;,Helvetica,sans-serif;" transform="matrix(1 0 0 1 263 1586)">Large</text>
 </g>
 <g id="Guides">
  <g id="H-reference" style="fill:#27AAE1;stroke:none;" transform="matrix(1 0 0 1 339 696)">
   <path d="M0.976562 0L3.66211 0L12.9883-24.4629L45.752-24.4629L55.127 0L57.7637 0L30.6152-70.459L28.125-70.459ZM29.3457-67.1387L29.4434-67.1387L44.873-26.709L13.8672-26.709Z"/>
  </g>
  <line id="Baseline-S" style="fill:none;stroke:#27AAE1;opacity:1;stroke-width:0.5;" x1="263" x2="3036" y1="696" y2="696"/>
  <line id="Capline-S" style="fill:none;stroke:#27AAE1;opacity:1;stroke-width:0.5;" x1="263" x2="3036" y1="625.541" y2="625.541"/>
  <g id="H-reference" style="fill:#27AAE1;stroke:none;" transform="matrix(1 0 0 1 339 1126)">
   <path d="M0.976562 0L3.66211 0L12.9883-24.4629L45.752-24.4629L55.127 0L57.7637 0L30.6152-70.459L28.125-70.459ZM29.3457-67.1387L29.4434-67.1387L44.873-26.709L13.8672-26.709Z"/>
  </g>
  <line id="Baseline-M" style="fill:none;stroke:#27AAE1;opacity:1;stroke-width:0.5;" x1="263" x2="3036" y1="1126" y2="1126"/>
  <line id="Capline-M" style="fill:none;stroke:#27AAE1;opacity:1;stroke-width:0.5;" x1="263" x2="3036" y1="1055.54" y2="1055.54"/>
  <g id="H-reference" style="fill:#27AAE1;stroke:none;" transform="matrix(1 0 0 1 339 1556)">
   <path d="M0.976562 0L3.66211 0L12.9883-24.4629L45.752-24.4629L55.127 0L57.7637 0L30.6152-70.459L28.125-70.459ZM29.3457-67.1387L29.4434-67.1387L44.873-26.709L13.8672-26.709Z"/>
  </g>
  <line id="Baseline-L" style="fill:none;stroke:#27AAE1;opacity:1;stroke-width:0.5;" x1="263" x2="3036" y1="1556" y2="1556"/>
  <line id="Capline-L" style="fill:none;stroke:#27AAE1;opacity:1;stroke-width:0.5;" x1="263" x2="3036" y1="1485.54" y2="1485.54"/>
  <line id="left-margin" x1="1415.9000195312499" x2="1415.9000195312499" y1="1030.79" y2="1150.12" style="fill:none;stroke:#00AEEF;stroke-width:0.5;opacity:1.0;"/>
  <line id="right-margin" x1="1486.3599804687499" x2="1486.3599804687499" y1="1030.79" y2="1150.12" style="fill:none;stroke:#00AEEF;stroke-width:0.5;opacity:1.0;"/>
 </g>
 <g id="Symbols">
  <g id="Black-L" transform="matrix(1.0,0.0,0.0,1.0,2884.738599115728,1470.828618646978)">  <path stroke-opacity="1" stroke="none" fill-rule="nonzero" stroke-dasharray="none" fill="#000000" stroke-width="2px" x="0px" stroke-miterlimit="10" xml:space="preserve" y="0px" version="1.1" stroke-linejoin="round" fill-opacity="1" stroke-linecap="round" xmlns:xlink="http://www.w3.org/1999/xlink" d="M31.213,97.417L68.669,97.417C70.162,97.417,71.614,96.933,72.808,96.037C82.294,88.923,88.053,77.714,88.053,65.548C88.053,44.571,70.919,27.437,49.941,27.437C28.964,27.437,11.83,44.571,11.83,65.548C11.83,77.714,17.589,88.923,27.074,96.037C28.269,96.933,29.721,97.417,31.213,97.417ZM31.213,83.621L35.352,85C29.297,80.459,25.626,73.314,25.626,65.548C25.626,52.19,36.584,41.233,49.941,41.233C63.299,41.233,74.257,52.19,74.257,65.548C74.257,73.314,70.586,80.459,64.531,85L68.669,83.621L31.213,83.621Z"/>
  <path stroke-opacity="1" fill-rule="nonzero" version="1.1" x="0px" xml:space="preserve" stroke-miterlimit="10" stroke-dasharray="none" stroke-linecap="round" y="0px" xmlns:xlink="http://www.w3.org/1999/xlink" fill="#000000" fill-opacity="1" stroke-width="2px" stroke-linejoin="round" stroke="none" d="M34.99,43.387L34.99,31.213C34.99,23.039,41.7,16.262,49.941,16.262C58.116,16.262,64.893,22.972,64.893,31.213L64.893,43.387C64.893,47.196,67.981,50.285,71.791,50.285C75.601,50.285,78.689,47.196,78.689,43.387L78.689,31.213C78.689,15.322,65.705,2.466,49.941,2.466C34.05,2.466,21.194,15.45,21.194,31.213L21.194,43.387C21.194,47.196,24.282,50.285,28.092,50.285C31.902,50.285,34.99,47.196,34.99,43.387Z"/>
  <path stroke-dasharray="none" stroke-linecap="round" stroke="none" fill-rule="nonzero" y="0px" fill-opacity="1" stroke-linejoin="round" xml:space="preserve" stroke-opacity="1" stroke-miterlimit="10" fill="#000000" xmlns:xlink="http://www.w3.org/1999/xlink" x="0px" version="1.1" stroke-width="2px" d="M56.538,55.761C58.572,57.055,60.368,59.45,61.14,61.958C62.26,65.6,66.12,67.643,69.762,66.523C73.403,65.402,75.447,61.542,74.326,57.901C72.601,52.294,68.778,47.197,63.945,44.122C60.731,42.076,56.467,43.024,54.422,46.238C52.377,49.452,53.324,53.716,56.538,55.761Z"/>
</g>
  <g id="Heavy-L" transform="matrix(1.0,0.0,0.0,1.0,2588.028599115728,1470.828618646978)">  <path stroke-linecap="round" version="1.1" stroke-width="2px" stroke-miterlimit="10" stroke-dasharray="none" stroke="none" xmlns:xlink="http://www.w3.org/1999/xlink" stroke-linejoin="round" fill-opacity="1" xml:space="preserve" y="0px" fill="#000000" stroke-opacity="1" x="0px" fill-rule="nonzero" d="M31.213,96.662L68.669,96.662C69.999,96.662,71.292,96.23,72.355,95.433C81.653,88.459,87.298,77.473,87.298,65.548C87.298,44.988,70.501,28.192,49.941,28.192C29.381,28.192,12.585,44.988,12.585,65.548C12.585,77.473,18.23,88.459,27.528,95.433C28.591,96.23,29.884,96.662,31.213,96.662ZM31.213,84.376L34.899,85.605C28.656,80.922,24.871,73.555,24.871,65.548C24.871,51.773,36.167,40.478,49.941,40.478C63.716,40.478,75.012,51.773,75.012,65.548C75.012,73.555,71.227,80.922,64.984,85.605L68.669,84.376L31.213,84.376Z"/>
  <path stroke-linecap="round" fill="#000000" y="0px" stroke-dasharray="none" version="1.1" stroke-opacity="1" x="0px" fill-opacity="1" stroke-linejoin="round" xml:space="preserve" xmlns:xlink="http://www.w3.org/1999/xlink" stroke="none" stroke-width="2px" stroke-miterlimit="10" fill-rule="nonzero" d="M34.235,43.387L34.235,31.213C34.235,22.623,41.281,15.507,49.941,15.507C58.532,15.507,65.648,22.553,65.648,31.213L65.648,43.387C65.648,46.779,68.398,49.529,71.791,49.529C75.183,49.529,77.934,46.779,77.934,43.387L77.934,31.213C77.934,15.741,65.29,3.221,49.941,3.221C34.469,3.221,21.949,15.865,21.949,31.213L21.949,43.387C21.949,46.779,24.699,49.529,28.092,49.529C31.485,49.529,34.235,46.779,34.235,43.387Z"/>
  <path stroke-miterlimit="10" version="1.1" stroke-linejoin="round" fill-opacity="1" fill="#000000" y="0px" fill-rule="nonzero" xml:space="preserve" x="0px" stroke-linecap="round" stroke-dasharray="none" xmlns:xlink="http://www.w3.org/1999/xlink" stroke="none" stroke-opacity="1" stroke-width="2px" d="M56.944,55.124C59.131,56.516,61.038,59.058,61.862,61.736C62.86,64.979,66.297,66.799,69.54,65.801C72.782,64.803,74.602,61.366,73.604,58.123C71.931,52.686,68.219,47.737,63.54,44.759C60.678,42.938,56.881,43.781,55.059,46.643C53.238,49.506,54.082,53.302,56.944,55.124Z"/>
</g>
  <g id="Bold-L" transform="matrix(1.0,0.0,0.0,1.0,2291.318599115728,1470.828618646978)">  <path stroke-opacity="1" stroke-miterlimit="10" fill-rule="nonzero" x="0px" stroke-linecap="round" fill="#000000" y="0px" stroke="none" stroke-width="2px" xml:space="preserve" fill-opacity="1" version="1.1" xmlns:xlink="http://www.w3.org/1999/xlink" stroke-dasharray="none" stroke-linejoin="round" d="M31.213,95.906L68.669,95.906C69.835,95.906,70.969,95.528,71.902,94.829C81.012,87.996,86.542,77.232,86.542,65.548C86.542,45.405,70.084,28.947,49.941,28.947C29.799,28.947,13.341,45.405,13.341,65.548C13.341,77.232,18.871,87.996,27.981,94.829C28.913,95.528,30.048,95.906,31.213,95.906ZM31.213,85.131L34.446,86.209C28.015,81.385,24.115,73.796,24.115,65.548C24.115,51.356,35.749,39.722,49.941,39.722C64.133,39.722,75.767,51.356,75.767,65.548C75.767,73.796,71.868,81.385,65.437,86.209L68.669,85.131L31.213,85.131Z"/>
  <path stroke-linecap="round" fill-opacity="1" stroke-linejoin="round" version="1.1" fill-rule="nonzero" xml:space="preserve" y="0px" stroke-width="2px" xmlns:xlink="http://www.w3.org/1999/xlink" fill="#000000" x="0px" stroke-opacity="1" stroke-dasharray="none" stroke="none" stroke-miterlimit="10" d="M33.479,43.387L33.479,31.213C33.479,22.208,40.863,14.751,49.941,14.751C58.947,14.751,66.403,22.135,66.403,31.213L66.403,43.387C66.403,46.362,68.815,48.774,71.791,48.774C74.766,48.774,77.178,46.362,77.178,43.387L77.178,31.213C77.178,16.16,64.874,3.977,49.941,3.977C34.888,3.977,22.705,16.281,22.705,31.213L22.705,43.387C22.705,46.362,25.117,48.774,28.092,48.774C31.067,48.774,33.479,46.362,33.479,43.387Z"/>
  <path xml:space="preserve" fill-opacity="1" stroke-linejoin="round" stroke-opacity="1" stroke-linecap="round" y="0px" fill="#000000" stroke-miterlimit="10" fill-rule="nonzero" stroke="none" stroke-width="2px" version="1.1" stroke-dasharray="none" x="0px" xmlns:xlink="http://www.w3.org/1999/xlink" d="M57.349,54.487C59.69,55.976,61.708,58.666,62.584,61.514C63.459,64.358,66.474,65.954,69.317,65.079C72.161,64.204,73.757,61.189,72.882,58.345C71.261,53.078,67.661,48.277,63.134,45.396C60.624,43.799,57.294,44.539,55.697,47.049C54.099,49.559,54.839,52.889,57.349,54.487Z"/>
</g>
  <g id="Semibold-L" transform="matrix(1.0,0.0,0.0,1.0,1994.6085991157279,1470.828618646978)">  <path stroke-dasharray="none" version="1.1" xml:space="preserve" stroke-width="2px" stroke="none" fill-opacity="1" xmlns:xlink="http://www.w3.org/1999/xlink" fill-rule="nonzero" fill="#000000" stroke-linecap="round" stroke-linejoin="round" x="0px" stroke-miterlimit="10" stroke-opacity="1" y="0px" d="M31.213,95.151L68.669,95.151C69.672,95.151,70.647,94.826,71.449,94.224C80.371,87.533,85.787,76.991,85.787,65.548C85.787,45.823,69.667,29.703,49.941,29.703C30.216,29.703,14.096,45.823,14.096,65.548C14.096,76.991,19.512,87.533,28.434,94.224C29.236,94.826,30.211,95.151,31.213,95.151ZM31.213,85.887L33.993,86.813C27.374,81.849,23.36,74.037,23.36,65.548C23.36,50.939,35.332,38.967,49.941,38.967C64.551,38.967,76.523,50.939,76.523,65.548C76.523,74.037,72.509,81.849,65.89,86.813L68.669,85.887L31.213,85.887Z"/>
  <path y="0px" fill-opacity="1" fill-rule="nonzero" fill="#000000" stroke="none" x="0px" xml:space="preserve" stroke-linecap="round" stroke-opacity="1" stroke-linejoin="round" stroke-miterlimit="10" xmlns:xlink="http://www.w3.org/1999/xlink" stroke-width="2px" version="1.1" stroke-dasharray="none" d="M32.724,43.387L32.724,31.213C32.724,21.792,40.444,13.996,49.941,13.996C59.363,13.996,67.159,21.716,67.159,31.213L67.159,43.387C67.159,45.945,69.233,48.019,71.791,48.019C74.349,48.019,76.423,45.945,76.423,43.387L76.423,31.213C76.423,16.579,64.459,4.732,49.941,4.732C35.307,4.732,23.46,16.696,23.46,31.213L23.46,43.387C23.46,45.945,25.534,48.019,28.092,48.019C30.65,48.019,32.724,45.945,32.724,43.387Z"/>
  <path stroke-width="2px" xml:space="preserve" fill="#000000" stroke="none" stroke-linecap="round" stroke-dasharray="none" y="0px" fill-rule="nonzero" fill-opacity="1" stroke-miterlimit="10" stroke-opacity="1" xmlns:xlink="http://www.w3.org/1999/xlink" stroke-linejoin="round" x="0px" version="1.1" d="M57.755,53.849C60.249,55.436,62.377,58.274,63.306,61.292C64.058,63.737,66.65,65.109,69.095,64.357C71.54,63.605,72.913,61.013,72.16,58.567C70.592,53.469,67.102,48.816,62.729,46.034C60.57,44.66,57.707,45.296,56.334,47.455C54.96,49.613,55.597,52.476,57.755,53.849Z"/>
</g>
  <g id="Medium-L" transform="matrix(1.0,0.0,0.0,1.0,1697.8985991157278,1470.828618646978)">  <path version="1.1" stroke-linejoin="round" stroke-opacity="1" x="0px" stroke-linecap="round" fill-opacity="1" stroke-width="2px" y="0px" stroke-dasharray="none" stroke="none" stroke-miterlimit="10" xmlns:xlink="http://www.w3.org/1999/xlink" fill-rule="nonzero" xml:space="preserve" fill="#000000" d="M31.213,94.395L68.669,94.395C69.508,94.395,70.324,94.123,70.995,93.62C79.73,87.069,85.031,76.75,85.031,65.548C85.031,46.24,69.25,30.458,49.941,30.458C30.633,30.458,14.851,46.24,14.851,65.548C14.851,76.75,20.153,87.069,28.887,93.62C29.558,94.123,30.375,94.395,31.213,94.395ZM31.213,86.642L33.539,87.417C26.733,82.312,22.605,74.278,22.605,65.548C22.605,50.522,34.915,38.211,49.941,38.211C64.968,38.211,77.278,50.522,77.278,65.548C77.278,74.278,73.15,82.312,66.343,87.417L68.669,86.642L31.213,86.642Z"/>
  <path stroke-dasharray="none" stroke-opacity="1" fill-opacity="1" fill-rule="nonzero" fill="#000000" version="1.1" xmlns:xlink="http://www.w3.org/1999/xlink" y="0px" stroke-linecap="round" xml:space="preserve" stroke-miterlimit="10" x="0px" stroke="none" stroke-linejoin="round" stroke-width="2px" d="M31.969,43.387L31.969,31.213C31.969,21.377,40.025,13.241,49.941,13.241C59.778,13.241,67.914,21.297,67.914,31.213L67.914,43.387C67.914,45.528,69.65,47.263,71.791,47.263C73.932,47.263,75.667,45.528,75.667,43.387L75.667,31.213C75.667,16.998,64.043,5.487,49.941,5.487C35.726,5.487,24.215,17.112,24.215,31.213L24.215,43.387C24.215,45.528,25.951,47.263,28.092,47.263C30.233,47.263,31.969,45.528,31.969,43.387Z"/>
  <path x="0px" fill-rule="nonzero" fill="#000000" stroke-width="2px" xmlns:xlink="http://www.w3.org/1999/xlink" fill-opacity="1" y="0px" stroke-miterlimit="10" stroke-opacity="1" stroke-dasharray="none" version="1.1" stroke="none" stroke-linecap="round" stroke-linejoin="round" xml:space="preserve" d="M58.161,53.212C60.807,54.896,63.047,57.883,64.028,61.07C64.657,63.116,66.827,64.265,68.873,63.635C70.919,63.005,72.068,60.836,71.438,58.79C69.922,53.861,66.543,49.356,62.323,46.671C60.517,45.521,58.121,46.054,56.971,47.86C55.822,49.666,56.354,52.063,58.161,53.212Z"/>
</g>
  <g id="Regular-L" transform="matrix(1.0,0.0,0.0,1.0,1401.1885991157278,1470.828618646978)">  <path xml:space="preserve" fill-rule="nonzero" stroke-width="2px" stroke-opacity="1" stroke="none" stroke-linejoin="round" stroke-linecap="round" y="0px" fill-opacity="1" stroke-dasharray="none" fill="#000000" x="0px" stroke-miterlimit="10" xmlns:xlink="http://www.w3.org/1999/xlink" version="1.1" d="M31.213,93.64L68.669,93.64C69.345,93.64,70.002,93.421,70.542,93.016C79.089,86.606,84.276,76.509,84.276,65.548C84.276,46.657,68.833,31.213,49.941,31.213C31.05,31.213,15.607,46.657,15.607,65.548C15.607,76.509,20.794,86.606,29.341,93.016C29.881,93.421,30.538,93.64,31.213,93.64ZM31.213,87.397L33.086,88.022C26.092,82.776,21.849,74.519,21.849,65.548C21.849,50.105,34.498,37.456,49.941,37.456C65.385,37.456,78.033,50.105,78.033,65.548C78.033,74.519,73.791,82.776,66.797,88.022L68.669,87.397L31.213,87.397Z"/>
  <path fill-opacity="1" xmlns:xlink="http://www.w3.org/1999/xlink" stroke-linejoin="round" y="0px" fill="#000000" stroke-width="2px" stroke-dasharray="none" xml:space="preserve" stroke-opacity="1" x="0px" fill-rule="nonzero" version="1.1" stroke-miterlimit="10" stroke-linecap="round" stroke="none" d="M31.213,43.387L31.213,31.213C31.213,20.961,39.606,12.485,49.941,12.485C60.194,12.485,68.669,20.878,68.669,31.213L68.669,43.387C68.669,45.11,70.067,46.508,71.791,46.508C73.515,46.508,74.912,45.11,74.912,43.387L74.912,31.213C74.912,17.416,63.628,6.243,49.941,6.243C36.145,6.243,24.971,17.527,24.971,31.213L24.971,43.387C24.971,45.11,26.368,46.508,28.092,46.508C29.816,46.508,31.213,45.11,31.213,43.387Z"/>
  <path version="1.1" stroke-linejoin="round" stroke-dasharray="none" stroke-linecap="round" xmlns:xlink="http://www.w3.org/1999/xlink" fill="#000000" fill-rule="nonzero" stroke-opacity="1" xml:space="preserve" x="0px" y="0px" stroke="none" stroke-width="2px" fill-opacity="1" stroke-miterlimit="10" d="M58.566,52.575C61.366,54.357,63.717,57.491,64.75,60.848C65.257,62.495,67.003,63.42,68.651,62.913C70.299,62.406,71.223,60.659,70.716,59.012C69.252,54.253,65.984,49.896,61.918,47.308C60.463,46.383,58.534,46.811,57.608,48.266C56.683,49.72,57.112,51.649,58.566,52.575Z"/>
</g>
  <g id="Light-L" transform="matrix(1.0,0.0,0.0,1.0,1104.478599115728,1470.828618646978)">  <path stroke-miterlimit="10" version="1.1" fill="#000000" stroke-dasharray="none" x="0px" stroke-linejoin="round" stroke-width="2px" stroke-opacity="1" xmlns:xlink="http://www.w3.org/1999/xlink" xml:space="preserve" stroke-linecap="round" stroke="none" fill-rule="nonzero" fill-opacity="1" y="0px" d="M31.213,93.12L68.669,93.12C69.232,93.12,69.78,92.937,70.23,92.6C78.648,86.287,83.756,76.344,83.756,65.548C83.756,46.944,68.545,31.734,49.941,31.734C31.337,31.734,16.127,46.944,16.127,65.548C16.127,76.344,21.235,86.287,29.653,92.6C30.103,92.937,30.651,93.12,31.213,93.12ZM31.213,87.918L32.774,88.438C25.65,83.095,21.329,74.685,21.329,65.548C21.329,49.817,34.211,36.936,49.941,36.936C65.672,36.936,78.554,49.817,78.554,65.548C78.554,74.685,74.233,83.095,67.109,88.438L68.669,87.918L31.213,87.918Z"/>
  <path stroke-width="2px" x="0px" fill-opacity="1" stroke-miterlimit="10" stroke-opacity="1" fill-rule="nonzero" stroke-dasharray="none" y="0px" fill="#000000" stroke-linecap="round" xmlns:xlink="http://www.w3.org/1999/xlink" xml:space="preserve" stroke="none" version="1.1" stroke-linejoin="round" d="M30.693,43.387L30.693,31.213C30.693,20.675,39.318,11.965,49.941,11.965C60.48,11.965,69.19,20.59,69.19,31.213L69.19,43.387C69.19,44.823,70.354,45.988,71.791,45.988C73.227,45.988,74.392,44.823,74.392,43.387L74.392,31.213C74.392,17.705,63.341,6.763,49.941,6.763C36.433,6.763,25.491,17.813,25.491,31.213L25.491,43.387C25.491,44.823,26.655,45.988,28.092,45.988C29.529,45.988,30.693,44.823,30.693,43.387Z"/>
  <path stroke-linejoin="round" fill-opacity="1" xml:space="preserve" version="1.1" fill-rule="nonzero" stroke-width="2px" stroke-linecap="round" stroke-dasharray="none" x="0px" stroke-opacity="1" y="0px" fill="#000000" stroke-miterlimit="10" xmlns:xlink="http://www.w3.org/1999/xlink" stroke="none" d="M58.845,52.136C61.751,53.985,64.178,57.221,65.247,60.695C65.669,62.068,67.125,62.838,68.498,62.416C69.871,61.993,70.642,60.538,70.219,59.165C68.791,54.523,65.599,50.268,61.638,47.747C60.426,46.976,58.819,47.333,58.047,48.545C57.276,49.757,57.633,51.365,58.845,52.136Z"/>
</g>
  <g id="Thin-L" transform="matrix(1.0,0.0,0.0,1.0,807.7685991157281,1470.828618646978)">  <path y="0px" stroke-width="2px" stroke-linejoin="round" fill-rule="nonzero" x="0px" stroke="none" xmlns:xlink="http://www.w3.org/1999/xlink" stroke-linecap="round" stroke-dasharray="none" stroke-opacity="1" version="1.1" fill-opacity="1" xml:space="preserve" stroke-miterlimit="10" fill="#000000" d="M31.213,92.6L68.669,92.6C69.12,92.6,69.558,92.454,69.918,92.184C78.206,85.967,83.236,76.178,83.236,65.548C83.236,47.231,68.258,32.254,49.941,32.254C31.625,32.254,16.647,47.231,16.647,65.548C16.647,76.178,21.677,85.967,29.965,92.184C30.325,92.454,30.763,92.6,31.213,92.6ZM31.213,88.438L32.462,88.854C25.209,83.414,20.809,74.85,20.809,65.548C20.809,49.53,33.923,36.416,49.941,36.416C65.96,36.416,79.074,49.53,79.074,65.548C79.074,74.85,74.674,83.414,67.421,88.854L68.669,88.438L31.213,88.438Z"/>
  <path fill-rule="nonzero" fill-opacity="1" xml:space="preserve" stroke-opacity="1" y="0px" version="1.1" stroke-linecap="round" stroke-linejoin="round" x="0px" stroke-dasharray="none" stroke-miterlimit="10" xmlns:xlink="http://www.w3.org/1999/xlink" stroke="none" stroke-width="2px" fill="#000000" d="M30.173,43.387L30.173,31.213C30.173,20.389,39.029,11.445,49.941,11.445C60.766,11.445,69.71,20.301,69.71,31.213L69.71,43.387C69.71,44.536,70.642,45.467,71.791,45.467C72.94,45.467,73.872,44.536,73.872,43.387L73.872,31.213C73.872,17.993,63.055,7.283,49.941,7.283C36.721,7.283,26.011,18.099,26.011,31.213L26.011,43.387C26.011,44.536,26.943,45.467,28.092,45.467C29.241,45.467,30.173,44.536,30.173,43.387Z"/>
  <path xmlns:xlink="http://www.w3.org/1999/xlink" version="1.1" stroke-linejoin="round" stroke-opacity="1" stroke-width="2px" stroke-dasharray="none" xml:space="preserve" y="0px" stroke-linecap="round" x="0px" fill-rule="nonzero" fill="#000000" stroke="none" fill-opacity="1" stroke-miterlimit="10" d="M59.125,51.697C62.136,53.613,64.639,56.951,65.744,60.542C66.082,61.64,67.247,62.257,68.345,61.919C69.443,61.581,70.06,60.416,69.722,59.318C68.33,54.793,65.215,50.639,61.359,48.186C60.389,47.569,59.103,47.855,58.486,48.824C57.869,49.794,58.155,51.08,59.125,51.697Z"/>
</g>
  <g id="Ultralight-L" transform="matrix(1.0,0.0,0.0,1.0,511.05859911572804,1470.828618646978)">  <path stroke-linejoin="round" y="0px" fill-rule="nonzero" xml:space="preserve" stroke-dasharray="none" stroke="none" fill-opacity="1" version="1.1" fill="#000000" xmlns:xlink="http://www.w3.org/1999/xlink" x="0px" stroke-opacity="1" stroke-width="2px" stroke-linecap="round" stroke-miterlimit="10" d="M31.213,92.079L68.669,92.079C69.007,92.079,69.336,91.97,69.606,91.767C77.765,85.648,82.715,76.012,82.715,65.548C82.715,47.519,67.971,32.774,49.941,32.774C31.912,32.774,17.167,47.519,17.167,65.548C17.167,76.012,22.118,85.648,30.277,91.767C30.547,91.97,30.876,92.079,31.213,92.079ZM31.213,88.958L32.15,89.27C24.767,83.733,20.289,75.016,20.289,65.548C20.289,49.243,33.636,35.895,49.941,35.895C66.247,35.895,79.594,49.243,79.594,65.548C79.594,75.016,75.116,83.733,67.733,89.27L68.669,88.958L31.213,88.958Z"/>
  <path stroke-width="2px" stroke-dasharray="none" version="1.1" xml:space="preserve" stroke="none" stroke-miterlimit="10" xmlns:xlink="http://www.w3.org/1999/xlink" fill="#000000" stroke-linejoin="round" stroke-opacity="1" stroke-linecap="round" x="0px" fill-opacity="1" fill-rule="nonzero" y="0px" d="M29.653,43.387L29.653,31.213C29.653,20.103,38.741,10.925,49.941,10.925C61.052,10.925,70.23,20.013,70.23,31.213L70.23,43.387C70.23,44.249,70.929,44.947,71.791,44.947C72.653,44.947,73.351,44.249,73.351,43.387L73.351,31.213C73.351,18.282,62.769,7.803,49.941,7.803C37.01,7.803,26.531,18.386,26.531,31.213L26.531,43.387C26.531,44.249,27.23,44.947,28.092,44.947C28.954,44.947,29.653,44.249,29.653,43.387Z"/>
  <path fill-rule="nonzero" stroke-linejoin="round" stroke-opacity="1" version="1.1" fill="#000000" fill-opacity="1" y="0px" stroke="none" x="0px" xml:space="preserve" stroke-miterlimit="10" stroke-linecap="round" xmlns:xlink="http://www.w3.org/1999/xlink" stroke-dasharray="none" stroke-width="2px" d="M59.404,51.258C62.521,53.242,65.101,56.681,66.241,60.389C66.495,61.212,67.368,61.675,68.192,61.421C69.016,61.168,69.478,60.295,69.225,59.471C67.868,55.062,64.83,51.011,61.08,48.625C60.353,48.162,59.388,48.376,58.925,49.104C58.462,49.831,58.677,50.795,59.404,51.258Z"/>
</g>
  <g id="Black-M" transform="matrix(1.0,0.0,0.0,1.0,2895.9657357486262,1052.0557552798764)">  <path stroke-opacity="1" stroke="none" fill-rule="nonzero" stroke-dasharray="none" fill="#000000" stroke-width="2px" x="0px" stroke-miterlimit="10" xml:space="preserve" y="0px" version="1.1" stroke-linejoin="round" fill-opacity="1" stroke-linecap="round" xmlns:xlink="http://www.w3.org/1999/xlink" d="M24.196,75.517L53.232,75.517C54.389,75.517,55.515,75.142,56.441,74.448C63.794,68.933,68.258,60.243,68.258,50.812C68.258,34.551,54.976,21.269,38.714,21.269C22.453,21.269,9.17,34.551,9.17,50.812C9.17,60.243,13.635,68.933,20.988,74.448C21.914,75.142,23.039,75.517,24.196,75.517ZM24.196,64.822L27.405,65.892C22.711,62.371,19.865,56.833,19.865,50.812C19.865,40.458,28.36,31.963,38.714,31.963C49.069,31.963,57.563,40.458,57.563,50.812C57.563,56.833,54.718,62.371,50.024,65.892L53.232,64.822L24.196,64.822Z"/>
  <path stroke-opacity="1" fill-rule="nonzero" version="1.1" x="0px" xml:space="preserve" stroke-miterlimit="10" stroke-dasharray="none" stroke-linecap="round" y="0px" xmlns:xlink="http://www.w3.org/1999/xlink" fill="#000000" fill-opacity="1" stroke-width="2px" stroke-linejoin="round" stroke="none" d="M27.124,33.633L27.124,24.196C27.124,17.859,32.326,12.606,38.714,12.606C45.051,12.606,50.304,17.808,50.304,24.196L50.304,33.633C50.304,36.586,52.698,38.98,55.652,38.98C58.605,38.98,60.999,36.586,60.999,33.633L60.999,24.196C60.999,11.878,50.934,1.912,38.714,1.912C26.396,1.912,16.429,11.976,16.429,24.196L16.429,33.633C16.429,36.586,18.823,38.98,21.777,38.98C24.73,38.98,27.124,36.586,27.124,33.633Z"/>
  <path stroke-dasharray="none" stroke-linecap="round" stroke="none" fill-rule="nonzero" y="0px" fill-opacity="1" stroke-linejoin="round" xml:space="preserve" stroke-opacity="1" stroke-miterlimit="10" fill="#000000" xmlns:xlink="http://www.w3.org/1999/xlink" x="0px" version="1.1" stroke-width="2px" d="M43.828,43.226C45.405,44.229,46.797,46.085,47.395,48.03C48.264,50.852,51.256,52.437,54.079,51.568C56.902,50.7,58.486,47.707,57.617,44.885C56.28,40.538,53.316,36.587,49.57,34.203C47.078,32.617,43.773,33.352,42.188,35.843C40.602,38.335,41.337,41.64,43.828,43.226Z"/>
</g>
  <g id="Heavy-M" transform="matrix(1.0,0.0,0.0,1.0,2599.255735748626,1052.0557552798764)">  <path stroke-linecap="round" version="1.1" stroke-width="2px" stroke-miterlimit="10" stroke-dasharray="none" stroke="none" xmlns:xlink="http://www.w3.org/1999/xlink" stroke-linejoin="round" fill-opacity="1" xml:space="preserve" y="0px" fill="#000000" stroke-opacity="1" x="0px" fill-rule="nonzero" d="M24.196,74.931L53.232,74.931C54.262,74.931,55.265,74.597,56.089,73.979C63.297,68.573,67.673,60.057,67.673,50.812C67.673,34.875,54.652,21.854,38.714,21.854C22.776,21.854,9.756,34.875,9.756,50.812C9.756,60.057,14.132,68.573,21.339,73.979C22.164,74.597,23.166,74.931,24.196,74.931ZM24.196,65.408L27.054,66.36C22.214,62.73,19.28,57.019,19.28,50.812C19.28,40.134,28.036,31.378,38.714,31.378C49.392,31.378,58.149,40.134,58.149,50.812C58.149,57.019,55.215,62.73,50.375,66.36L53.232,65.408L24.196,65.408Z"/>
  <path stroke-linecap="round" fill="#000000" y="0px" stroke-dasharray="none" version="1.1" stroke-opacity="1" x="0px" fill-opacity="1" stroke-linejoin="round" xml:space="preserve" xmlns:xlink="http://www.w3.org/1999/xlink" stroke="none" stroke-width="2px" stroke-miterlimit="10" fill-rule="nonzero" d="M26.539,33.633L26.539,24.196C26.539,17.537,32.001,12.021,38.714,12.021C45.373,12.021,50.89,17.483,50.89,24.196L50.89,33.633C50.89,36.263,53.022,38.395,55.652,38.395C58.282,38.395,60.414,36.263,60.414,33.633L60.414,24.196C60.414,12.202,50.612,2.497,38.714,2.497C26.72,2.497,17.015,12.298,17.015,24.196L17.015,33.633C17.015,36.263,19.147,38.395,21.777,38.395C24.407,38.395,26.539,36.263,26.539,33.633Z"/>
  <path stroke-miterlimit="10" version="1.1" stroke-linejoin="round" fill-opacity="1" fill="#000000" y="0px" fill-rule="nonzero" xml:space="preserve" x="0px" stroke-linecap="round" stroke-dasharray="none" xmlns:xlink="http://www.w3.org/1999/xlink" stroke="none" stroke-opacity="1" stroke-width="2px" d="M44.143,42.732C45.838,43.811,47.316,45.781,47.955,47.858C48.728,50.371,51.393,51.782,53.907,51.008C56.42,50.235,57.831,47.57,57.057,45.057C55.761,40.842,52.883,37.005,49.256,34.697C47.037,33.285,44.094,33.939,42.682,36.158C41.27,38.376,41.924,41.32,44.143,42.732Z"/>
</g>
  <g id="Bold-M" transform="matrix(1.0,0.0,0.0,1.0,2302.545735748626,1052.0557552798764)">  <path stroke-opacity="1" stroke-miterlimit="10" fill-rule="nonzero" x="0px" stroke-linecap="round" fill="#000000" y="0px" stroke="none" stroke-width="2px" xml:space="preserve" fill-opacity="1" version="1.1" xmlns:xlink="http://www.w3.org/1999/xlink" stroke-dasharray="none" stroke-linejoin="round" d="M24.196,74.346L53.232,74.346C54.136,74.346,55.015,74.053,55.738,73.511C62.8,68.214,67.087,59.87,67.087,50.812C67.087,35.198,54.329,22.44,38.714,22.44C23.1,22.44,10.342,35.198,10.342,50.812C10.342,59.87,14.628,68.214,21.691,73.511C22.414,74.053,23.293,74.346,24.196,74.346ZM24.196,65.993L26.702,66.829C21.717,63.089,18.694,57.206,18.694,50.812C18.694,39.811,27.713,30.792,38.714,30.792C49.716,30.792,58.734,39.811,58.734,50.812C58.734,57.206,55.712,63.089,50.726,66.829L53.232,65.993L24.196,65.993Z"/>
  <path stroke-linecap="round" fill-opacity="1" stroke-linejoin="round" version="1.1" fill-rule="nonzero" xml:space="preserve" y="0px" stroke-width="2px" xmlns:xlink="http://www.w3.org/1999/xlink" fill="#000000" x="0px" stroke-opacity="1" stroke-dasharray="none" stroke="none" stroke-miterlimit="10" d="M25.953,33.633L25.953,24.196C25.953,17.215,31.676,11.435,38.714,11.435C45.695,11.435,51.475,17.159,51.475,24.196L51.475,33.633C51.475,35.94,53.345,37.809,55.652,37.809C57.958,37.809,59.828,35.94,59.828,33.633L59.828,24.196C59.828,12.527,50.29,3.083,38.714,3.083C27.045,3.083,17.6,12.621,17.6,24.196L17.6,33.633C17.6,35.94,19.47,37.809,21.777,37.809C24.083,37.809,25.953,35.94,25.953,33.633Z"/>
  <path xml:space="preserve" fill-opacity="1" stroke-linejoin="round" stroke-opacity="1" stroke-linecap="round" y="0px" fill="#000000" stroke-miterlimit="10" fill-rule="nonzero" stroke="none" stroke-width="2px" version="1.1" stroke-dasharray="none" x="0px" xmlns:xlink="http://www.w3.org/1999/xlink" d="M44.457,42.238C46.271,43.392,47.835,45.478,48.515,47.685C49.193,49.89,51.53,51.127,53.734,50.449C55.939,49.77,57.176,47.433,56.498,45.229C55.241,41.146,52.45,37.424,48.941,35.191C46.995,33.953,44.414,34.526,43.176,36.472C41.937,38.418,42.511,40.999,44.457,42.238Z"/>
</g>
  <g id="Semibold-M" transform="matrix(1.0,0.0,0.0,1.0,2005.8357357486263,1052.0557552798764)">  <path stroke-dasharray="none" version="1.1" xml:space="preserve" stroke-width="2px" stroke="none" fill-opacity="1" xmlns:xlink="http://www.w3.org/1999/xlink" fill-rule="nonzero" fill="#000000" stroke-linecap="round" stroke-linejoin="round" x="0px" stroke-miterlimit="10" stroke-opacity="1" y="0px" d="M24.196,73.76L53.232,73.76C54.009,73.76,54.765,73.508,55.387,73.042C62.303,67.855,66.501,59.683,66.501,50.812C66.501,35.521,54.005,23.025,38.714,23.025C23.423,23.025,10.927,35.521,10.927,50.812C10.927,59.683,15.125,67.855,22.042,73.042C22.664,73.508,23.419,73.76,24.196,73.76ZM24.196,66.579L26.351,67.297C21.22,63.449,18.109,57.393,18.109,50.812C18.109,39.488,27.389,30.207,38.714,30.207C50.039,30.207,59.32,39.488,59.32,50.812C59.32,57.393,56.209,63.449,51.078,67.297L53.232,66.579L24.196,66.579Z"/>
  <path y="0px" fill-opacity="1" fill-rule="nonzero" fill="#000000" stroke="none" x="0px" xml:space="preserve" stroke-linecap="round" stroke-opacity="1" stroke-linejoin="round" stroke-miterlimit="10" xmlns:xlink="http://www.w3.org/1999/xlink" stroke-width="2px" version="1.1" stroke-dasharray="none" d="M25.368,33.633L25.368,24.196C25.368,16.893,31.352,10.85,38.714,10.85C46.018,10.85,52.061,16.834,52.061,24.196L52.061,33.633C52.061,35.616,53.669,37.224,55.652,37.224C57.635,37.224,59.243,35.616,59.243,33.633L59.243,24.196C59.243,12.852,49.968,3.668,38.714,3.668C27.37,3.668,18.186,12.943,18.186,24.196L18.186,33.633C18.186,35.616,19.794,37.224,21.777,37.224C23.76,37.224,25.368,35.616,25.368,33.633Z"/>
  <path stroke-width="2px" xml:space="preserve" fill="#000000" stroke="none" stroke-linecap="round" stroke-dasharray="none" y="0px" fill-rule="nonzero" fill-opacity="1" stroke-miterlimit="10" stroke-opacity="1" xmlns:xlink="http://www.w3.org/1999/xlink" stroke-linejoin="round" x="0px" version="1.1" d="M44.771,41.744C46.704,42.974,48.355,45.174,49.074,47.513C49.657,49.409,51.667,50.472,53.562,49.889C55.458,49.306,56.521,47.297,55.938,45.401C54.722,41.449,52.017,37.842,48.627,35.685C46.954,34.62,44.734,35.113,43.67,36.786C42.605,38.46,43.098,40.679,44.771,41.744Z"/>
</g>
  <g id="Medium-M" transform="matrix(1.0,0.0,0.0,1.0,1709.1257357486263,1052.0557552798764)">  <path version="1.1" stroke-linejoin="round" stroke-opacity="1" x="0px" stroke-linecap="round" fill-opacity="1" stroke-width="2px" y="0px" stroke-dasharray="none" stroke="none" stroke-miterlimit="10" xmlns:xlink="http://www.w3.org/1999/xlink" fill-rule="nonzero" xml:space="preserve" fill="#000000" d="M24.196,73.175L53.232,73.175C53.882,73.175,54.515,72.964,55.035,72.574C61.806,67.495,65.916,59.496,65.916,50.812C65.916,35.845,53.682,23.611,38.714,23.611C23.747,23.611,11.513,35.845,11.513,50.812C11.513,59.496,15.622,67.495,22.393,72.574C22.913,72.964,23.546,73.175,24.196,73.175ZM24.196,67.164L26,67.765C20.723,63.808,17.523,57.58,17.523,50.812C17.523,39.164,27.066,29.621,38.714,29.621C50.363,29.621,59.905,39.164,59.905,50.812C59.905,57.58,56.706,63.808,51.429,67.765L53.232,67.164L24.196,67.164Z"/>
  <path stroke-dasharray="none" stroke-opacity="1" fill-opacity="1" fill-rule="nonzero" fill="#000000" version="1.1" xmlns:xlink="http://www.w3.org/1999/xlink" y="0px" stroke-linecap="round" xml:space="preserve" stroke-miterlimit="10" x="0px" stroke="none" stroke-linejoin="round" stroke-width="2px" d="M24.782,33.633L24.782,24.196C24.782,16.571,31.027,10.264,38.714,10.264C46.34,10.264,52.647,16.509,52.647,24.196L52.647,33.633C52.647,35.293,53.992,36.638,55.652,36.638C57.311,36.638,58.657,35.293,58.657,33.633L58.657,24.196C58.657,13.176,49.646,4.254,38.714,4.254C27.694,4.254,18.772,13.265,18.772,24.196L18.772,33.633C18.772,35.293,20.117,36.638,21.777,36.638C23.436,36.638,24.782,35.293,24.782,33.633Z"/>
  <path x="0px" fill-rule="nonzero" fill="#000000" stroke-width="2px" xmlns:xlink="http://www.w3.org/1999/xlink" fill-opacity="1" y="0px" stroke-miterlimit="10" stroke-opacity="1" stroke-dasharray="none" version="1.1" stroke="none" stroke-linecap="round" stroke-linejoin="round" xml:space="preserve" d="M45.086,41.25C47.138,42.555,48.874,44.87,49.634,47.341C50.122,48.927,51.804,49.818,53.39,49.329C54.976,48.841,55.867,47.16,55.379,45.573C54.203,41.753,51.584,38.261,48.312,36.179C46.912,35.288,45.055,35.701,44.164,37.101C43.273,38.501,43.685,40.359,45.086,41.25Z"/>
</g>
  <g id="Regular-M" transform="matrix(1.0,0.0,0.0,1.0,1412.4157357486263,1052.0557552798764)">  <path xml:space="preserve" fill-rule="nonzero" stroke-width="2px" stroke-opacity="1" stroke="none" stroke-linejoin="round" stroke-linecap="round" y="0px" fill-opacity="1" stroke-dasharray="none" fill="#000000" x="0px" stroke-miterlimit="10" xmlns:xlink="http://www.w3.org/1999/xlink" version="1.1" d="M24.196,72.589L53.232,72.589C53.756,72.589,54.265,72.419,54.684,72.105C61.309,67.136,65.33,59.31,65.33,50.812C65.33,36.168,53.359,24.196,38.714,24.196C24.07,24.196,12.098,36.168,12.098,50.812C12.098,59.31,16.119,67.136,22.745,72.105C23.163,72.419,23.673,72.589,24.196,72.589ZM24.196,67.75L25.648,68.234C20.226,64.167,16.937,57.766,16.937,50.812C16.937,38.841,26.743,29.036,38.714,29.036C50.686,29.036,60.491,38.841,60.491,50.812C60.491,57.766,57.203,64.167,51.78,68.234L53.232,67.75L24.196,67.75Z"/>
  <path fill-opacity="1" xmlns:xlink="http://www.w3.org/1999/xlink" stroke-linejoin="round" y="0px" fill="#000000" stroke-width="2px" stroke-dasharray="none" xml:space="preserve" stroke-opacity="1" x="0px" fill-rule="nonzero" version="1.1" stroke-miterlimit="10" stroke-linecap="round" stroke="none" d="M24.196,33.633L24.196,24.196C24.196,16.249,30.702,9.679,38.714,9.679C46.662,9.679,53.232,16.185,53.232,24.196L53.232,33.633C53.232,34.969,54.315,36.053,55.652,36.053C56.988,36.053,58.071,34.969,58.071,33.633L58.071,24.196C58.071,13.501,49.324,4.839,38.714,4.839C28.019,4.839,19.357,13.587,19.357,24.196L19.357,33.633C19.357,34.969,20.44,36.053,21.777,36.053C23.113,36.053,24.196,34.969,24.196,33.633Z"/>
  <path version="1.1" stroke-linejoin="round" stroke-dasharray="none" stroke-linecap="round" xmlns:xlink="http://www.w3.org/1999/xlink" fill="#000000" fill-rule="nonzero" stroke-opacity="1" xml:space="preserve" x="0px" y="0px" stroke="none" stroke-width="2px" fill-opacity="1" stroke-miterlimit="10" d="M45.4,40.756C47.571,42.137,49.393,44.567,50.194,47.169C50.587,48.446,51.941,49.163,53.218,48.77C54.495,48.377,55.212,47.023,54.819,45.746C53.684,42.057,51.151,38.679,47.998,36.673C46.871,35.955,45.375,36.288,44.658,37.415C43.94,38.543,44.273,40.038,45.4,40.756Z"/>
</g>
  <g id="Light-M" transform="matrix(1.0,0.0,0.0,1.0,1115.7057357486265,1052.0557552798764)">  <path stroke-miterlimit="10" version="1.1" fill="#000000" stroke-dasharray="none" x="0px" stroke-linejoin="round" stroke-width="2px" stroke-opacity="1" xmlns:xlink="http://www.w3.org/1999/xlink" xml:space="preserve" stroke-linecap="round" stroke="none" fill-rule="nonzero" fill-opacity="1" y="0px" d="M24.196,72.186L53.232,72.186C53.668,72.186,54.093,72.044,54.442,71.783C60.967,66.889,64.927,59.181,64.927,50.812C64.927,36.391,53.136,24.6,38.714,24.6C24.293,24.6,12.501,36.391,12.501,50.812C12.501,59.181,16.461,66.889,22.987,71.783C23.336,72.044,23.76,72.186,24.196,72.186ZM24.196,68.153L25.406,68.557C19.884,64.415,16.534,57.895,16.534,50.812C16.534,38.618,26.52,28.632,38.714,28.632C50.909,28.632,60.894,38.618,60.894,50.812C60.894,57.895,57.545,64.415,52.022,68.557L53.232,68.153L24.196,68.153Z"/>
  <path stroke-width="2px" x="0px" fill-opacity="1" stroke-miterlimit="10" stroke-opacity="1" fill-rule="nonzero" stroke-dasharray="none" y="0px" fill="#000000" stroke-linecap="round" xmlns:xlink="http://www.w3.org/1999/xlink" xml:space="preserve" stroke="none" version="1.1" stroke-linejoin="round" d="M23.793,33.633L23.793,24.196C23.793,16.027,30.479,9.275,38.714,9.275C46.884,9.275,53.635,15.961,53.635,24.196L53.635,33.633C53.635,34.747,54.538,35.649,55.652,35.649C56.765,35.649,57.668,34.747,57.668,33.633L57.668,24.196C57.668,13.725,49.102,5.243,38.714,5.243C28.243,5.243,19.76,13.809,19.76,24.196L19.76,33.633C19.76,34.747,20.663,35.649,21.777,35.649C22.89,35.649,23.793,34.747,23.793,33.633Z"/>
  <path stroke-linejoin="round" fill-opacity="1" xml:space="preserve" version="1.1" fill-rule="nonzero" stroke-width="2px" stroke-linecap="round" stroke-dasharray="none" x="0px" stroke-opacity="1" y="0px" fill="#000000" stroke-miterlimit="10" xmlns:xlink="http://www.w3.org/1999/xlink" stroke="none" d="M45.617,40.415C47.869,41.849,49.75,44.357,50.579,47.05C50.907,48.114,52.035,48.712,53.099,48.384C54.164,48.057,54.761,46.928,54.433,45.864C53.326,42.266,50.852,38.967,47.782,37.013C46.842,36.415,45.596,36.692,44.998,37.632C44.4,38.571,44.677,39.818,45.617,40.415Z"/>
</g>
  <g id="Thin-M" transform="matrix(1.0,0.0,0.0,1.0,818.9957357486264,1052.0557552798764)">  <path y="0px" stroke-width="2px" stroke-linejoin="round" fill-rule="nonzero" x="0px" stroke="none" xmlns:xlink="http://www.w3.org/1999/xlink" stroke-linecap="round" stroke-dasharray="none" stroke-opacity="1" version="1.1" fill-opacity="1" xml:space="preserve" stroke-miterlimit="10" fill="#000000" d="M24.196,71.783L53.232,71.783C53.581,71.783,53.921,71.669,54.2,71.46C60.625,66.641,64.524,59.052,64.524,50.812C64.524,36.614,52.913,25.003,38.714,25.003C24.515,25.003,12.905,36.614,12.905,50.812C12.905,59.052,16.804,66.641,23.229,71.46C23.508,71.669,23.847,71.783,24.196,71.783ZM24.196,68.557L25.164,68.879C19.542,64.662,16.131,58.024,16.131,50.812C16.131,38.395,26.297,28.229,38.714,28.229C51.131,28.229,61.298,38.395,61.298,50.812C61.298,58.024,57.887,64.662,52.264,68.879L53.232,68.557L24.196,68.557Z"/>
  <path fill-rule="nonzero" fill-opacity="1" xml:space="preserve" stroke-opacity="1" y="0px" version="1.1" stroke-linecap="round" stroke-linejoin="round" x="0px" stroke-dasharray="none" stroke-miterlimit="10" xmlns:xlink="http://www.w3.org/1999/xlink" stroke="none" stroke-width="2px" fill="#000000" d="M23.39,33.633L23.39,24.196C23.39,15.805,30.255,8.872,38.714,8.872C47.105,8.872,54.039,15.737,54.039,24.196L54.039,33.633C54.039,34.524,54.761,35.246,55.652,35.246C56.543,35.246,57.265,34.524,57.265,33.633L57.265,24.196C57.265,13.948,48.88,5.646,38.714,5.646C28.466,5.646,20.164,14.031,20.164,24.196L20.164,33.633C20.164,34.524,20.886,35.246,21.777,35.246C22.668,35.246,23.39,34.524,23.39,33.633Z"/>
  <path xmlns:xlink="http://www.w3.org/1999/xlink" version="1.1" stroke-linejoin="round" stroke-opacity="1" stroke-width="2px" stroke-dasharray="none" xml:space="preserve" y="0px" stroke-linecap="round" x="0px" fill-rule="nonzero" fill="#000000" stroke="none" fill-opacity="1" stroke-miterlimit="10" d="M45.833,40.075C48.167,41.561,50.108,44.148,50.964,46.932C51.226,47.783,52.129,48.261,52.981,47.999C53.832,47.737,54.31,46.834,54.048,45.983C52.969,42.475,50.554,39.255,47.565,37.353C46.814,36.875,45.816,37.097,45.338,37.848C44.86,38.6,45.081,39.597,45.833,40.075Z"/>
</g>
  <g id="Ultralight-M" transform="matrix(1.0,0.0,0.0,1.0,522.2857357486264,1052.0557552798764)">  <path stroke-linejoin="round" y="0px" fill-rule="nonzero" xml:space="preserve" stroke-dasharray="none" stroke="none" fill-opacity="1" version="1.1" fill="#000000" xmlns:xlink="http://www.w3.org/1999/xlink" x="0px" stroke-opacity="1" stroke-width="2px" stroke-linecap="round" stroke-miterlimit="10" d="M24.196,71.379L53.232,71.379C53.494,71.379,53.749,71.295,53.958,71.137C60.283,66.394,64.121,58.924,64.121,50.812C64.121,36.836,52.69,25.406,38.714,25.406C24.738,25.406,13.308,36.836,13.308,50.812C13.308,58.924,17.146,66.394,23.471,71.137C23.68,71.295,23.935,71.379,24.196,71.379ZM24.196,68.96L24.922,69.202C19.199,64.909,15.728,58.152,15.728,50.812C15.728,38.173,26.074,27.826,38.714,27.826C51.354,27.826,61.701,38.173,61.701,50.812C61.701,58.152,58.229,64.909,52.506,69.202L53.232,68.96L24.196,68.96Z"/>
  <path stroke-width="2px" stroke-dasharray="none" version="1.1" xml:space="preserve" stroke="none" stroke-miterlimit="10" xmlns:xlink="http://www.w3.org/1999/xlink" fill="#000000" stroke-linejoin="round" stroke-opacity="1" stroke-linecap="round" x="0px" fill-opacity="1" fill-rule="nonzero" y="0px" d="M22.987,33.633L22.987,24.196C22.987,15.583,30.032,8.469,38.714,8.469C47.327,8.469,54.442,15.514,54.442,24.196L54.442,33.633C54.442,34.301,54.984,34.843,55.652,34.843C56.32,34.843,56.862,34.301,56.862,33.633L56.862,24.196C56.862,14.172,48.658,6.049,38.714,6.049C28.69,6.049,20.567,14.252,20.567,24.196L20.567,33.633C20.567,34.301,21.109,34.843,21.777,34.843C22.445,34.843,22.987,34.301,22.987,33.633Z"/>
  <path fill-rule="nonzero" stroke-linejoin="round" stroke-opacity="1" version="1.1" fill="#000000" fill-opacity="1" y="0px" stroke="none" x="0px" xml:space="preserve" stroke-miterlimit="10" stroke-linecap="round" xmlns:xlink="http://www.w3.org/1999/xlink" stroke-dasharray="none" stroke-width="2px" d="M46.05,39.735C48.466,41.272,50.466,43.939,51.35,46.813C51.546,47.452,52.223,47.81,52.862,47.613C53.501,47.417,53.859,46.74,53.663,46.101C52.611,42.684,50.256,39.544,47.349,37.694C46.785,37.335,46.037,37.501,45.678,38.065C45.32,38.628,45.486,39.376,46.05,39.735Z"/>
</g>
  <g id="Black-S" transform="matrix(1.0,0.0,0.0,1.0,2904.366731091174,630.4567506224245)">  <path stroke-opacity="1" stroke="none" fill-rule="nonzero" stroke-dasharray="none" fill="#000000" stroke-width="2px" x="0px" stroke-miterlimit="10" xml:space="preserve" y="0px" version="1.1" stroke-linejoin="round" fill-opacity="1" stroke-linecap="round" xmlns:xlink="http://www.w3.org/1999/xlink" d="M18.946,59.13L41.681,59.13C42.587,59.13,43.468,58.836,44.193,58.292C49.951,53.974,53.446,47.171,53.446,39.786C53.446,27.054,43.046,16.653,30.313,16.653C17.581,16.653,7.18,27.054,7.18,39.786C7.18,47.171,10.676,53.974,16.434,58.292C17.158,58.836,18.04,59.13,18.946,59.13ZM18.946,50.756L21.458,51.593C17.782,48.836,15.554,44.5,15.554,39.786C15.554,31.678,22.206,25.027,30.313,25.027C38.421,25.027,45.072,31.678,45.072,39.786C45.072,44.5,42.844,48.836,39.169,51.593L41.681,50.756L18.946,50.756Z"/>
  <path stroke-opacity="1" fill-rule="nonzero" version="1.1" x="0px" xml:space="preserve" stroke-miterlimit="10" stroke-dasharray="none" stroke-linecap="round" y="0px" xmlns:xlink="http://www.w3.org/1999/xlink" fill="#000000" fill-opacity="1" stroke-width="2px" stroke-linejoin="round" stroke="none" d="M21.238,26.335L21.238,18.946C21.238,13.984,25.311,9.871,30.313,9.871C35.275,9.871,39.388,13.944,39.388,18.946L39.388,26.335C39.388,28.647,41.263,30.522,43.575,30.522C45.888,30.522,47.762,28.647,47.762,26.335L47.762,18.946C47.762,9.3,39.882,1.497,30.313,1.497C20.668,1.497,12.864,9.377,12.864,18.946L12.864,26.335C12.864,28.647,14.739,30.522,17.051,30.522C19.364,30.522,21.238,28.647,21.238,26.335Z"/>
  <path stroke-dasharray="none" stroke-linecap="round" stroke="none" fill-rule="nonzero" y="0px" fill-opacity="1" stroke-linejoin="round" xml:space="preserve" stroke-opacity="1" stroke-miterlimit="10" fill="#000000" xmlns:xlink="http://www.w3.org/1999/xlink" x="0px" version="1.1" stroke-width="2px" d="M34.317,33.846C35.552,34.631,36.642,36.085,37.111,37.607C37.791,39.817,40.134,41.058,42.344,40.378C44.554,39.698,45.794,37.355,45.114,35.145C44.067,31.741,41.747,28.648,38.813,26.781C36.862,25.539,34.274,26.114,33.033,28.065C31.791,30.016,32.367,32.604,34.317,33.846Z"/>
</g>
  <g id="Heavy-S" transform="matrix(1.0,0.0,0.0,1.0,2607.656731091174,630.4567506224245)">  <path stroke-linecap="round" version="1.1" stroke-width="2px" stroke-miterlimit="10" stroke-dasharray="none" stroke="none" xmlns:xlink="http://www.w3.org/1999/xlink" stroke-linejoin="round" fill-opacity="1" xml:space="preserve" y="0px" fill="#000000" stroke-opacity="1" x="0px" fill-rule="nonzero" d="M18.946,58.671L41.681,58.671C42.487,58.671,43.272,58.41,43.918,57.926C49.562,53.693,52.988,47.024,52.988,39.786C52.988,27.307,42.793,17.112,30.313,17.112C17.834,17.112,7.639,27.307,7.639,39.786C7.639,47.024,11.065,53.693,16.709,57.926C17.354,58.41,18.139,58.671,18.946,58.671ZM18.946,51.214L21.183,51.96C17.393,49.118,15.096,44.646,15.096,39.786C15.096,31.425,21.952,24.569,30.313,24.569C38.674,24.569,45.531,31.425,45.531,39.786C45.531,44.646,43.233,49.118,39.444,51.96L41.681,51.214L18.946,51.214Z"/>
  <path stroke-linecap="round" fill="#000000" y="0px" stroke-dasharray="none" version="1.1" stroke-opacity="1" x="0px" fill-opacity="1" stroke-linejoin="round" xml:space="preserve" xmlns:xlink="http://www.w3.org/1999/xlink" stroke="none" stroke-width="2px" stroke-miterlimit="10" fill-rule="nonzero" d="M20.78,26.335L20.78,18.946C20.78,13.732,25.057,9.412,30.313,9.412C35.527,9.412,39.847,13.689,39.847,18.946L39.847,26.335C39.847,28.394,41.516,30.063,43.575,30.063C45.635,30.063,47.304,28.394,47.304,26.335L47.304,18.946C47.304,9.554,39.629,1.955,30.313,1.955C20.922,1.955,13.323,9.63,13.323,18.946L13.323,26.335C13.323,28.394,14.992,30.063,17.051,30.063C19.11,30.063,20.78,28.394,20.78,26.335Z"/>
  <path stroke-miterlimit="10" version="1.1" stroke-linejoin="round" fill-opacity="1" fill="#000000" y="0px" fill-rule="nonzero" xml:space="preserve" x="0px" stroke-linecap="round" stroke-dasharray="none" xmlns:xlink="http://www.w3.org/1999/xlink" stroke="none" stroke-opacity="1" stroke-width="2px" d="M34.564,33.459C35.891,34.304,37.049,35.847,37.549,37.472C38.154,39.441,40.241,40.545,42.209,39.94C44.177,39.334,45.282,37.248,44.676,35.279C43.661,31.979,41.408,28.975,38.567,27.168C36.83,26.062,34.525,26.574,33.42,28.312C32.314,30.049,32.826,32.353,34.564,33.459Z"/>
</g>
  <g id="Bold-S" transform="matrix(1.0,0.0,0.0,1.0,2310.946731091174,630.4567506224245)">  <path stroke-opacity="1" stroke-miterlimit="10" fill-rule="nonzero" x="0px" stroke-linecap="round" fill="#000000" y="0px" stroke="none" stroke-width="2px" xml:space="preserve" fill-opacity="1" version="1.1" xmlns:xlink="http://www.w3.org/1999/xlink" stroke-dasharray="none" stroke-linejoin="round" d="M18.946,58.213L41.681,58.213C42.388,58.213,43.077,57.983,43.643,57.559C49.172,53.412,52.529,46.878,52.529,39.786C52.529,27.56,42.539,17.57,30.313,17.57C18.087,17.57,8.097,27.56,8.097,39.786C8.097,46.878,11.454,53.412,16.984,57.559C17.55,57.983,18.238,58.213,18.946,58.213ZM18.946,51.673L20.908,52.327C17.004,49.399,14.638,44.792,14.638,39.786C14.638,31.172,21.699,24.11,30.313,24.11C38.927,24.11,45.989,31.172,45.989,39.786C45.989,44.792,43.622,49.399,39.719,52.327L41.681,51.673L18.946,51.673Z"/>
  <path stroke-linecap="round" fill-opacity="1" stroke-linejoin="round" version="1.1" fill-rule="nonzero" xml:space="preserve" y="0px" stroke-width="2px" xmlns:xlink="http://www.w3.org/1999/xlink" fill="#000000" x="0px" stroke-opacity="1" stroke-dasharray="none" stroke="none" stroke-miterlimit="10" d="M20.321,26.335L20.321,18.946C20.321,13.48,24.803,8.954,30.313,8.954C35.78,8.954,40.305,13.435,40.305,18.946L40.305,26.335C40.305,28.141,41.769,29.605,43.575,29.605C45.381,29.605,46.845,28.141,46.845,26.335L46.845,18.946C46.845,9.809,39.377,2.414,30.313,2.414C21.176,2.414,13.781,9.882,13.781,18.946L13.781,26.335C13.781,28.141,15.245,29.605,17.051,29.605C18.857,29.605,20.321,28.141,20.321,26.335Z"/>
  <path xml:space="preserve" fill-opacity="1" stroke-linejoin="round" stroke-opacity="1" stroke-linecap="round" y="0px" fill="#000000" stroke-miterlimit="10" fill-rule="nonzero" stroke="none" stroke-width="2px" version="1.1" stroke-dasharray="none" x="0px" xmlns:xlink="http://www.w3.org/1999/xlink" d="M34.81,33.072C36.23,33.976,37.455,35.609,37.987,37.338C38.518,39.064,40.348,40.032,42.074,39.501C43.8,38.97,44.769,37.14,44.238,35.414C43.254,32.217,41.068,29.303,38.321,27.554C36.797,26.585,34.776,27.034,33.807,28.558C32.837,30.081,33.286,32.102,34.81,33.072Z"/>
</g>
  <g id="Semibold-S" transform="matrix(1.0,0.0,0.0,1.0,2014.2367310911743,630.4567506224245)">  <path stroke-dasharray="none" version="1.1" xml:space="preserve" stroke-width="2px" stroke="none" fill-opacity="1" xmlns:xlink="http://www.w3.org/1999/xlink" fill-rule="nonzero" fill="#000000" stroke-linecap="round" stroke-linejoin="round" x="0px" stroke-miterlimit="10" stroke-opacity="1" y="0px" d="M18.946,57.754L41.681,57.754C42.289,57.754,42.881,57.557,43.368,57.192C48.783,53.13,52.071,46.732,52.071,39.786C52.071,27.813,42.286,18.029,30.313,18.029C18.34,18.029,8.556,27.813,8.556,39.786C8.556,46.732,11.843,53.13,17.259,57.192C17.746,57.557,18.337,57.754,18.946,57.754ZM18.946,52.131L20.633,52.694C16.615,49.68,14.179,44.939,14.179,39.786C14.179,30.919,21.446,23.652,30.313,23.652C39.181,23.652,46.448,30.919,46.448,39.786C46.448,44.939,44.011,49.68,39.994,52.694L41.681,52.131L18.946,52.131Z"/>
  <path y="0px" fill-opacity="1" fill-rule="nonzero" fill="#000000" stroke="none" x="0px" xml:space="preserve" stroke-linecap="round" stroke-opacity="1" stroke-linejoin="round" stroke-miterlimit="10" xmlns:xlink="http://www.w3.org/1999/xlink" stroke-width="2px" version="1.1" stroke-dasharray="none" d="M19.863,26.335L19.863,18.946C19.863,13.227,24.548,8.495,30.313,8.495C36.032,8.495,40.764,13.181,40.764,18.946L40.764,26.335C40.764,27.887,42.023,29.146,43.575,29.146C45.128,29.146,46.387,27.887,46.387,26.335L46.387,18.946C46.387,10.063,39.125,2.872,30.313,2.872C21.43,2.872,14.24,10.134,14.24,18.946L14.24,26.335C14.24,27.887,15.498,29.146,17.051,29.146C18.604,29.146,19.863,27.887,19.863,26.335Z"/>
  <path stroke-width="2px" xml:space="preserve" fill="#000000" stroke="none" stroke-linecap="round" stroke-dasharray="none" y="0px" fill-rule="nonzero" fill-opacity="1" stroke-miterlimit="10" stroke-opacity="1" xmlns:xlink="http://www.w3.org/1999/xlink" stroke-linejoin="round" x="0px" version="1.1" d="M35.056,32.685C36.57,33.648,37.862,35.371,38.425,37.203C38.882,38.687,40.455,39.52,41.939,39.063C43.423,38.606,44.256,37.033,43.8,35.549C42.847,32.455,40.729,29.63,38.075,27.941C36.765,27.108,35.027,27.494,34.193,28.804C33.36,30.114,33.746,31.852,35.056,32.685Z"/>
</g>
  <g id="Medium-S" transform="matrix(1.0,0.0,0.0,1.0,1717.5267310911743,630.4567506224245)">  <path version="1.1" stroke-linejoin="round" stroke-opacity="1" x="0px" stroke-linecap="round" fill-opacity="1" stroke-width="2px" y="0px" stroke-dasharray="none" stroke="none" stroke-miterlimit="10" xmlns:xlink="http://www.w3.org/1999/xlink" fill-rule="nonzero" xml:space="preserve" fill="#000000" d="M18.946,57.296L41.681,57.296C42.19,57.296,42.685,57.131,43.093,56.825C48.394,52.849,51.612,46.586,51.612,39.786C51.612,28.066,42.033,18.487,30.313,18.487C18.594,18.487,9.014,28.066,9.014,39.786C9.014,46.586,12.232,52.849,17.534,56.825C17.941,57.131,18.437,57.296,18.946,57.296ZM18.946,52.59L20.358,53.06C16.226,49.962,13.721,45.085,13.721,39.786C13.721,30.666,21.193,23.193,30.313,23.193C39.434,23.193,46.906,30.666,46.906,39.786C46.906,45.085,44.401,49.962,40.269,53.06L41.681,52.59L18.946,52.59Z"/>
  <path stroke-dasharray="none" stroke-opacity="1" fill-opacity="1" fill-rule="nonzero" fill="#000000" version="1.1" xmlns:xlink="http://www.w3.org/1999/xlink" y="0px" stroke-linecap="round" xml:space="preserve" stroke-miterlimit="10" x="0px" stroke="none" stroke-linejoin="round" stroke-width="2px" d="M19.404,26.335L19.404,18.946C19.404,12.975,24.294,8.037,30.313,8.037C36.284,8.037,41.222,12.927,41.222,18.946L41.222,26.335C41.222,27.634,42.276,28.688,43.575,28.688C44.875,28.688,45.928,27.634,45.928,26.335L45.928,18.946C45.928,10.317,38.873,3.331,30.313,3.331C21.685,3.331,14.698,10.386,14.698,18.946L14.698,26.335C14.698,27.634,15.752,28.688,17.051,28.688C18.351,28.688,19.404,27.634,19.404,26.335Z"/>
  <path x="0px" fill-rule="nonzero" fill="#000000" stroke-width="2px" xmlns:xlink="http://www.w3.org/1999/xlink" fill-opacity="1" y="0px" stroke-miterlimit="10" stroke-opacity="1" stroke-dasharray="none" version="1.1" stroke="none" stroke-linecap="round" stroke-linejoin="round" xml:space="preserve" d="M35.302,32.298C36.909,33.321,38.268,35.133,38.863,37.068C39.246,38.31,40.562,39.007,41.804,38.625C43.046,38.243,43.744,36.926,43.361,35.684C42.441,32.693,40.39,29.958,37.829,28.328C36.732,27.63,35.278,27.954,34.58,29.05C33.882,30.146,34.206,31.601,35.302,32.298Z"/>
</g>
  <g id="Regular-S" transform="matrix(1.0,0.0,0.0,1.0,1420.8167310911742,630.4567506224245)">  <path xml:space="preserve" fill-rule="nonzero" stroke-width="2px" stroke-opacity="1" stroke="none" stroke-linejoin="round" stroke-linecap="round" y="0px" fill-opacity="1" stroke-dasharray="none" fill="#000000" x="0px" stroke-miterlimit="10" xmlns:xlink="http://www.w3.org/1999/xlink" version="1.1" d="M18.946,56.837L41.681,56.837C42.091,56.837,42.49,56.704,42.817,56.458C48.005,52.568,51.154,46.439,51.154,39.786C51.154,28.32,41.78,18.946,30.313,18.946C18.847,18.946,9.473,28.32,9.473,39.786C9.473,46.439,12.621,52.568,17.809,56.458C18.137,56.704,18.536,56.837,18.946,56.837ZM18.946,53.048L20.083,53.427C15.837,50.243,13.262,45.231,13.262,39.786C13.262,30.412,20.939,22.735,30.313,22.735C39.687,22.735,47.364,30.412,47.364,39.786C47.364,45.231,44.79,50.243,40.544,53.427L41.681,53.048L18.946,53.048Z"/>
  <path fill-opacity="1" xmlns:xlink="http://www.w3.org/1999/xlink" stroke-linejoin="round" y="0px" fill="#000000" stroke-width="2px" stroke-dasharray="none" xml:space="preserve" stroke-opacity="1" x="0px" fill-rule="nonzero" version="1.1" stroke-miterlimit="10" stroke-linecap="round" stroke="none" d="M18.946,26.335L18.946,18.946C18.946,12.723,24.04,7.578,30.313,7.578C36.536,7.578,41.681,12.672,41.681,18.946L41.681,26.335C41.681,27.381,42.529,28.229,43.575,28.229C44.622,28.229,45.47,27.381,45.47,26.335L45.47,18.946C45.47,10.571,38.621,3.789,30.313,3.789C21.939,3.789,15.157,10.639,15.157,18.946L15.157,26.335C15.157,27.381,16.005,28.229,17.051,28.229C18.098,28.229,18.946,27.381,18.946,26.335Z"/>
  <path version="1.1" stroke-linejoin="round" stroke-dasharray="none" stroke-linecap="round" xmlns:xlink="http://www.w3.org/1999/xlink" fill="#000000" fill-rule="nonzero" stroke-opacity="1" xml:space="preserve" x="0px" y="0px" stroke="none" stroke-width="2px" fill-opacity="1" stroke-miterlimit="10" d="M35.548,31.912C37.248,32.993,38.675,34.896,39.302,36.933C39.609,37.933,40.669,38.494,41.67,38.187C42.67,37.879,43.231,36.819,42.923,35.819C42.034,32.93,40.051,30.286,37.583,28.715C36.7,28.153,35.529,28.413,34.967,29.296C34.405,30.179,34.665,31.35,35.548,31.912Z"/>
</g>
  <g id="Light-S" transform="matrix(1.0,0.0,0.0,1.0,1124.1067310911744,630.4567506224245)">  <path stroke-miterlimit="10" version="1.1" fill="#000000" stroke-dasharray="none" x="0px" stroke-linejoin="round" stroke-width="2px" stroke-opacity="1" xmlns:xlink="http://www.w3.org/1999/xlink" xml:space="preserve" stroke-linecap="round" stroke="none" fill-rule="nonzero" fill-opacity="1" y="0px" d="M18.946,56.522L41.681,56.522C42.022,56.522,42.355,56.411,42.628,56.206C47.737,52.374,50.838,46.339,50.838,39.786C50.838,28.494,41.605,19.262,30.313,19.262C19.021,19.262,9.789,28.494,9.789,39.786C9.789,46.339,12.889,52.374,17.999,56.206C18.272,56.411,18.604,56.522,18.946,56.522ZM18.946,53.364L19.893,53.68C15.569,50.437,12.946,45.332,12.946,39.786C12.946,30.238,20.765,22.419,30.313,22.419C39.861,22.419,47.68,30.238,47.68,39.786C47.68,45.332,45.058,50.437,40.733,53.68L41.681,53.364L18.946,53.364Z"/>
  <path stroke-width="2px" x="0px" fill-opacity="1" stroke-miterlimit="10" stroke-opacity="1" fill-rule="nonzero" stroke-dasharray="none" y="0px" fill="#000000" stroke-linecap="round" xmlns:xlink="http://www.w3.org/1999/xlink" xml:space="preserve" stroke="none" version="1.1" stroke-linejoin="round" d="M18.63,26.335L18.63,18.946C18.63,12.549,23.865,7.263,30.313,7.263C36.71,7.263,41.997,12.497,41.997,18.946L41.997,26.335C41.997,27.207,42.703,27.913,43.575,27.913C44.447,27.913,45.154,27.207,45.154,26.335L45.154,18.946C45.154,10.746,38.447,4.105,30.313,4.105C22.114,4.105,15.472,10.812,15.472,18.946L15.472,26.335C15.472,27.207,16.179,27.913,17.051,27.913C17.923,27.913,18.63,27.207,18.63,26.335Z"/>
  <path stroke-linejoin="round" fill-opacity="1" xml:space="preserve" version="1.1" fill-rule="nonzero" stroke-width="2px" stroke-linecap="round" stroke-dasharray="none" x="0px" stroke-opacity="1" y="0px" fill="#000000" stroke-miterlimit="10" xmlns:xlink="http://www.w3.org/1999/xlink" stroke="none" d="M35.718,31.645C37.481,32.768,38.955,34.732,39.603,36.84C39.86,37.674,40.743,38.141,41.577,37.885C42.41,37.628,42.878,36.745,42.621,35.912C41.754,33.094,39.817,30.511,37.413,28.981C36.677,28.513,35.702,28.73,35.233,29.466C34.765,30.201,34.982,31.177,35.718,31.645Z"/>
</g>
  <g id="Thin-S" transform="matrix(1.0,0.0,0.0,1.0,827.3967310911745,630.4567506224245)">  <path y="0px" stroke-width="2px" stroke-linejoin="round" fill-rule="nonzero" x="0px" stroke="none" xmlns:xlink="http://www.w3.org/1999/xlink" stroke-linecap="round" stroke-dasharray="none" stroke-opacity="1" version="1.1" fill-opacity="1" xml:space="preserve" stroke-miterlimit="10" fill="#000000" d="M18.946,56.206L41.681,56.206C41.954,56.206,42.22,56.117,42.439,55.953C47.469,52.18,50.522,46.238,50.522,39.786C50.522,28.668,41.431,19.577,30.313,19.577C19.196,19.577,10.104,28.668,10.104,39.786C10.104,46.238,13.157,52.18,18.188,55.953C18.407,56.117,18.673,56.206,18.946,56.206ZM18.946,53.68L19.704,53.932C15.301,50.63,12.631,45.432,12.631,39.786C12.631,30.064,20.591,22.103,30.313,22.103C40.036,22.103,47.996,30.064,47.996,39.786C47.996,45.432,45.326,50.63,40.923,53.932L41.681,53.68L18.946,53.68Z"/>
  <path fill-rule="nonzero" fill-opacity="1" xml:space="preserve" stroke-opacity="1" y="0px" version="1.1" stroke-linecap="round" stroke-linejoin="round" x="0px" stroke-dasharray="none" stroke-miterlimit="10" xmlns:xlink="http://www.w3.org/1999/xlink" stroke="none" stroke-width="2px" fill="#000000" d="M18.314,26.335L18.314,18.946C18.314,12.376,23.69,6.947,30.313,6.947C36.884,6.947,42.312,12.322,42.312,18.946L42.312,26.335C42.312,27.032,42.878,27.598,43.575,27.598C44.273,27.598,44.838,27.032,44.838,26.335L44.838,18.946C44.838,10.922,38.273,4.421,30.313,4.421C22.289,4.421,15.788,10.986,15.788,18.946L15.788,26.335C15.788,27.032,16.354,27.598,17.051,27.598C17.749,27.598,18.314,27.032,18.314,26.335Z"/>
  <path xmlns:xlink="http://www.w3.org/1999/xlink" version="1.1" stroke-linejoin="round" stroke-opacity="1" stroke-width="2px" stroke-dasharray="none" xml:space="preserve" y="0px" stroke-linecap="round" x="0px" fill-rule="nonzero" fill="#000000" stroke="none" fill-opacity="1" stroke-miterlimit="10" d="M35.887,31.379C37.715,32.542,39.235,34.568,39.905,36.747C40.11,37.414,40.817,37.788,41.484,37.583C42.151,37.378,42.525,36.671,42.32,36.004C41.474,33.258,39.584,30.737,37.243,29.248C36.655,28.873,35.874,29.047,35.5,29.635C35.125,30.224,35.299,31.004,35.887,31.379Z"/>
</g>
  <g id="Ultralight-S" transform="matrix(1.0,0.0,0.0,1.0,530.6867310911745,630.4567506224245)">  <path stroke-linejoin="round" y="0px" fill-rule="nonzero" xml:space="preserve" stroke-dasharray="none" stroke="none" fill-opacity="1" version="1.1" fill="#000000" xmlns:xlink="http://www.w3.org/1999/xlink" x="0px" stroke-opacity="1" stroke-width="2px" stroke-linecap="round" stroke-miterlimit="10" d="M18.946,55.89L41.681,55.89C41.886,55.89,42.085,55.824,42.249,55.701C47.201,51.986,50.206,46.137,50.206,39.786C50.206,28.843,41.257,19.893,30.313,19.893C19.37,19.893,10.42,28.843,10.42,39.786C10.42,46.137,13.425,51.986,18.377,55.701C18.541,55.824,18.741,55.89,18.946,55.89ZM18.946,53.996L19.514,54.185C15.033,50.824,12.315,45.533,12.315,39.786C12.315,29.889,20.416,21.788,30.313,21.788C40.21,21.788,48.312,29.889,48.312,39.786C48.312,45.533,45.593,50.824,41.112,54.185L41.681,53.996L18.946,53.996Z"/>
  <path stroke-width="2px" stroke-dasharray="none" version="1.1" xml:space="preserve" stroke="none" stroke-miterlimit="10" xmlns:xlink="http://www.w3.org/1999/xlink" fill="#000000" stroke-linejoin="round" stroke-opacity="1" stroke-linecap="round" x="0px" fill-opacity="1" fill-rule="nonzero" y="0px" d="M17.999,26.335L17.999,18.946C17.999,12.202,23.515,6.631,30.313,6.631C37.057,6.631,42.628,12.147,42.628,18.946L42.628,26.335C42.628,26.858,43.052,27.282,43.575,27.282C44.098,27.282,44.523,26.858,44.523,26.335L44.523,18.946C44.523,11.097,38.099,4.736,30.313,4.736C22.464,4.736,16.104,11.16,16.104,18.946L16.104,26.335C16.104,26.858,16.528,27.282,17.051,27.282C17.574,27.282,17.999,26.858,17.999,26.335Z"/>
  <path fill-rule="nonzero" stroke-linejoin="round" stroke-opacity="1" version="1.1" fill="#000000" fill-opacity="1" y="0px" stroke="none" x="0px" xml:space="preserve" stroke-miterlimit="10" stroke-linecap="round" xmlns:xlink="http://www.w3.org/1999/xlink" stroke-dasharray="none" stroke-width="2px" d="M36.057,31.112C37.949,32.316,39.515,34.404,40.207,36.655C40.361,37.155,40.891,37.435,41.391,37.281C41.891,37.127,42.172,36.597,42.018,36.097C41.194,33.422,39.35,30.963,37.074,29.514C36.633,29.233,36.047,29.363,35.766,29.805C35.485,30.246,35.615,30.832,36.057,31.112Z"/>
</g>
 </g>
</svg>
